SplineFontDB: 3.2
FontName: Rom-Italic
FullName: Rom Italic
FamilyName: Rom
Weight: Regular
Copyright: (c) designteam 2020
Version: 001.000
ItalicAngle: -11
UnderlinePosition: -100
UnderlineWidth: 50
Ascent: 750
Descent: 250
InvalidEm: 0
LayerCount: 2
Layer: 0 0 "Back" 1
Layer: 1 0 "Fore" 0
XUID: [1021 595 1893679584 14126599]
BaseHoriz: 2 'ideo' 'romn'
BaseScript: 'cyrl' 1  -163 0
BaseScript: 'grek' 1  -163 0
BaseScript: 'latn' 1  -163 0
StyleMap: 0x0001
FSType: 8
OS2Version: 0
OS2_WeightWidthSlopeOnly: 0
OS2_UseTypoMetrics: 0
CreationTime: 1093872638
ModificationTime: 1601215024
PfmFamily: 33
TTFWeight: 400
TTFWidth: 5
LineGap: 200
VLineGap: 0
Panose: 2 11 4 3 3 4 3 9 2 4
OS2TypoAscent: 750
OS2TypoAOffset: 0
OS2TypoDescent: -250
OS2TypoDOffset: 0
OS2TypoLinegap: 200
OS2WinAscent: 933
OS2WinAOffset: 0
OS2WinDescent: 250
OS2WinDOffset: 0
HheadAscent: 750
HheadAOffset: 0
HheadDescent: -250
HheadDOffset: 0
OS2SubXSize: 650
OS2SubYSize: 600
OS2SubXOff: -15
OS2SubYOff: 75
OS2SupXSize: 650
OS2SupYSize: 600
OS2SupXOff: 68
OS2SupYOff: 350
OS2StrikeYSize: 50
OS2StrikeYPos: 290
OS2CapHeight: 674
OS2XHeight: 484
OS2Vendor: 'DtEu'
OS2CodePages: 0000019f.00000000
OS2UnicodeRanges: a00002af.5000204b.00000000.00000000
Lookup: 1 0 0 "'aalt' Access All Alternates lookup 0" { "'aalt' Access All Alternates lookup 0 subtable"  } ['aalt' ('cyrl' <'dflt' > 'grek' <'dflt' > 'latn' <'AZE ' 'CRT ' 'DEU ' 'MOL ' 'ROM ' 'SRB ' 'TRK ' 'dflt' > ) ]
Lookup: 3 0 0 "'aalt' Access All Alternates lookup 1" { "'aalt' Access All Alternates lookup 1 subtable"  } ['aalt' ('cyrl' <'dflt' > 'grek' <'dflt' > 'latn' <'AZE ' 'CRT ' 'DEU ' 'MOL ' 'ROM ' 'SRB ' 'TRK ' 'dflt' > ) ]
Lookup: 1 0 0 "'salt' Stylistic Alternatives lookup 2" { "'salt' Stylistic Alternatives lookup 2 subtable"  } ['locl' ('latn' <'SRB ' > ) 'salt' ('cyrl' <'dflt' > 'grek' <'dflt' > 'latn' <'AZE ' 'CRT ' 'DEU ' 'MOL ' 'ROM ' 'SRB ' 'TRK ' 'dflt' > ) ]

StartChar: .notdef
Encoding: 65536 -1 0
Width: 500
Flags: MW
LayerCount: 2
Fore
SplineSet
-5 0 m 1
 -5 700 l 1
 -5 705 l 1
 0 705 l 1
 500 705 l 1
 505 705 l 1
 505 700 l 1
 505 0 l 1
 505 -5 l 1
 500 -5 l 1
 0 -5 l 1
 -5 -5 l 1
 -5 0 l 1
250 404.013878189 m 1
 410.657414541 645 l 1
 89.3425854591 645 l 1
 250 404.013878189 l 1
286.009252126 350 m 1
 445 111.513878189 l 1
 445 588.486121811 l 1
 286.009252126 350 l 1
89.3425854591 55 m 1
 410.657414541 55 l 1
 250 295.986121811 l 1
 89.3425854591 55 l 1
55 588.486121811 m 1
 55 111.513878189 l 1
 213.990747874 350 l 1
 55 588.486121811 l 1
EndSplineSet
EndChar

StartChar: exclam
Encoding: 33 33 2
Width: 215
Flags: MW
LayerCount: 2
Fore
SplineSet
117 172 m 1
 78 172 l 1
 72.0369152794 172 l 1
 73.0765816546 177.871752142 l 1
 161.076581655 674.871752142 l 1
 161.807539022 679 l 1
 166 679 l 1
 222 679 l 1
 228.166704946 679 l 1
 226.892016641 672.966475358 l 1
 121.892016641 175.966475358 l 1
 121.054028889 172 l 1
 117 172 l 1
68 -16 m 2
 67 -16 l 2
 40.5548660486 -16 24 7.1193280534 24 33 c 0
 24 61.1371042665 42.7225390274 84 70 84 c 0
 98.2466745851 84 115 61.0257413667 115 35 c 0
 115 8.84948878668 96.3592926394 -16 68 -16 c 2
EndSplineSet
EndChar

StartChar: quotedbl
Encoding: 34 34 3
Width: 253
Flags: MW
LayerCount: 2
Fore
SplineSet
126 697 m 1
 183 697 l 1
 189.396857037 697 l 1
 187.852001206 690.792488388 l 1
 132.852001206 469.792488388 l 1
 131.908169255 466 l 1
 128 466 l 1
 96 466 l 1
 90.2754094071 466 l 1
 91.0454408004 471.672564597 l 1
 121.0454408 692.672564597 l 1
 121.63287547 697 l 1
 126 697 l 1
249 697 m 1
 306 697 l 1
 312.396857037 697 l 1
 310.852001206 690.792488388 l 1
 255.852001206 469.792488388 l 1
 254.908169255 466 l 1
 251 466 l 1
 219 466 l 1
 213.275409407 466 l 1
 214.0454408 471.672564597 l 1
 244.0454408 692.672564597 l 1
 244.63287547 697 l 1
 249 697 l 1
EndSplineSet
EndChar

StartChar: numbersign
Encoding: 35 35 4
Width: 462
Flags: MW
LayerCount: 2
Fore
SplineSet
182.766798473 250 m 1
 264.305490684 250 l 1
 312.233201527 406 l 1
 230.694509316 406 l 1
 182.766798473 250 l 1
101 -5 m 1
 60 -5 l 1
 53.2205809489 -5 l 1
 55.2231051886 1.47691433781 l 1
 117.220580949 202 l 1
 41 202 l 1
 34.9948212931 202 l 1
 36.0827340571 207.905812147 l 1
 43.0827340571 245.905812147 l 1
 43.8369265562 250 l 1
 48 250 l 1
 132.305490684 250 l 1
 180.233201527 406 l 1
 99 406 l 1
 92.9653593557 406 l 1
 94.0871487715 411.929458341 l 1
 101.087148772 448.929458341 l 1
 101.857251248 453 l 1
 106 453 l 1
 195.321873422 453 l 1
 257.226759947 651.488683779 l 1
 258.321873422 655 l 1
 262 655 l 1
 301 655 l 1
 307.79693846 655 l 1
 305.773240053 648.511316221 l 1
 244.79693846 453 l 1
 327.321873422 453 l 1
 389.226759947 651.488683779 l 1
 390.321873422 655 l 1
 394 655 l 1
 433 655 l 1
 439.764869642 655 l 1
 437.779917149 648.532896717 l 1
 377.764869642 453 l 1
 454 453 l 1
 460.034640644 453 l 1
 458.912851228 447.070541659 l 1
 451.912851228 410.070541659 l 1
 451.142748752 406 l 1
 447 406 l 1
 362.694509316 406 l 1
 314.766798473 250 l 1
 397 250 l 1
 403.034640644 250 l 1
 401.912851228 244.070541659 l 1
 394.912851228 207.070541659 l 1
 394.142748752 203 l 1
 390 203 l 1
 300.692873273 203 l 1
 237.778895044 -1.47042924419 l 1
 236.692873273 -5 l 1
 233 -5 l 1
 193 -5 l 1
 186.23020365 -5 l 1
 188.221104956 1.47042924419 l 1
 250.23020365 203 l 1
 168.692873273 203 l 1
 105.778895044 -1.47042924419 l 1
 104.692873273 -5 l 1
 101 -5 l 1
EndSplineSet
Substitution2: "'onum' Oldstyle Figures lookup 6 subtable" numbersign.taboldstyle
Substitution2: "'aalt' Access All Alternates lookup 0 subtable" numbersign.taboldstyle
EndChar

StartChar: dollar
Encoding: 36 36 5
Width: 482
Flags: HW
LayerCount: 2
Fore
SplineSet
198.046216685 -95 m 1
 193.636794772 -95 l 1
 153.143554688 -95 l 1
 147.090820312 -95 l 1
 148.234375 -89.0556640625 l 1
 167.140625 9.2587890625 l 1
 125.715820312 11.8916015625 78.064453125 30.060546875 53.1181640625 49.01953125 c 2
 50 51.3896484375 l 1
 51.5546875 54.984375 l 1
 67.5546875 91.984375 l 1
 69.9326171875 97.4833984375 l 1
 74.91796875 94.16015625 l 2
 104.521484375 74.423828125 141.46875 56 191.501925722 56 c 0
 275.646830276 56 344.143554688 109.219726562 344.143554688 187 c 0
 344.143554688 236.276367188 324.229694978 276.301757812 257.279451053 310.6015625 c 0
 165.063476562 356.977539062 130.143554688 406.635742188 130.143554688 468 c 0
 130.143554688 552.30859375 203.685690101 626.778320312 300.178018428 635.653320312 c 1
 320.759490356 734.953125 l 1
 321.598635661 739 l 1
 325.998675826 739 l 1
 366.143554688 739 l 1
 372.208007812 739 l 1
 371.052734375 733.046875 l 1
 352.141601562 635.657226562 l 1
 396.788085938 632.23828125 430.77734375 616.377929688 445.545898438 602.6640625 c 2
 448.291992188 600.115234375 l 1
 446.616210938 596.763671875 l 1
 429.616210938 562.763671875 l 1
 427.379882812 558.291992188 l 1
 423.653320312 560.155273438 l 1
 422.908203125 560.528320312 l 2
 404.403320312 569.780273438 376.91796875 589 323.863806777 589 c 0
 238.859951004 589 187.232187624 538.095703125 187.232187624 474 c 0
 187.232187624 423.217773438 208.321316401 397.189453125 287.013340097 356.34375 c 0
 365.561523438 311.791992188 399.143554688 261.193359375 399.143554688 200 c 0
 399.143554688 95.1044921875 327.630057692 22.984375 219.494979164 9.48828125 c 1
 198.878065074 -90.9443359375 l 1
 198.046216685 -95 l 1
EndSplineSet
Substitution2: "'frac' Diagonal Fractions lookup 20 subtable" dollar.numerator
Substitution2: "'dnom' Denominators lookup 14 subtable" dollar.denominator
Substitution2: "'numr' Numerators lookup 13 subtable" dollar.numerator
Substitution2: "'sinf' Scientific Inferiors lookup 12 subtable" dollar.inferior
Substitution2: "'sups' Superscript lookup 11 subtable" dollar.superior
Substitution2: "'onum' Oldstyle Figures lookup 6 subtable" dollar.taboldstyle
AlternateSubs2: "'aalt' Access All Alternates lookup 1 subtable" dollar.taboldstyle dollar.superior dollar.inferior dollar.numerator dollar.denominator
EndChar

StartChar: percent
Encoding: 37 37 6
Width: 734
Flags: HW
LayerCount: 2
Fore
SplineSet
74 402 m 0
 74 521.543945312 137.091796875 666 250.470588235 666 c 2
 251.497326203 666 l 2
 334.742312834 666 363.411764706 593.96484375 363.411764706 534 c 0
 363.411764706 391.504882812 295.494652406 258 186 258 c 0
 111.19921875 258 74 320.786132812 74 402 c 0
310.021390374 525 m 0
 310.021390374 568.193359375 297.74565508 622 244.310160428 622 c 2
 243.28342246 622 l 2
 175.581054688 622 125 507.08203125 125 401 c 0
 125 349.090820312 138.572265625 302 192 302 c 0
 260.02105615 302 310.021390374 419.774414062 310.021390374 525 c 0
155.533203125 -13 m 1
 153 -13 l 1
 109 -13 l 1
 99.1298828125 -13 l 1
 104.96875 -5.0419921875 l 1
 610.96875 670.958007812 l 1
 612.466796875 673 l 1
 615 673 l 1
 659 673 l 1
 668.870117188 673 l 1
 663.03125 665.041992188 l 1
 157.03125 -10.9580078125 l 1
 155.533203125 -13 l 1
408.588235294 134 m 0
 408.588235294 252.576171875 474.39973262 398 589 398 c 2
 590 398 l 2
 670.125976562 398 698 325.913085938 698 265 c 0
 698 122.487304688 631.829101562 -10 523.582887701 -10 c 0
 446.816176471 -10 408.588235294 51.775390625 408.588235294 134 c 0
646 257 m 0
 646 299.270507812 635.006835938 354 582 354 c 2
 581 354 l 2
 512.936497326 354 461.978609626 238.150390625 461.978609626 132 c 0
 461.978609626 81.0576171875 474.876002674 34 530.770053476 34 c 0
 597.272460938 34 646 151.75390625 646 257 c 0
EndSplineSet
Ligature2: "Ligature Substitution lookup 23 subtable" zero.numerator fraction zero.numerator
Substitution2: "'onum' Oldstyle Figures lookup 6 subtable" percent.oldstyle
Substitution2: "'aalt' Access All Alternates lookup 0 subtable" percent.oldstyle
EndChar

StartChar: ampersand
Encoding: 38 38 7
Width: 542
Flags: MW
LayerCount: 2
Fore
SplineSet
486 -5 m 1
 433 -5 l 1
 430.645028743 -5 l 1
 429.145191242 -3.18440723498 l 2
 411.212904453 18.5230978246 396.338018825 39.203110888 379.144825653 65.201465685 c 1
 314.5643148 3.76016045968 253.586198063 -16 185 -16 c 0
 71.1025836804 -16 13 64.6913889303 13 152 c 0
 13 261.036648 103.091926625 337.824344536 183.82504593 377.060311695 c 1
 157.582705314 426.10250089 147 465.279582125 147 506 c 0
 147 603.100604644 215.596701805 690 310 690 c 0
 396.413621088 690 429 625.59473926 429 563 c 0
 429 479.876843573 372.71246657 413.268723804 253.71211591 358.115452649 c 1
 296.210626894 284.877621499 349.542265722 200.093677535 388.195982168 143.547009368 c 1
 426.160748862 194.637613995 458.509905895 261.379157393 490.251856754 357.566887271 c 2
 491.384783955 361 l 1
 495 361 l 1
 540 361 l 1
 546.996591747 361 l 1
 544.730476347 354.380557647 l 2
 507.251306405 244.901929659 466.910929034 162.281182066 415.426091831 102.753410079 c 1
 439.366994849 70.561113721 459.967938601 39.8200751572 489.874325104 3.16063363736 c 2
 496.531684124 -5 l 1
 486 -5 l 1
195 32 m 2
 196 32 l 2
 257.383305969 32 312.622780103 60.9597795436 352.774293296 104.576932518 c 1
 321.771221831 154.647890182 260.365243107 243.905718278 205.154760538 338.238190578 c 1
 150.873065494 307.638475468 69 252.152992469 69 157 c 0
 69 85.4351910939 114.728774483 32 195 32 c 2
305 643 m 2
 304 643 l 2
 247.63440656 643 201 588.211355505 201 512 c 0
 201 473.189947399 210.413596485 436.827607129 231.153473094 396.638713603 c 1
 328.204347436 444.927195587 375 492.018108388 375 560 c 0
 375 602.861648028 357.192213792 643 305 643 c 2
EndSplineSet
EndChar

StartChar: quoteright
Encoding: 8217 8217 8
Width: 156
Flags: MW
LayerCount: 2
Fore
SplineSet
156.150465417 686.927300579 m 1
 214.150465417 696.927300579 l 1
 223.083503143 698.467479497 l 1
 219.620834398 690.090055115 l 2
 188.380623177 614.508898935 125.607400752 500.80986767 104 472 c 2
 102.757359313 470.343145751 l 1
 100.707106781 470.050252532 l 1
 65.7071067812 465.050252532 l 1
 55.5866582794 463.604474174 l 1
 60.6587842894 472.480694692 l 2
 84.3259623955 513.898256377 131.417368961 622.056020598 152.264277122 683.604035168 c 2
 153.218688737 686.421821841 l 1
 156.150465417 686.927300579 l 1
EndSplineSet
EndChar

StartChar: parenleft
Encoding: 40 40 9
Width: 265
Flags: MW
LayerCount: 2
Fore
SplineSet
291 697 m 1
 339 697 l 1
 350.476592534 697 l 1
 342.66167863 688.595281273 l 2
 237.172417253 575.144566207 122 396.315377661 122 157 c 0
 122 70.6944768469 139.834542651 -21.5256059409 185.517740398 -117.857566409 c 2
 188.904873854 -125 l 1
 181 -125 l 1
 142 -125 l 1
 138.989592923 -125 l 1
 137.581060418 -122.339438602 l 2
 92.2592514694 -36.7315772541 68 50.2636411767 68 163 c 0
 68 408.792337475 195.855858483 594.874968022 287.301973406 695.3652042 c 2
 288.789637584 697 l 1
 291 697 l 1
EndSplineSet
Substitution2: "'frac' Diagonal Fractions lookup 20 subtable" parenleft.numerator
Substitution2: "'dnom' Denominators lookup 14 subtable" parenleft.denominator
Substitution2: "'numr' Numerators lookup 13 subtable" parenleft.numerator
Substitution2: "'sinf' Scientific Inferiors lookup 12 subtable" parenleft.inferior
Substitution2: "'sups' Superscript lookup 11 subtable" parenleft.superior
Substitution2: "'case' Case-Sensitive Forms lookup 7 subtable" parenleft.cap
AlternateSubs2: "'aalt' Access All Alternates lookup 1 subtable" parenleft.cap parenleft.superior parenleft.inferior parenleft.numerator parenleft.denominator
EndChar

StartChar: parenright
Encoding: 41 41 10
Width: 265
Flags: MW
LayerCount: 2
Fore
SplineSet
-3 -125 m 1
 -51 -125 l 1
 -62.4087012121 -125 l 1
 -54.6764675822 -116.611255968 l 2
 50.821797113 -2.15559143981 166 177.682408707 166 417 c 0
 166 503.304422972 148.169234879 594.510741658 102.490919856 689.839399098 c 2
 99.0597985908 697 l 1
 107 697 l 1
 146 697 l 1
 148.976745905 697 l 1
 150.395535398 694.383121601 l 2
 195.746240932 610.736264727 220 523.726743983 220 410 c 0
 220 165.201193054 92.1358153091 -20.8748601412 0.730986048025 -123.328624808 c 2
 -0.76014280014 -125 l 1
 -3 -125 l 1
EndSplineSet
Substitution2: "'frac' Diagonal Fractions lookup 20 subtable" parenright.numerator
Substitution2: "'dnom' Denominators lookup 14 subtable" parenright.denominator
Substitution2: "'numr' Numerators lookup 13 subtable" parenright.numerator
Substitution2: "'sinf' Scientific Inferiors lookup 12 subtable" parenright.inferior
Substitution2: "'sups' Superscript lookup 11 subtable" parenright.superior
Substitution2: "'case' Case-Sensitive Forms lookup 7 subtable" parenright.cap
AlternateSubs2: "'aalt' Access All Alternates lookup 1 subtable" parenright.cap parenright.superior parenright.inferior parenright.numerator parenright.denominator
EndChar

StartChar: asterisk
Encoding: 42 42 11
Width: 391
Flags: MW
LayerCount: 2
Fore
SplineSet
334.572478777 689.287464629 m 1
 374.572478777 665.287464629 l 1
 379.541918348 662.305800886 l 1
 375.864181535 657.826972886 l 1
 280.539109326 541.738023562 l 1
 415.621776442 551.985674171 l 1
 422.457198468 552.504223428 l 1
 420.862894458 545.837133934 l 1
 409.862894458 499.837133934 l 1
 408.860531342 495.645433631 l 1
 404.566851918 496.018797059 l 1
 275.209077862 507.267299151 l 1
 345.245994191 394.640366136 l 1
 347.973353769 390.254477084 l 1
 343.501387989 387.670674634 l 1
 298.501387989 361.670674634 l 1
 293.508572676 358.785936897 l 1
 291.360044721 364.136987653 l 1
 241.245836993 488.949731429 l 1
 162.241782298 362.352872701 l 1
 159.318258618 357.668190179 l 1
 154.945982729 361.041088722 l 1
 119.945982729 388.041088722 l 1
 115.835085511 391.21235229 l 1
 119.158893602 395.200921998 l 1
 213.145968248 507.985411573 l 1
 82.4558402041 496.020822386 l 1
 75.9555091887 495.42572166 l 1
 77.0739412259 501.856705874 l 1
 85.0739412259 547.856705874 l 1
 85.8495153737 552.316257223 l 1
 90.3639951208 551.986733154 l 1
 218.957281577 542.60036188 l 1
 149.728319974 656.401394651 l 1
 146.999972081 660.886350093 l 1
 151.612433398 663.393122548 l 1
 197.612433398 688.393122548 l 1
 202.553722504 691.078605758 l 1
 204.642383454 685.856953382 l 1
 253.686477257 563.246718874 l 1
 327.703878802 687.557995828 l 1
 330.270521352 691.868639084 l 1
 334.572478777 689.287464629 l 1
EndSplineSet
EndChar

StartChar: plus
Encoding: 43 43 12
Width: 596
Flags: MW
LayerCount: 2
Fore
SplineSet
289 537 m 1
 329 537 l 1
 334 537 l 1
 334 532 l 1
 334 291 l 1
 555 291 l 1
 560 291 l 1
 560 286 l 1
 560 248 l 1
 560 243 l 1
 555 243 l 1
 334 243 l 1
 334 0 l 1
 334 -5 l 1
 329 -5 l 1
 289 -5 l 1
 284 -5 l 1
 284 0 l 1
 284 243 l 1
 62 243 l 1
 57 243 l 1
 57 248 l 1
 57 286 l 1
 57 291 l 1
 62 291 l 1
 284 291 l 1
 284 532 l 1
 284 537 l 1
 289 537 l 1
EndSplineSet
EndChar

StartChar: comma
Encoding: 44 44 13
Width: 181
Flags: MW
LayerCount: 2
Fore
SplineSet
5.63582157993 -125.959408323 m 1
 -33.3641784201 -130.959408323 l 1
 -43.1000251247 -132.207593798 l 1
 -38.3854813392 -123.598426886 l 2
 -15.6646713637 -82.1082521479 31.3982572833 26.0485162264 50.2194408757 87.4650100542 c 2
 51.1338662084 90.4489242978 l 1
 54.216162279 90.9381776423 l 1
 117.216162279 100.938177642 l 1
 125.912590005 102.318562996 l 1
 122.642383454 94.1430466182 l 2
 92.4002158187 18.537627529 30.6337552848 -95.1549929536 9 -124 c 2
 7.73199930823 -125.690667589 l 1
 5.63582157993 -125.959408323 l 1
EndSplineSet
Substitution2: "'frac' Diagonal Fractions lookup 20 subtable" comma.numerator
Substitution2: "'dnom' Denominators lookup 14 subtable" comma.denominator
Substitution2: "'numr' Numerators lookup 13 subtable" comma.numerator
Substitution2: "'sinf' Scientific Inferiors lookup 12 subtable" comma.inferior
Substitution2: "'sups' Superscript lookup 11 subtable" comma.superior
AlternateSubs2: "'aalt' Access All Alternates lookup 1 subtable" comma.superior comma.inferior comma.numerator comma.denominator
EndChar

StartChar: hyphen
Encoding: 45 45 14
Width: 298
Flags: MW
LayerCount: 2
Fore
SplineSet
50 301 m 1
 277 301 l 1
 283.042275792 301 l 1
 281.911692832 295.064439461 l 1
 273.911692832 253.064439461 l 1
 273.137513887 249 l 1
 269 249 l 1
 42 249 l 1
 35.957724208 249 l 1
 37.0883071679 254.935560539 l 1
 45.0883071679 296.935560539 l 1
 45.8624861128 301 l 1
 50 301 l 1
EndSplineSet
Substitution2: "'frac' Diagonal Fractions lookup 20 subtable" hyphen.numerator
Substitution2: "'dnom' Denominators lookup 14 subtable" hyphen.denominator
Substitution2: "'numr' Numerators lookup 13 subtable" hyphen.numerator
Substitution2: "'sinf' Scientific Inferiors lookup 12 subtable" hyphen.inferior
Substitution2: "'sups' Superscript lookup 11 subtable" hyphen.superior
Substitution2: "'case' Case-Sensitive Forms lookup 7 subtable" hyphen.cap
AlternateSubs2: "'aalt' Access All Alternates lookup 1 subtable" endash emdash hyphen.cap hyphen.superior hyphen.inferior hyphen.numerator hyphen.denominator
EndChar

StartChar: period
Encoding: 46 46 15
Width: 181
Flags: MW
LayerCount: 2
Fore
SplineSet
62 -16 m 2
 61 -16 l 2
 35.5704297547 -16 18 7.00877819752 18 33 c 0
 18 61.3001010345 37.8472239121 84 65 84 c 0
 93.3617110206 84 109 60.8448071401 109 35 c 0
 109 8.95933040041 91.4063089305 -16 62 -16 c 2
EndSplineSet
Substitution2: "'frac' Diagonal Fractions lookup 20 subtable" period.numerator
Substitution2: "'dnom' Denominators lookup 14 subtable" period.denominator
Substitution2: "'numr' Numerators lookup 13 subtable" period.numerator
Substitution2: "'sinf' Scientific Inferiors lookup 12 subtable" period.inferior
Substitution2: "'sups' Superscript lookup 11 subtable" period.superior
AlternateSubs2: "'aalt' Access All Alternates lookup 1 subtable" ellipsis period.superior period.inferior period.numerator period.denominator
EndChar

StartChar: slash
Encoding: 47 47 16
Width: 327
Flags: MW
LayerCount: 2
Fore
SplineSet
-17 -45 m 1
 -62 -45 l 1
 -70.8309518948 -45 l 1
 -66.2874646286 -37.4275212229 l 1
 368.712535371 687.572478777 l 1
 370.169048105 690 l 1
 373 690 l 1
 420 690 l 1
 428.851853472 690 l 1
 424.282244174 682.418840408 l 1
 -12.7177558263 -42.5811595916 l 1
 -14.1757327346 -45 l 1
 -17 -45 l 1
EndSplineSet
Substitution2: "'frac' Diagonal Fractions lookup 20 subtable" fraction
Substitution2: "'dnom' Denominators lookup 14 subtable" fraction
Substitution2: "'numr' Numerators lookup 13 subtable" fraction
Substitution2: "'aalt' Access All Alternates lookup 0 subtable" fraction
EndChar

StartChar: zero
Encoding: 48 48 17
Width: 482
Flags: HW
LayerCount: 2
Fore
SplineSet
45 206.759765625 m 0
 45 427.903320312 162.862304688 661 330.440860215 661 c 0
 450.387695312 661 481 556.947265625 481 466.888671875 c 0
 481 252.15625 380.5 -11 198.720430108 -11 c 0
 83.6181640625 -11 45 88.138671875 45 206.759765625 c 0
425 458.68359375 m 0
 425 514.666015625 416.544921875 613 326.225806452 613 c 0
 201.561680948 613 102 397.844726562 102 203.127929688 c 0
 102 124.997070312 119.1015625 38 207.150537634 38 c 0
 343.915448589 38 425 302.709960938 425 458.68359375 c 0
EndSplineSet
Substitution2: "'frac' Diagonal Fractions lookup 20 subtable" zero.numerator
Substitution2: "'zero' Slashed Zero lookup 19 subtable" zero.slash
Substitution2: "'dnom' Denominators lookup 14 subtable" zero.denominator
Substitution2: "'numr' Numerators lookup 13 subtable" zero.numerator
Substitution2: "'sinf' Scientific Inferiors lookup 12 subtable" zero.inferior
Substitution2: "'sups' Superscript lookup 11 subtable" zero.superior
Substitution2: "'pnum' Proportional Numbers lookup 9 subtable" zero.fitted
Substitution2: "'onum' Oldstyle Figures lookup 6 subtable" zero.taboldstyle
AlternateSubs2: "'aalt' Access All Alternates lookup 1 subtable" zero.fitted zero.oldstyle zero.taboldstyle zero.superior zero.inferior zero.numerator zero.denominator zero.slash
EndChar

StartChar: one
Encoding: 49 49 18
Width: 472
Flags: HW
LayerCount: 2
Fore
SplineSet
180.979492188 -10 m 1
 182.110351562 -4.0634765625 l 1
 294.348632812 584.69140625 l 1
 200.447265625 532.626953125 l 1
 195.138671875 529.68359375 l 1
 193.266601562 535.45703125 l 1
 181.266601562 572.45703125 l 1
 180 576.361328125 l 1
 183.58203125 578.364257812 l 1
 310.58203125 649.364257812 l 1
 311.719726562 650 l 1
 313.022460938 650 l 1
 355.022460938 650 l 1
 361.06640625 650 l 1
 359.93359375 644.063476562 l 1
 235.93359375 -5.9365234375 l 1
 235.158203125 -10 l 1
 231.022460938 -10 l 1
 187.022460938 -10 l 1
 180.979492188 -10 l 1
EndSplineSet
Substitution2: "'frac' Diagonal Fractions lookup 20 subtable" one.numerator
Substitution2: "'dnom' Denominators lookup 14 subtable" one.denominator
Substitution2: "'numr' Numerators lookup 13 subtable" one.numerator
Substitution2: "'sinf' Scientific Inferiors lookup 12 subtable" one.inferior
Substitution2: "'sups' Superscript lookup 11 subtable" one.superior
Substitution2: "'pnum' Proportional Numbers lookup 9 subtable" one.fitted
Substitution2: "'onum' Oldstyle Figures lookup 6 subtable" one.taboldstyle
AlternateSubs2: "'aalt' Access All Alternates lookup 1 subtable" one.fitted one.oldstyle one.taboldstyle one.superior one.inferior one.numerator one.denominator
EndChar

StartChar: two
Encoding: 50 50 19
Width: 482
Flags: HW
LayerCount: 2
Fore
SplineSet
382.103515625 -10 m 1
 378.024414062 -10 l 1
 8.0244140625 -10 l 1
 2 -10 l 1
 3.1103515625 -4.078125 l 1
 9.1103515625 27.921875 l 1
 9.421875 29.5849609375 l 1
 10.6796875 30.716796875 l 1
 80.720703125 93.75390625 l 1
 289.725214723 267.051757812 403.024414062 383.116210938 403.024414062 505 c 0
 403.024414062 551.750976562 383.405273438 611 299.110762005 611 c 0
 239.170965059 611 192.059037796 580.860351562 164.105005889 559.124023438 c 2
 159.034640998 555.180664062 l 1
 156.110099553 560.763671875 l 1
 138.296797428 594.763671875 l 1
 136.463075151 598.262695312 l 1
 139.581016992 600.802734375 l 2
 183.541234091 636.616210938 249.417092941 661 305.397809814 661 c 0
 427.448242188 661 461.024414062 573.54296875 461.024414062 509 c 0
 461.024414062 363.81640625 320.100333075 226.013671875 131.690485473 73.177734375 c 2
 90.4013671875 39 l 1
 386.024414062 39 l 1
 392.154296875 39 l 1
 390.922851562 32.9951171875 l 1
 382.922851562 -6.0048828125 l 1
 382.103515625 -10 l 1
EndSplineSet
Substitution2: "'frac' Diagonal Fractions lookup 20 subtable" two.numerator
Substitution2: "'dnom' Denominators lookup 14 subtable" two.denominator
Substitution2: "'numr' Numerators lookup 13 subtable" two.numerator
Substitution2: "'sinf' Scientific Inferiors lookup 12 subtable" two.inferior
Substitution2: "'sups' Superscript lookup 11 subtable" two.superior
Substitution2: "'pnum' Proportional Numbers lookup 9 subtable" two.fitted
Substitution2: "'onum' Oldstyle Figures lookup 6 subtable" two.taboldstyle
AlternateSubs2: "'aalt' Access All Alternates lookup 1 subtable" two.fitted two.oldstyle two.taboldstyle two.superior two.inferior two.numerator two.denominator
EndChar

StartChar: three
Encoding: 51 51 20
Width: 482
Flags: HW
LayerCount: 2
Fore
SplineSet
21 33.04296875 m 1
 22.66796875 36.287109375 l 1
 40.66796875 71.287109375 l 1
 43.0791015625 75.9755859375 l 1
 47.6337890625 73.3193359375 l 2
 71.5810546875 59.349609375 106.432617188 39 161.22481414 39 c 0
 294.339905421 39 347.114257812 132.486328125 347.114257812 205.145507812 c 0
 347.114257812 295.129882812 275.940935381 330 202.490750763 330 c 2
 163.341016018 330 l 1
 156.987243876 330 l 1
 158.138341968 335.90625 l 1
 165.545048541 373.90625 l 1
 166.342757452 378 l 1
 170.747722592 378 l 1
 212.013659214 378 l 2
 271.911058758 378 385.114257812 424.265625 385.114257812 520.932617188 c 0
 385.114257812 578.287109375 354.701171875 611 288.196926824 611 c 0
 242.890780562 611 198.419542071 595.325195312 168.7451839 573.08203125 c 2
 163.578675409 569.2109375 l 1
 160.698863576 574.815429688 l 1
 142.711147612 609.815429688 l 1
 140.72265625 613.715820312 l 1
 144.508059266 616.142578125 l 2
 184.394538121 641.61328125 237.196254903 661 294.545532459 661 c 0
 407.1953125 661 443.114257812 586.080078125 443.114257812 526.994140625 c 0
 443.114257812 440.107421875 376.083007812 378.841796875 307.678797044 354.69921875 c 1
 376.772460938 330.688476562 406.114257812 267.54296875 406.114257812 205.774414062 c 0
 406.114257812 90.5869140625 308.855727678 -11 156.992410384 -11 c 0
 93.015625 -11 42.984375 11.0595703125 23.5791015625 30.46484375 c 2
 21 33.04296875 l 1
EndSplineSet
Substitution2: "'frac' Diagonal Fractions lookup 20 subtable" three.numerator
Substitution2: "'dnom' Denominators lookup 14 subtable" three.denominator
Substitution2: "'numr' Numerators lookup 13 subtable" three.numerator
Substitution2: "'sinf' Scientific Inferiors lookup 12 subtable" three.inferior
Substitution2: "'sups' Superscript lookup 11 subtable" three.superior
Substitution2: "'pnum' Proportional Numbers lookup 9 subtable" three.fitted
Substitution2: "'onum' Oldstyle Figures lookup 6 subtable" three.taboldstyle
AlternateSubs2: "'aalt' Access All Alternates lookup 1 subtable" three.fitted three.oldstyle three.taboldstyle three.superior three.inferior three.numerator three.denominator
EndChar

StartChar: four
Encoding: 52 52 21
Width: 482
Flags: HW
LayerCount: 2
Fore
SplineSet
320.312830563 -5 m 1
 315.957372411 -5 l 1
 270.82215628 -5 l 1
 264.498592774 -5 l 1
 265.664080164 0.921875 l 1
 302.286215581 187 l 1
 18.2548828125 187 l 1
 12 187 l 1
 13.3779296875 193.036132812 l 1
 20.3779296875 223.703125 l 1
 20.6533203125 224.911132812 l 1
 21.4716796875 225.848632812 l 1
 400.471679688 648.26953125 l 1
 401.967773438 650 l 1
 404.254882812 650 l 1
 441.254882812 650 l 1
 447.299804688 650 l 1
 446.166015625 644.1328125 l 1
 367.299804688 236 l 1
 457.254882812 236 l 1
 463.384765625 236 l 1
 462.153320312 229.995117188 l 1
 454.153320312 190.995117188 l 1
 453.333007812 187 l 1
 449.254882812 187 l 1
 357.404296875 187 l 1
 321.115448528 -0.921875 l 1
 320.312830563 -5 l 1
323.039476523 486.690429688 m 1
 92.576171875 236 l 1
 312.662846052 236 l 1
 363.345703125 494.950195312 l 2
 368.133789062 519.684570312 373.86328125 545.08203125 379.0859375 567.159179688 c 1
 358.501953125 536.358398438 346.112304688 514.098632812 323.192209699 486.861328125 c 2
 323.117380693 486.774414062 l 1
 323.039476523 486.690429688 l 1
EndSplineSet
Substitution2: "'frac' Diagonal Fractions lookup 20 subtable" four.numerator
Substitution2: "'dnom' Denominators lookup 14 subtable" four.denominator
Substitution2: "'numr' Numerators lookup 13 subtable" four.numerator
Substitution2: "'sinf' Scientific Inferiors lookup 12 subtable" four.inferior
Substitution2: "'sups' Superscript lookup 11 subtable" four.superior
Substitution2: "'pnum' Proportional Numbers lookup 9 subtable" four.fitted
Substitution2: "'onum' Oldstyle Figures lookup 6 subtable" four.taboldstyle
AlternateSubs2: "'aalt' Access All Alternates lookup 1 subtable" four.fitted four.oldstyle four.taboldstyle four.superior four.inferior four.numerator four.denominator
EndChar

StartChar: five
Encoding: 53 53 22
Width: 482
Flags: HW
LayerCount: 2
Fore
SplineSet
481.375 650 m 1
 480.212890625 644.041992188 l 1
 472.212890625 603.041992188 l 1
 471.423828125 599 l 1
 467.305664062 599 l 1
 247.92007562 599 l 1
 184.617338397 411.213867188 l 1
 195.553984261 412.602539062 202.618853066 413 212.678523028 413 c 0
 237.727530521 413 284.273690894 405.0078125 320.784712099 386.755859375 c 0
 382.696289062 357.053710938 406.305664062 294.671875 406.305664062 242.016601562 c 0
 406.305664062 85.94921875 280.198512664 -11 145.693100287 -11 c 0
 90.125 -11 39.5087890625 9.0625 20.2353515625 24.0537109375 c 2
 17 26.5693359375 l 1
 18.8330078125 30.236328125 l 1
 36.8330078125 66.236328125 l 1
 39.28125 71.1328125 l 1
 43.9375 68.2509765625 l 2
 64.1220703125 55.755859375 106.434570312 39 156.15957259 39 c 0
 264.916849831 39 348.742662969 129.083984375 348.742662969 229.06640625 c 0
 348.742662969 302.8828125 314.582509566 363 191.745578421 363 c 0
 167.988526102 363 147.228319174 361.021484375 121.704101562 359.015625 c 2
 114.359375 358.428710938 l 1
 116.526367188 365.427734375 l 1
 207.67628519 646.470703125 l 1
 208.812878667 650 l 1
 212.678523028 650 l 1
 475.305664062 650 l 1
 481.375 650 l 1
EndSplineSet
Substitution2: "'frac' Diagonal Fractions lookup 20 subtable" five.numerator
Substitution2: "'dnom' Denominators lookup 14 subtable" five.denominator
Substitution2: "'numr' Numerators lookup 13 subtable" five.numerator
Substitution2: "'sinf' Scientific Inferiors lookup 12 subtable" five.inferior
Substitution2: "'sups' Superscript lookup 11 subtable" five.superior
Substitution2: "'pnum' Proportional Numbers lookup 9 subtable" five.fitted
Substitution2: "'onum' Oldstyle Figures lookup 6 subtable" five.taboldstyle
AlternateSubs2: "'aalt' Access All Alternates lookup 1 subtable" five.fitted five.oldstyle five.taboldstyle five.superior five.inferior five.numerator five.denominator
EndChar

StartChar: six
Encoding: 54 54 23
Width: 482
Flags: HW
LayerCount: 2
Fore
SplineSet
207.338287427 558.192382812 m 0
 271.301517573 611.870117188 340.681775324 642.860351562 400.881835938 653.877929688 c 0
 423.486328125 660.04296875 443.772460938 661 459 661 c 2
 464.74609375 661 l 1
 463.952148438 655.30859375 l 1
 457.952148438 612.30859375 l 1
 457.350585938 608 l 1
 453 608 l 2
 437.193359375 608 415.689453125 607.049804688 391.129882812 601.31640625 c 0
 279.514763237 577.529296875 171.432164831 484.623046875 118.139648438 345.814453125 c 1
 161.613415366 396.133789062 228.132450727 429 289.015713749 429 c 0
 401.474609375 429 449 346.478515625 449 253 c 0
 449 131.489257812 353.801757812 -11 210.828916834 -11 c 0
 93.421875 -11 38 76.3037109375 38 194.903320312 c 0
 38 347.397460938 124.700195312 490.35546875 207.338287427 558.192382812 c 0
276.336773709 379 m 0
 217.432531439 379 150.616210938 340.913085938 109.306640625 275.966796875 c 0
 104.368164062 267.206054688 99.8681640625 258.092773438 98.9794921875 248.4609375 c 2
 98.9580078125 248.228515625 l 1
 98.9140625 247.999023438 l 2
 95.9501953125 232.416992188 93 212.049804688 93 187.803710938 c 0
 93 98.4755859375 133.622070312 38 216.111808518 38 c 2
 217.168386854 38 l 2
 314.293112276 38 392 145.0234375 392 252.849609375 c 0
 392 337.64453125 352.133789062 379 276.336773709 379 c 0
EndSplineSet
Substitution2: "'frac' Diagonal Fractions lookup 20 subtable" six.numerator
Substitution2: "'dnom' Denominators lookup 14 subtable" six.denominator
Substitution2: "'numr' Numerators lookup 13 subtable" six.numerator
Substitution2: "'sinf' Scientific Inferiors lookup 12 subtable" six.inferior
Substitution2: "'sups' Superscript lookup 11 subtable" six.superior
Substitution2: "'pnum' Proportional Numbers lookup 9 subtable" six.fitted
Substitution2: "'onum' Oldstyle Figures lookup 6 subtable" six.taboldstyle
AlternateSubs2: "'aalt' Access All Alternates lookup 1 subtable" six.fitted six.oldstyle six.taboldstyle six.superior six.inferior six.numerator six.denominator
EndChar

StartChar: seven
Encoding: 55 55 24
Width: 482
Flags: HW
LayerCount: 2
Fore
SplineSet
146.995117188 650 m 1
 151.177734375 650 l 1
 518.177734375 650 l 1
 524.107421875 650 l 1
 523.10546875 644.155273438 l 1
 517.10546875 609.155273438 l 1
 516.938476562 608.180664062 l 1
 516.413085938 607.342773438 l 2
 387.701076121 403.344726562 252.826008443 197.323242188 116.372070312 -7.7216796875 c 2
 114.893554688 -10 l 1
 112.177734375 -10 l 1
 63.177734375 -10 l 1
 54 -10 l 1
 58.9765625 -2.2890625 l 2
 189.535492429 198.982421875 324.077736914 401.479492188 453.990234375 601 c 1
 144.177734375 601 l 1
 138.200195312 601 l 1
 139.255859375 606.883789062 l 1
 146.255859375 645.883789062 l 1
 146.995117188 650 l 1
EndSplineSet
Substitution2: "'frac' Diagonal Fractions lookup 20 subtable" seven.numerator
Substitution2: "'dnom' Denominators lookup 14 subtable" seven.denominator
Substitution2: "'numr' Numerators lookup 13 subtable" seven.numerator
Substitution2: "'sinf' Scientific Inferiors lookup 12 subtable" seven.inferior
Substitution2: "'sups' Superscript lookup 11 subtable" seven.superior
Substitution2: "'pnum' Proportional Numbers lookup 9 subtable" seven.fitted
Substitution2: "'onum' Oldstyle Figures lookup 6 subtable" seven.taboldstyle
AlternateSubs2: "'aalt' Access All Alternates lookup 1 subtable" seven.fitted seven.oldstyle seven.taboldstyle seven.superior seven.inferior seven.numerator seven.denominator
EndChar

StartChar: eight
Encoding: 56 56 25
Width: 482
Flags: HW
LayerCount: 2
Fore
SplineSet
114 481.668945312 m 0
 114 579.17578125 201.070617676 661 315.28125 661 c 2
 316.333333333 661 l 2
 408.483398438 661 470 600.676757812 470 518.125976562 c 0
 470 437.560546875 415.4453125 378.16015625 338.401397705 341.037109375 c 1
 409.001953125 301.190429688 436 242.197265625 436 182.125976562 c 0
 436 61.5478515625 329.00970459 -11 217.4375 -11 c 0
 99.81640625 -11 28 57.9365234375 28 149.610351562 c 0
 28 254.203125 106.313476562 320.168945312 188.256571452 352.290039062 c 1
 132.9375 390.9453125 114 434.012695312 114 481.668945312 c 0
85 156 m 0
 85 96.380859375 124.826171875 37 216.385416667 37 c 2
 217.4375 37 l 2
 312.842142741 37 380 96.9990234375 380 181 c 0
 380 251.452148438 343.994700114 296.100585938 246.671854655 328.779296875 c 1
 165.885416667 308.606445312 85 253.03125 85 156 c 0
414 509 m 0
 414 554.602539062 394.546875 613 306.864583333 613 c 2
 305.8125 613 l 2
 227.810384115 613 169.041666667 552.336914062 169.041666667 483 c 0
 169.041666667 428.421875 198.486643473 388.87890625 277.467895508 362.274414062 c 1
 357.673828125 387.416015625 414 440.665039062 414 509 c 0
EndSplineSet
Substitution2: "'frac' Diagonal Fractions lookup 20 subtable" eight.numerator
Substitution2: "'dnom' Denominators lookup 14 subtable" eight.denominator
Substitution2: "'numr' Numerators lookup 13 subtable" eight.numerator
Substitution2: "'sinf' Scientific Inferiors lookup 12 subtable" eight.inferior
Substitution2: "'sups' Superscript lookup 11 subtable" eight.superior
Substitution2: "'pnum' Proportional Numbers lookup 9 subtable" eight.fitted
Substitution2: "'onum' Oldstyle Figures lookup 6 subtable" eight.taboldstyle
AlternateSubs2: "'aalt' Access All Alternates lookup 1 subtable" eight.fitted eight.oldstyle eight.taboldstyle eight.superior eight.inferior eight.numerator eight.denominator
EndChar

StartChar: nine
Encoding: 57 57 26
Width: 482
Flags: HW
LayerCount: 2
Fore
SplineSet
62 -10.7392578125 m 1
 62.634765625 -5.4091796875 l 1
 67.634765625 36.5908203125 l 1
 68.1591796875 41 l 1
 72.599609375 41 l 2
 89.169921875 41 112.12890625 42.9453125 133.62109375 46.751953125 c 0
 178.533203125 56.263671875 231.48945514 80.185546875 280.592637011 122.530273438 c 0
 327.284192993 161.470703125 373.229492188 221.955078125 405.079101562 303.979492188 c 1
 358.569229319 255.698242188 298.78466203 230 241.859962873 230 c 0
 125.782226562 230 86.599609375 323.637695312 86.599609375 398.05078125 c 0
 86.599609375 525.58984375 187.196098437 661 324.353060541 661 c 0
 442.485351562 661 485.599609375 567.436523438 485.599609375 467.874023438 c 0
 485.599609375 301.430664062 384.982421875 145.883789062 310.92438396 82.849609375 c 0
 257.354271908 39.927734375 196.527593046 10.0537109375 139.706054688 -2.9951171875 c 0
 116.348632812 -7.9990234375 89.177734375 -12.017578125 67.361328125 -10.994140625 c 2
 62 -10.7392578125 l 1
429.599609375 470.13671875 m 0
 429.599609375 554.018554688 400.71484375 612 319.06504146 612 c 2
 318.007437644 612 l 2
 221.648782131 612 142.599609375 511.768554688 142.599609375 402.16015625 c 0
 142.599609375 332.748046875 176.057617188 280 252.436001036 280 c 0
 314.727213307 280 373.078125 315.24609375 409.383789062 371.313476562 c 2
 409.486328125 371.470703125 l 1
 409.599609375 371.620117188 l 2
 415.336914062 379.157226562 419.893554688 387.350585938 421.701171875 396.254882812 c 0
 425.650390625 414.732421875 429.599609375 441.998046875 429.599609375 470.13671875 c 0
EndSplineSet
Substitution2: "'frac' Diagonal Fractions lookup 20 subtable" nine.numerator
Substitution2: "'dnom' Denominators lookup 14 subtable" nine.denominator
Substitution2: "'numr' Numerators lookup 13 subtable" nine.numerator
Substitution2: "'sinf' Scientific Inferiors lookup 12 subtable" nine.inferior
Substitution2: "'sups' Superscript lookup 11 subtable" nine.superior
Substitution2: "'pnum' Proportional Numbers lookup 9 subtable" nine.fitted
Substitution2: "'onum' Oldstyle Figures lookup 6 subtable" nine.taboldstyle
AlternateSubs2: "'aalt' Access All Alternates lookup 1 subtable" nine.fitted nine.oldstyle nine.taboldstyle nine.superior nine.inferior nine.numerator nine.denominator
EndChar

StartChar: colon
Encoding: 58 58 27
Width: 181
Flags: MW
LayerCount: 2
Fore
SplineSet
133 356 m 2
 132 356 l 2
 106.570429755 356 89 379.008778198 89 405 c 0
 89 433.300101034 108.847223912 456 136 456 c 0
 164.405631254 456 180 432.7668816 180 406 c 0
 180 380.876749943 162.347631382 356 133 356 c 2
62 -16 m 2
 61 -16 l 2
 35.5704297547 -16 18 7.00877819752 18 33 c 0
 18 61.3001010345 37.8472239121 84 65 84 c 0
 93.3617110206 84 109 60.8448071401 109 35 c 0
 109 8.95933040041 91.4063089305 -16 62 -16 c 2
EndSplineSet
EndChar

StartChar: semicolon
Encoding: 59 59 28
Width: 181
Flags: MW
LayerCount: 2
Fore
SplineSet
5.63582157993 -125.959408323 m 1
 -33.3641784201 -130.959408323 l 1
 -43.1000251247 -132.207593798 l 1
 -38.3854813392 -123.598426886 l 2
 -15.6646713637 -82.1082521479 31.3982572833 26.0485162264 50.2194408757 87.4650100542 c 2
 51.1338662084 90.4489242978 l 1
 54.216162279 90.9381776423 l 1
 117.216162279 100.938177642 l 1
 125.912590005 102.318562996 l 1
 122.642383454 94.1430466182 l 2
 92.4002158187 18.537627529 30.6337552848 -95.1549929536 9 -124 c 2
 7.73199930823 -125.690667589 l 1
 5.63582157993 -125.959408323 l 1
139 356 m 2
 138 356 l 2
 111.671881682 356 94 378.939481795 94 405 c 0
 94 433.300101034 113.847223912 456 141 456 c 0
 169.405631254 456 185 432.7668816 185 406 c 0
 185 380.935521825 167.429860495 356 139 356 c 2
EndSplineSet
EndChar

StartChar: less
Encoding: 60 60 29
Width: 596
Flags: MW
LayerCount: 2
Fore
SplineSet
90 249 m 1
 90 283 l 1
 90 285.885811703 l 1
 92.4987793682 287.329422057 l 1
 523.498779368 536.329422057 l 1
 531 540.663073884 l 1
 531 532 l 1
 531 487 l 1
 531 484.098387323 l 1
 528.480694692 482.658784289 l 1
 149.327822185 266 l 1
 528.480694692 49.3412157106 l 1
 531 47.9016126774 l 1
 531 45 l 1
 531 0 l 1
 531 -8.66307388412 l 1
 523.498779368 -4.32942205741 l 1
 92.4987793682 244.670577943 l 1
 90 246.114188297 l 1
 90 249 l 1
EndSplineSet
EndChar

StartChar: equal
Encoding: 61 61 30
Width: 596
Flags: MW
LayerCount: 2
Fore
SplineSet
558 342 m 1
 65 342 l 1
 60 342 l 1
 60 347 l 1
 60 385 l 1
 60 390 l 1
 65 390 l 1
 558 390 l 1
 563 390 l 1
 563 385 l 1
 563 347 l 1
 563 342 l 1
 558 342 l 1
558 150 m 1
 65 150 l 1
 60 150 l 1
 60 155 l 1
 60 193 l 1
 60 198 l 1
 65 198 l 1
 558 198 l 1
 563 198 l 1
 563 193 l 1
 563 155 l 1
 563 150 l 1
 558 150 l 1
EndSplineSet
EndChar

StartChar: greater
Encoding: 62 62 31
Width: 596
Flags: MW
LayerCount: 2
Fore
SplineSet
539 283 m 1
 539 249 l 1
 539 246.114188297 l 1
 536.501220632 244.670577943 l 1
 105.501220632 -4.32942205741 l 1
 98 -8.66307388412 l 1
 98 0 l 1
 98 45 l 1
 98 47.9016126774 l 1
 100.519305308 49.3412157106 l 1
 479.672177815 266 l 1
 100.519305308 482.658784289 l 1
 98 484.098387323 l 1
 98 487 l 1
 98 532 l 1
 98 540.663073884 l 1
 105.501220632 536.329422057 l 1
 536.501220632 287.329422057 l 1
 539 285.885811703 l 1
 539 283 l 1
EndSplineSet
EndChar

StartChar: question
Encoding: 63 63 32
Width: 351
Flags: MW
LayerCount: 2
Fore
SplineSet
169 170 m 1
 126 170 l 1
 120.413674923 170 l 1
 121.030581327 175.55215763 l 2
 121.990612085 184.192434458 122 193.003368967 122 201 c 2
 122 201.184931853 l 1
 122.013661228 201.369358428 l 2
 126.127697079 256.908842425 156.818983515 324.855052195 225.378938563 397.447945775 c 0
 273.416325088 447.486890072 315 497.323573519 315 561 c 0
 315 600.257520442 296.861614186 640 234 640 c 0
 200.996792675 640 169.940552851 630.319636885 141.636814309 612.751799169 c 2
 136.393321667 609.497217529 l 1
 134.297230502 615.301777681 l 1
 121.297230502 651.301777681 l 1
 119.877632835 655.23297122 l 1
 123.494818647 657.327131427 l 2
 162.185197725 679.726824578 203.05376237 691 243 691 c 0
 343.314922016 691 374 616.811748901 374 568 c 0
 374 488.793393923 325.634494629 426.564776682 262.596004083 362.525675175 c 0
 208.034226975 304.987801134 182.846677098 258.086642993 177.979466032 204.54732127 c 2
 177.979466032 204.54732127 174.458597239 176.797888629 173.902903378 174.019419324 c 2
 173.099019514 170 l 1
 169 170 l 1
118 -16 m 2
 117 -16 l 2
 91.5704297547 -16 74 7.00877819752 74 33 c 0
 74 61.3001010345 93.8472239121 84 121 84 c 0
 149.361711021 84 165 60.8448071401 165 35 c 0
 165 8.95933040041 147.406308931 -16 118 -16 c 2
EndSplineSet
EndChar

StartChar: at
Encoding: 64 64 33
Width: 702
Flags: MW
LayerCount: 2
Fore
SplineSet
440.099340512 258.991740778 m 2
 464.234590896 378.702582682 l 1
 451.838076699 382.716582062 433.875713086 387 408 387 c 0
 310.239328553 387 227 294.632720343 227 187 c 0
 227 141.008577432 252.07989765 108 300 108 c 0
 365.912620727 108 427.309799313 196.027845645 440.099340512 258.991740778 c 2
492.59572515 -26.0304035071 m 1
 507.59572515 -61.0304035071 l 1
 509.305021202 -65.0187609604 l 1
 505.597076489 -67.2726097074 l 2
 453.544823116 -98.9122146984 392.59383164 -110 333 -110 c 0
 156.322669976 -110 28 13.4689085832 28 207 c 0
 28 416.145181479 167.800170129 598 391 598 c 0
 566.803645333 598 679 472.426766569 679 304 c 0
 679 149.35566335 592.723646197 61 505 61 c 0
 468.31887144 61 430.388231697 87.3658406295 431.203425602 147.585333589 c 1
 392.905071298 88.4453666643 346.336042144 61 284 61 c 0
 226.964106624 61 174 109.64214637 174 188 c 0
 174 316.614039934 279.043674095 434 417 434 c 0
 459.64081448 434 492.380380759 425.836652186 519.886484437 414.630461799 c 2
 523.738449228 413.06114281 l 1
 522.896489161 408.987876542 l 1
 485.896302098 229.98697198 l 2
 480.728459923 205.009068137 478.253516319 184.044051367 478.194207458 167.021097018 c 0
 478.047752839 124.985383208 491.570469358 109 514.089257261 109 c 0
 565.444447075 107.165886078 625 179.833064489 625 295 c 0
 625 447.814150294 537.106305581 551 384 551 c 0
 217.982760188 551 81 418.657221311 81 210 c 0
 81 46.3729587325 183.80801793 -62 339 -62 c 0
 391.159689773 -62 446.372565119 -48.120908593 485.3500053 -23.76000848 c 2
 490.297481792 -20.6678356723 l 1
 492.59572515 -26.0304035071 l 1
EndSplineSet
Substitution2: "'case' Case-Sensitive Forms lookup 7 subtable" at.cap
Substitution2: "'aalt' Access All Alternates lookup 0 subtable" at.cap
EndChar

StartChar: A
Encoding: 65 65 34
Width: 557
Flags: HW
LayerCount: 2
Fore
SplineSet
450.403320312 4.26953125 m 1
 416.034179688 237 l 1
 158.59547823 237 l 1
 33.7802734375 2.681640625 l 1
 32.376953125 -0 l 1
 29.349609375 0 l 1
 -17.650390625 0 l 1
 -26 0 l 1
 -22.0576171875 7.2529296875 l 1
 347.654107228 671.360351562 l 1
 349.118462873 674 l 1
 352.218083075 674 l 1
 397.349609375 674 l 1
 401.650390625 674 l 1
 402.293945312 669.748046875 l 1
 504.293945312 5.6640625 l 1
 505.1640625 -0 l 1
 499.349609375 0 l 1
 455.349609375 0 l 1
 451.034179688 0 l 1
 450.403320312 4.26953125 l 1
309.160161596 500.6640625 m 2
 187.90686222 281 l 1
 407.538085938 281 l 1
 374.01048625 500.333984375 l 2
 370.34454066 530.431640625 364.94017839 571.979492188 361.702010727 606.211914062 c 1
 345.236100082 571.595703125 329.746089436 538.61328125 309.160161596 500.6640625 c 2
EndSplineSet
Substitution2: "'ordn' Ordinals lookup 18 subtable" ordfeminine
Substitution2: "'aalt' Access All Alternates lookup 0 subtable" ordfeminine
Position2: "'cpsp' Capital Spacing lookup 0 subtable" dx=10 dy=0 dh=20 dv=0
EndChar

StartChar: B
Encoding: 66 66 35
Width: 500
Flags: HW
LayerCount: 2
Fore
SplineSet
40 5.0244140625 m 1
 40.931640625 9.849609375 l 1
 167.280237985 662.18359375 l 1
 167.94590077 665.461914062 l 1
 171.437296952 666.099609375 l 2
 209.429308109 673.030273438 252.864574125 679 302.675433168 679 c 0
 375.669921875 679 426.256835938 661.078125 458.655273438 625.02734375 c 0
 481.711914062 597.137695312 488.84375 565.319335938 488.84375 529.190429688 c 0
 488.84375 446.383789062 421.493164062 380.032226562 344.455260454 357.000976562 c 1
 402.599609375 337.4140625 452.805664062 288.393554688 451.84375 206.873046875 c 0
 451.84375 139.125 415.989257812 83.6376953125 375.99609375 51.2958984375 c 0
 321.413481596 9.84765625 248.681873293 -5 167.187927275 -5 c 0
 119.623046875 -5 76.412109375 -2.0087890625 44.8935546875 4.0908203125 c 2
 40 5.0244140625 l 1
293.222816478 631 m 0
 261.000224688 631 232.575705771 629.056640625 217.976254168 625.266601562 c 1
 168.283347699 382 l 1
 235.456825593 382 l 2
 347.248172264 382 431.84375 439.544921875 431.84375 531.0078125 c 0
 431.84375 600.904296875 380.76953125 631 293.222816478 631 c 0
239.657988567 335 m 2
 157.997070312 335 l 1
 103.704101562 49.07421875 l 1
 127.397460938 45.720703125 151.40625 45 174.563552993 45 c 0
 290.069892899 44.0263671875 394.84375 89.1533203125 394.84375 211.135742188 c 0
 394.84375 293.091796875 323.104818936 335 239.657988567 335 c 2
EndSplineSet
Position2: "'cpsp' Capital Spacing lookup 0 subtable" dx=10 dy=0 dh=20 dv=0
EndChar

StartChar: C
Encoding: 67 67 36
Width: 558
Flags: HW
LayerCount: 2
Fore
SplineSet
488.205078125 74.46875 m 1
 489.834960938 68.2724609375 l 1
 499.834960938 30.2724609375 l 1
 500.90234375 26.2177734375 l 1
 497.095703125 24.4599609375 l 2
 456.639592459 6.1357421875 391.964097649 -11 316.765946444 -11 c 0
 145.150390625 -11 48 98.25390625 48 267.005859375 c 0
 48 377.598632812 90.3203125 500.103515625 177.8870597 582.116210938 c 0
 251.092665711 647.981445312 343.343977132 685 447.969246433 685 c 0
 525.700195312 685 580.713867188 665.357421875 597.53515625 648.53515625 c 2
 600.143554688 645.927734375 l 1
 598.421875 642.666015625 l 1
 579.421875 606.666015625 l 1
 576.87890625 601.84765625 l 1
 572.295898438 604.793945312 l 2
 545.513671875 622.01171875 497.323242188 635 435.572084229 635 c 0
 356.415073609 635 273.943880222 603.032226562 215.014986642 547.899414062 c 0
 146.631835938 483.092773438 105 379.05078125 105 275.040039062 c 0
 105 150.430664062 155.486328125 39 326.063818097 39 c 0
 380.151079075 39 442.557594572 50.025390625 482.590820312 71.380859375 c 2
 488.205078125 74.46875 l 1
EndSplineSet
Position2: "'cpsp' Capital Spacing lookup 0 subtable" dx=10 dy=0 dh=20 dv=0
EndChar

StartChar: D
Encoding: 68 68 37
Width: 646
Flags: HW
LayerCount: 2
Fore
SplineSet
40 1.458984375 m 1
 41.02734375 6.84375 l 1
 166.200076009 662.171875 l 1
 166.864082854 665.555664062 l 1
 170.409136035 666.122070312 l 2
 220.046912421 674.047851562 274.83702028 679 331.725630858 679 c 0
 453.050028142 679 543.724609375 642.205078125 590.953125 578.454101562 c 0
 616.685546875 544.977539062 638.94140625 487.736328125 638.94140625 411.905273438 c 0
 638.94140625 295.418945312 593.635742188 169.922851562 503.806872038 91.8173828125 c 0
 422.407267515 24.82421875 320.248659308 -5 196.9714189 -5 c 0
 150.794921875 -5 95.7001953125 -2.9970703125 45.5419921875 1.015625 c 2
 40 1.458984375 l 1
325.553682219 630 m 0
 292.056998075 630 245.957243029 628.025390625 215.775570361 622.8515625 c 1
 103.842773438 49.2265625 l 1
 140.424804688 44.9580078125 176.382183986 45 200.05739322 45 c 0
 327.696385091 45 412.490360456 78.005859375 476.256113024 137.985351562 c 0
 546.245117188 203.696289062 581.94140625 305.620117188 581.94140625 406.815429688 c 0
 581.94140625 529.650390625 526.32421875 630 325.553682219 630 c 0
EndSplineSet
Position2: "'cpsp' Capital Spacing lookup 0 subtable" dx=10 dy=0 dh=20 dv=0
EndChar

StartChar: E
Encoding: 69 69 38
Width: 461
Flags: HW
LayerCount: 2
Fore
SplineSet
426.168945312 380 m 1
 424.936523438 373.995117188 l 1
 416.936523438 334.995117188 l 1
 416.1171875 331 l 1
 412.0390625 331 l 1
 158.184570312 331 l 1
 104.069335938 49 l 1
 388.0390625 49 l 1
 394.168945312 49 l 1
 392.936523438 42.9951171875 l 1
 384.936523438 3.9951171875 l 1
 384.1171875 -0 l 1
 380.0390625 0 l 1
 45.0390625 0 l 1
 39 0 l 1
 40.126953125 5.845703125 l 1
 168.561220572 669.932617188 l 1
 169.370435794 674 l 1
 173.707051887 674 l 1
 493.0390625 674 l 1
 499.168945312 674 l 1
 497.936523438 667.995117188 l 1
 489.936523438 628.995117188 l 1
 489.1171875 625 l 1
 485.0390625 625 l 1
 217.841506914 625 l 1
 167.476810791 380 l 1
 420.0390625 380 l 1
 426.168945312 380 l 1
EndSplineSet
Position2: "'cpsp' Capital Spacing lookup 0 subtable" dx=10 dy=0 dh=20 dv=0
EndChar

StartChar: F
Encoding: 70 70 39
Width: 457
Flags: HW
LayerCount: 2
Fore
SplineSet
39 0 m 1
 40.126953125 5.845703125 l 1
 168.561220572 669.932617188 l 1
 169.370435794 674 l 1
 173.707051887 674 l 1
 493.0390625 674 l 1
 499.168945312 674 l 1
 497.936523438 667.995117188 l 1
 489.936523438 628.995117188 l 1
 489.1171875 625 l 1
 485.0390625 625 l 1
 217.840483886 625 l 1
 165.38369531 370 l 1
 410.0390625 370 l 1
 416.168945312 370 l 1
 414.936523438 363.995117188 l 1
 406.936523438 324.995117188 l 1
 406.1171875 321 l 1
 402.0390625 321 l 1
 156.177734375 321 l 1
 94.951171875 4.0654296875 l 1
 94.177734375 0 l 1
 90.0390625 0 l 1
 45.0390625 0 l 1
 39 0 l 1
EndSplineSet
Position2: "'cpsp' Capital Spacing lookup 0 subtable" dx=10 dy=0 dh=20 dv=0
EndChar

StartChar: G
Encoding: 71 71 40
Width: 612
Flags: HW
LayerCount: 2
Fore
SplineSet
575.020507812 338 m 1
 573.915039062 332.166015625 l 1
 516.915039062 31.5234375 l 1
 516.451171875 29.076171875 l 1
 514.177734375 27.9921875 l 2
 482.125195261 12.8251953125 413.503727933 -7 335.172788142 -7 c 0
 234.061428218 -7 157.178710938 22.0546875 108.07421875 84.572265625 c 0
 58.0634765625 145.938476562 49 219.244140625 49 273.916992188 c 0
 49 376.666015625 91.3291015625 499.126953125 178.91912369 579.15625 c 0
 252.118648106 643.069335938 348.3243709 681 455.931895053 681 c 0
 537.825195312 681 588.608398438 660.984375 606.883789062 648.084960938 c 2
 610.244140625 645.712890625 l 1
 608.564453125 641.958007812 l 1
 591.564453125 603.958007812 l 1
 589.36328125 599.0390625 l 1
 584.622070312 601.6015625 l 2
 548.483398438 621.135742188 506.470703125 631 444.578474745 631 c 0
 356.232657098 631 272.909397457 596.196289062 208.773256867 535.095703125 c 0
 142.721679688 471.365234375 106 367.260742188 106 278.986328125 c 0
 106 142.166992188 167.900390625 43 347.558337569 43 c 0
 391.032744948 43 438.220398103 52.5478515625 466.84887795 64.091796875 c 1
 510.965820312 289 l 1
 356.847499639 289 l 1
 350.677907513 289 l 1
 351.768497071 294.883789062 l 1
 358.993400903 333.883789062 l 1
 359.755402479 338 l 1
 364.072403471 338 l 1
 569 338 l 1
 575.020507812 338 l 1
EndSplineSet
Position2: "'cpsp' Capital Spacing lookup 0 subtable" dx=10 dy=0 dh=20 dv=0
EndChar

StartChar: H
Encoding: 72 72 41
Width: 623
Flags: HW
LayerCount: 2
Fore
SplineSet
169.189645486 674 m 1
 173.450660305 674 l 1
 220.799290173 674 l 1
 227.047572341 674 l 1
 225.850387003 668.041992188 l 1
 167.347125986 377 l 1
 517.907226562 377 l 1
 574.12890625 669.942382812 l 1
 574.907226562 674 l 1
 579.0390625 674 l 1
 624.0390625 674 l 1
 630.086914062 674 l 1
 628.950195312 668.147460938 l 1
 499.65300658 4.060546875 l 1
 498.852872635 -0 l 1
 494.597888977 0 l 1
 448.278577149 0 l 1
 442.06547675 0 l 1
 443.221449158 5.9306640625 l 1
 507.941831349 338 l 1
 158.180664062 338 l 1
 94.951171875 4.0693359375 l 1
 94.1806640625 0 l 1
 90.0390625 0 l 1
 45.0390625 0 l 1
 39 0 l 1
 40.126953125 5.845703125 l 1
 168.394537507 669.932617188 l 1
 169.189645486 674 l 1
EndSplineSet
Position2: "'cpsp' Capital Spacing lookup 0 subtable" dx=10 dy=0 dh=20 dv=0
EndChar

StartChar: I
Encoding: 73 73 42
Width: 218
Flags: HW
LayerCount: 2
Fore
SplineSet
168.899414062 674 m 1
 173.0390625 674 l 1
 219.0390625 674 l 1
 225.086914062 674 l 1
 223.950195312 668.147460938 l 1
 94.9501953125 4.060546875 l 1
 94.1728515625 0 l 1
 90.0390625 0 l 1
 45.0390625 0 l 1
 39 0 l 1
 40.126953125 5.845703125 l 1
 168.126953125 669.932617188 l 1
 168.899414062 674 l 1
EndSplineSet
Position2: "'cpsp' Capital Spacing lookup 0 subtable" dx=10 dy=0 dh=20 dv=0
EndChar

StartChar: J
Encoding: 74 74 43
Width: 362
Flags: HW
LayerCount: 2
Fore
SplineSet
76.9560546875 40 m 0
 153.798664184 40 202.992784506 77.29296875 229.422807419 206.290039062 c 2
 320.04296875 669.928710938 l 1
 320.8125 674 l 1
 324.956054688 674 l 1
 369.956054688 674 l 1
 375.9921875 674 l 1
 374.868164062 668.154296875 l 1
 284.87109375 200.001953125 l 2
 256.657226562 51.0283203125 189.715374317 -11 70.9560546875 -11 c 0
 31.1162109375 -11 -9.107421875 -1.150390625 -24.5244140625 7.6591796875 c 2
 -28 9.64453125 l 1
 -26.8232421875 13.470703125 l 1
 -14.8232421875 52.470703125 l 1
 -13.0869140625 58.111328125 l 1
 -7.8076171875 55.4716796875 l 2
 13.1962890625 44.9697265625 40.376953125 40 76.9560546875 40 c 0
EndSplineSet
Position2: "'cpsp' Capital Spacing lookup 0 subtable" dx=10 dy=0 dh=20 dv=0
EndChar

StartChar: K
Encoding: 75 75 44
Width: 489
Flags: HW
LayerCount: 2
Fore
SplineSet
39 0 m 1
 40.126953125 5.845703125 l 1
 168.445921614 669.932617188 l 1
 169.245378493 674 l 1
 173.529699242 674 l 1
 221.137305887 674 l 1
 227.399549661 674 l 1
 226.219062133 668.057617188 l 1
 160.264374913 335.900390625 l 1
 184.131851792 361.330078125 206.678355041 383.176757812 226.746643032 403.491210938 c 2
 502.497070312 672.529296875 l 1
 503.961914062 674 l 1
 506.0390625 674 l 1
 563.0390625 674 l 1
 575.139648438 674 l 1
 566.568359375 665.583007812 l 1
 272.925132068 383.272460938 l 1
 461.549804688 7.0517578125 l 1
 464.969726562 0 l 1
 457.0390625 0 l 1
 406.392992611 0 l 1
 403.129470153 0 l 1
 401.722587756 2.845703125 l 1
 229.832283807 350.7421875 l 1
 147.63671875 277.43359375 l 1
 94.9482421875 4.0537109375 l 1
 94.1669921875 0 l 1
 90.0390625 0 l 1
 45.0390625 0 l 1
 39 0 l 1
EndSplineSet
Position2: "'cpsp' Capital Spacing lookup 0 subtable" dx=10 dy=0 dh=20 dv=0
EndChar

StartChar: L
Encoding: 76 76 45
Width: 434
Flags: HW
LayerCount: 2
Fore
SplineSet
39 0 m 1
 40.126953125 5.845703125 l 1
 169.003121459 669.932617188 l 1
 169.849737024 674 l 1
 174.386783019 674 l 1
 224.802686421 674 l 1
 231.435400275 674 l 1
 230.18420736 668.150390625 l 1
 103.090820312 49 l 1
 387.0390625 49 l 1
 393.168945312 49 l 1
 391.936523438 42.9951171875 l 1
 383.936523438 3.9951171875 l 1
 383.1171875 0 l 1
 379.0390625 0 l 1
 45.0390625 0 l 1
 39 0 l 1
EndSplineSet
Position2: "'cpsp' Capital Spacing lookup 0 subtable" dx=10 dy=0 dh=20 dv=0
EndChar

StartChar: M
Encoding: 77 77 46
Width: 774
Flags: HW
LayerCount: 2
Fore
SplineSet
669.920898438 -0 m 1
 665.4921875 0 l 1
 620.230470045 0 l 1
 614.437211049 0 l 1
 615.167847464 5.630859375 l 1
 668.529296875 422.609375 l 2
 674.377929688 471.907226562 685.927734375 551.8046875 694.696289062 602.447265625 c 1
 668.80078125 549.047851562 639.07421875 489.029296875 606.31548457 431.56640625 c 2
 362.368644665 2.56640625 l 1
 360.909365386 -0 l 1
 357.911064791 0 l 1
 324.228028319 0 l 1
 319.865142114 0 l 1
 319.186338023 4.2216796875 l 1
 251.823255405 423.205078125 l 2
 240.326447206 491.654296875 233.30715439 553.643554688 227.778040892 604.26171875 c 1
 215.400083183 552.05859375 197.441179652 471.66015625 184.231911206 420.756835938 c 2
 76.3349609375 3.7568359375 l 1
 75.37109375 -0 l 1
 71.4921875 0 l 1
 26.4921875 0 l 1
 20 0 l 1
 21.6572265625 6.1845703125 l 1
 200.892016307 670.276367188 l 1
 201.895769199 674 l 1
 205.827051628 674 l 1
 258.903351524 674 l 1
 263.271221606 674 l 1
 263.94504182 669.772460938 l 1
 338.451017412 202.8046875 l 2
 346.507953485 156.321289062 353.837243471 109.047851562 356.882392513 74.99609375 c 1
 373.577384755 109.633789062 396.361678307 152.987304688 422.853976583 200.423828125 c 2
 688.118164062 671.423828125 l 1
 689.545898438 674 l 1
 692.4921875 674 l 1
 747.4921875 674 l 1
 753.13671875 674 l 1
 752.455078125 668.478515625 l 1
 670.455078125 4.396484375 l 1
 669.920898438 -0 l 1
EndSplineSet
Position2: "'cpsp' Capital Spacing lookup 0 subtable" dx=10 dy=0 dh=20 dv=0
EndChar

StartChar: N
Encoding: 78 78 47
Width: 631
Flags: HW
LayerCount: 2
Fore
SplineSet
93.18359375 -0 m 1
 89.0390625 0 l 1
 45.0390625 0 l 1
 39 0 l 1
 40.126953125 5.845703125 l 1
 168.388411878 669.932617188 l 1
 169.183001413 674 l 1
 173.441237873 674 l 1
 217.673053816 674 l 1
 221.073414849 674 l 1
 222.405432198 670.958984375 l 1
 422.981528889 212.979492188 l 2
 450.00460485 152.813476562 464.079186363 111.645507812 475.595209664 72.30078125 c 1
 479.839382592 119.786132812 486.485405809 163.915039062 501.67000178 242.931640625 c 2
 583.126953125 669.931640625 l 1
 583.8984375 674 l 1
 588.0390625 674 l 1
 632.0390625 674 l 1
 638.078125 674 l 1
 636.951171875 668.154296875 l 1
 508.689713122 4.0673828125 l 1
 507.895123587 -0 l 1
 503.636887127 0 l 1
 461.462364948 0 l 1
 458.050953999 0 l 1
 456.723959339 3.0546875 l 1
 261.299133364 453.014648438 l 2
 229.604955837 522.55859375 215.001987351 561.813476562 203.182593583 605.083007812 c 1
 196.382876057 551.036132812 188.35059044 503.22265625 174.384499028 428.091796875 c 2
 93.9521484375 4.0732421875 l 1
 93.18359375 -0 l 1
EndSplineSet
Position2: "'cpsp' Capital Spacing lookup 0 subtable" dx=10 dy=0 dh=20 dv=0
EndChar

StartChar: O
Encoding: 79 79 48
Width: 665
Flags: HW
LayerCount: 2
Fore
SplineSet
181.813023743 596.802734375 m 0
 238.349336592 651.0234375 323.80027933 685 404.396648045 685 c 0
 595.64453125 685 657 544.298828125 657 410.9375 c 0
 657 297.4765625 614.801757812 164.212890625 531.382506983 82.1259765625 c 0
 470.933222765 24.15234375 393.490921788 -11 301.603351955 -11 c 0
 120.451171875 -11 49 126.49609375 49 260.104492188 c 0
 49 376.620117188 96.2705078125 513.814453125 181.813023743 596.802734375 c 0
601 407.815429688 m 0
 601 507.52734375 569.938476562 636 397.201117318 636 c 0
 327.813634777 636 266.459890014 607.20703125 218.909959846 560.741210938 c 0
 146.798828125 491.149414062 105 367.30859375 105 268.151367188 c 0
 105 152.251953125 155.768554688 38 308.798882682 38 c 0
 376.162622207 38 439.570225209 65.8388671875 489.158956006 114.254882812 c 0
 560.159179688 181.84375 601 306.62109375 601 407.815429688 c 0
EndSplineSet
Substitution2: "'ordn' Ordinals lookup 18 subtable" ordmasculine
Substitution2: "'aalt' Access All Alternates lookup 0 subtable" ordmasculine
Position2: "'cpsp' Capital Spacing lookup 0 subtable" dx=10 dy=0 dh=20 dv=0
EndChar

StartChar: P
Encoding: 80 80 49
Width: 496
Flags: HW
LayerCount: 2
Fore
SplineSet
39 0 m 1
 40.1318359375 5.8505859375 l 1
 167.506499047 662.184570312 l 1
 168.166424396 665.442382812 l 1
 171.618263027 666.092773438 l 2
 208.510746102 673.043945312 255.895633611 679 306.542350283 679 c 0
 378.569218097 679 438.4375 659.174804688 470.918945312 620.880859375 c 0
 494.764648438 591.182617188 506.043945312 556.359375 506.043945312 510.095703125 c 0
 506.043945312 440.262695312 469.336914062 376.858398438 429.359375 342.432617188 c 0
 377.797943114 296.919921875 298.044023687 276 221.81038716 276 c 0
 196.217337969 276 171.94311792 277.1015625 148.036132812 281.180664062 c 1
 94.95703125 4.0751953125 l 1
 94.1904296875 0 l 1
 90.0439453125 0 l 1
 45.0439453125 0 l 1
 39 0 l 1
297.127687714 630 m 0
 261.686836096 630 233.391770575 627.133789062 216.924283529 623.124023438 c 1
 157.84765625 331.633789062 l 1
 186.047745317 325.5703125 205.197839124 325 229.132902492 325 c 0
 363.952791009 325 450.043945312 401.866210938 450.043945312 508.983398438 c 0
 450.043945312 594.1015625 389.686523438 630 297.127687714 630 c 0
EndSplineSet
Position2: "'cpsp' Capital Spacing lookup 0 subtable" dx=10 dy=0 dh=20 dv=0
EndChar

StartChar: Q
Encoding: 81 81 50
Width: 665
Flags: HW
LayerCount: 2
Fore
SplineSet
584.3515625 -26.8798828125 m 1
 581.555664062 -33.060546875 l 1
 562.555664062 -75.060546875 l 1
 560.90625 -78.70703125 l 1
 556.987304688 -77.896484375 l 2
 467.749039804 -59.822265625 348.999694483 -30.0283203125 327.448236732 -21.642578125 c 1
 327.525532472 -21.45703125 290.312150838 -11 282.072625698 -11 c 2
 281.948149441 -11 l 1
 281.824677025 -10.994140625 l 2
 151.932617188 -4.9443359375 49 93.2744140625 49 260.104492188 c 0
 49 375.618164062 95.2470703125 511.806640625 178.712159567 593.829101562 c 0
 236.231232542 649.99609375 322.752269553 685 404.396648045 685 c 0
 595.64453125 685 657 544.345703125 657 411.028320312 c 0
 657 304.48828125 615.89453125 167.450195312 534.456267458 86.2578125 c 0
 494.826641061 49.16796875 441.621071927 18.08984375 395.205481844 4.8974609375 c 1
 463.370286313 -8.2607421875 525.220932263 -19.5283203125 577.620117188 -26.0390625 c 2
 584.3515625 -26.8798828125 l 1
601 407.815429688 m 0
 601 501.708007812 571.83984375 636 397.201117318 636 c 0
 328.822494763 636 268.464560056 608.15625 220.946752793 562.690429688 c 0
 147.809570312 492.14453125 105 366.29296875 105 267.16796875 c 0
 105 154.0625 151.897460938 38 303.659217877 38 c 0
 376.254975559 38 439.664586243 65.9140625 487.121159218 111.321289062 c 0
 561.110351562 181.794921875 601 311.541015625 601 407.815429688 c 0
EndSplineSet
Position2: "'cpsp' Capital Spacing lookup 0 subtable" dx=10 dy=0 dh=20 dv=0
EndChar

StartChar: R
Encoding: 82 82 51
Width: 506
Flags: HW
LayerCount: 2
Fore
SplineSet
39 0 m 1
 40.1220703125 5.84375 l 1
 166.462783507 662.176757812 l 1
 167.115636363 665.423828125 l 1
 170.557951421 666.087890625 l 2
 211.823777622 674.048828125 262.344151203 679 304.68544504 679 c 0
 377.871478114 679 432.565429688 659.075195312 462.858398438 623.045898438 c 0
 487.7578125 594.41796875 498.034179688 557.6640625 498.034179688 521.322265625 c 0
 498.034179688 427.9140625 422.211914062 350.654296875 340.444999741 325.72265625 c 1
 388.970703125 305.080078125 410.306640625 252.38671875 414.025390625 184.583007812 c 0
 421.017578125 81.23046875 425.118164062 31.845703125 431.875 6.1640625 c 2
 433.49609375 -0 l 1
 427.034179688 0 l 1
 380.034179688 0 l 1
 376.039806308 0 l 1
 375.04722438 3.787109375 l 2
 371.566024669 16.8623046875 364.441946954 92.8759765625 360.227055241 167.065429688 c 0
 356.084816432 264.276367188 318.011624885 306 244.958618256 306 c 2
 153.174804688 306 l 1
 94.947265625 4.068359375 l 1
 94.1748046875 -0 l 1
 90.0341796875 0 l 1
 45.0341796875 0 l 1
 39 0 l 1
295.254893443 631 m 0
 258.698203358 631 234.586648747 628.181640625 218.085230012 623.327148438 c 1
 162.247891794 354 l 1
 243.910779189 354 l 2
 369.255457665 354 441.034179688 431.56640625 441.034179688 518.0390625 c 0
 441.034179688 596.115234375 384.686523438 631 295.254893443 631 c 0
EndSplineSet
Position2: "'cpsp' Capital Spacing lookup 0 subtable" dx=10 dy=0 dh=20 dv=0
EndChar

StartChar: S
Encoding: 83 83 52
Width: 458
Flags: HW
LayerCount: 2
Fore
SplineSet
19 40.072265625 m 1
 20.7216796875 43.333984375 l 1
 39.7216796875 79.333984375 l 1
 42.4296875 84.4658203125 l 1
 47.10546875 81.0283203125 l 2
 80.279296875 56.6357421875 126.298828125 39 179.157216594 39 c 0
 270.755232365 39 352.143554688 93.4716796875 352.143554688 187.698242188 c 0
 352.143554688 242.828125 326.151197119 285.33984375 247.166119036 326.168945312 c 0
 146.366457331 377.77734375 108.143554688 432.556640625 108.143554688 497.896484375 c 0
 108.143554688 610.423828125 208.509953063 685 326.548050228 685 c 0
 384.247070312 685 435.078125 664.977539062 455.477539062 646.7265625 c 2
 458.423828125 644.08984375 l 1
 456.537109375 640.614257812 l 1
 437.537109375 605.614257812 l 1
 435.01171875 600.962890625 l 1
 430.51171875 603.749023438 l 2
 409.915039062 616.499023438 371.836914062 636 320.231300215 636 c 0
 224.973188408 636 164.418133231 571.010742188 164.418133231 507.978515625 c 0
 164.418133231 447.217773438 193.774982167 414.5390625 276.443802974 371.470703125 c 0
 363.369140625 326.71875 407.143554688 272.741210938 407.143554688 187.92578125 c 0
 407.143554688 90.8076171875 333.524851268 -11 169.682091575 -11 c 0
 116.061523438 -11 49.1953125 9.876953125 21.607421875 37.46484375 c 2
 19 40.072265625 l 1
EndSplineSet
Position2: "'cpsp' Capital Spacing lookup 0 subtable" dx=10 dy=0 dh=20 dv=0
EndChar

StartChar: T
Encoding: 84 84 53
Width: 461
Flags: HW
LayerCount: 2
Fore
SplineSet
152.086914062 0 m 1
 153.217773438 5.8427734375 l 1
 276.766558138 625 l 1
 70.1298828125 625 l 1
 64 625 l 1
 65.2314453125 631.004882812 l 1
 73.2314453125 670.004882812 l 1
 74.0517578125 674 l 1
 78.1298828125 674 l 1
 550.129882812 674 l 1
 556.107421875 674 l 1
 555.05078125 668.116210938 l 1
 548.05078125 629.116210938 l 1
 547.3125 625 l 1
 543.129882812 625 l 1
 334.225386322 625 l 1
 209.034005243 4.064453125 l 1
 208.227604797 0 l 1
 203.920023101 0 l 1
 158.129882812 0 l 1
 152.086914062 0 l 1
EndSplineSet
Position2: "'cpsp' Capital Spacing lookup 0 subtable" dx=10 dy=0 dh=20 dv=0
EndChar

StartChar: U
Encoding: 85 85 54
Width: 620
Flags: HW
LayerCount: 2
Fore
SplineSet
167.86328125 674 m 1
 172 674 l 1
 218.578148715 674 l 1
 224.832689911 674 l 1
 223.655293232 668.151367188 l 1
 144.907226562 267.44140625 l 2
 138.981445312 238.2734375 137 209.087890625 137 182.736328125 c 0
 137 80.8916015625 194.333007812 39 276.482638601 39 c 0
 378.781849779 39 457.757297226 105.057617188 490.614338876 268.3046875 c 2
 569.088867188 669.938476562 l 1
 569.865234375 674 l 1
 574 674 l 1
 619 674 l 1
 625.041992188 674 l 1
 623.912109375 668.150390625 l 1
 544.907226562 259.099609375 l 2
 505.580078125 60.32421875 393.88302246 -11 268.210568617 -11 c 0
 169.840820312 -11 81 44.3408203125 81 180.192382812 c 0
 81 209.1015625 84.0322265625 240.943359375 90.0888671875 271.783203125 c 2
 167.088867188 669.936523438 l 1
 167.86328125 674 l 1
EndSplineSet
Position2: "'cpsp' Capital Spacing lookup 0 subtable" dx=10 dy=0 dh=20 dv=0
EndChar

StartChar: V
Encoding: 86 86 55
Width: 515
Flags: HW
LayerCount: 2
Fore
SplineSet
223.299989574 0 m 1
 220.178507195 0 l 1
 174.653320312 0 l 1
 170.231445312 0 l 1
 169.69140625 4.388671875 l 1
 86.69140625 668.471679688 l 1
 86 674 l 1
 91.6533203125 674 l 1
 136.653320312 674 l 1
 141.08984375 674 l 1
 141.618164062 669.595703125 l 1
 201.619140625 169.583984375 l 2
 208.283813619 113.653320312 212.26831793 88.8203125 212.97820671 65.1376953125 c 1
 224.390175916 91.24609375 239.424606154 127.176757812 273.757869947 187.365234375 c 2
 535.2265625 671.323242188 l 1
 536.630859375 674 l 1
 539.653320312 674 l 1
 587.653320312 674 l 1
 595.970703125 674 l 1
 592.069335938 666.762695312 l 1
 224.764388715 2.654296875 l 1
 223.299989574 0 l 1
EndSplineSet
Position2: "'cpsp' Capital Spacing lookup 0 subtable" dx=10 dy=0 dh=20 dv=0
EndChar

StartChar: W
Encoding: 87 87 56
Width: 827
Flags: HW
LayerCount: 2
Fore
SplineSet
191.41015625 -0 m 1
 188.282226562 0 l 1
 143.282226562 0 l 1
 138.548828125 0 l 1
 138.2890625 4.7255859375 l 1
 101.2890625 668.803710938 l 1
 101 674 l 1
 106.282226562 674 l 1
 151.282226562 674 l 1
 156.041992188 674 l 1
 156.276367188 669.245117188 l 1
 179.27734375 201.219726562 l 2
 182.41796875 129.760742188 181.862304688 97.3154296875 181.481445312 72.19140625 c 1
 191.6640625 98.71875 205.049804688 130.118164062 238.088614233 197.176757812 c 2
 469.251827424 671.159179688 l 1
 470.637175712 674 l 1
 473.844460871 674 l 1
 520.689719838 674 l 1
 525.512084408 674 l 1
 525.773639756 669.271484375 l 1
 550.214644434 228.271484375 l 2
 554.307040848 154.329101562 556.425340814 104.5 556.578494896 73.0576171875 c 1
 572.831723226 116.76953125 588.47531875 153.921875 610.779127828 202.104492188 c 2
 835.762695312 671.139648438 l 1
 837.1171875 674 l 1
 840.282226562 674 l 1
 887.282226562 674 l 1
 895.211914062 674 l 1
 891.793945312 666.94921875 l 1
 566.019350096 2.8447265625 l 1
 564.634996316 -0 l 1
 561.424727635 0 l 1
 515.597843863 0 l 1
 510.781446335 0 l 1
 510.513923945 4.7216796875 l 1
 485.057527593 453.668945312 l 2
 479.680228102 522.307617188 479.09545797 547.78515625 482.451919184 604.977539062 c 1
 464.737760032 556.46875 450.806705607 522.705078125 429.51928271 481.76953125 c 2
 192.778320312 2.8125 l 1
 191.41015625 -0 l 1
EndSplineSet
Position2: "'cpsp' Capital Spacing lookup 0 subtable" dx=10 dy=0 dh=20 dv=0
EndChar

StartChar: X
Encoding: 88 88 57
Width: 512
Flags: HW
LayerCount: 2
Fore
SplineSet
462.357333536 -0 m 1
 454.743799224 0 l 1
 405.445888735 0 l 1
 401.989659089 0 l 1
 400.688808871 3.1171875 l 1
 322.656852208 190.061523438 l 2
 303.636556502 232.65625 287.805700807 272.728515625 276.90142666 302.190429688 c 1
 256.399746397 274.409179688 229.267441007 238.704101562 193.845600497 193.959960938 c 2
 44.26953125 1.9599609375 l 1
 42.7685546875 -0 l 1
 40.298828125 0 l 1
 -13.701171875 0 l 1
 -24 0 l 1
 -17.6298828125 7.974609375 l 1
 254.77192843 343.733398438 l 1
 121.316932303 667.259765625 l 1
 118.536703464 674 l 1
 126.091062632 674 l 1
 175.388973121 674 l 1
 178.8983601 674 l 1
 180.173133135 670.81640625 l 1
 260.266190182 470.857421875 l 2
 275.212427611 435.383789062 286.103663166 405.989257812 294.768308526 381.802734375 c 1
 314.235928207 407.783203125 338.501749463 440.309570312 363.427524029 471.114257812 c 2
 526.38671875 672.114257812 l 1
 527.888671875 674 l 1
 530.298828125 674 l 1
 585.298828125 674 l 1
 595.825195312 674 l 1
 589.174804688 665.959960938 l 1
 317.884727816 343.04296875 l 1
 459.504890961 6.7724609375 l 1
 462.357333536 -0 l 1
EndSplineSet
Position2: "'cpsp' Capital Spacing lookup 0 subtable" dx=10 dy=0 dh=20 dv=0
EndChar

StartChar: Y
Encoding: 89 89 58
Width: 504
Flags: HW
LayerCount: 2
Fore
SplineSet
223.533783257 0 m 1
 219.209632701 0 l 1
 173.915039062 0 l 1
 167.870117188 0 l 1
 169.002929688 5.8505859375 l 1
 223.219169995 283.458984375 l 1
 94.166015625 667.529296875 l 1
 92 674 l 1
 98.9150390625 674 l 1
 146.915039062 674 l 1
 150.565429688 674 l 1
 151.676757812 670.5234375 l 1
 231.467331909 423.540039062 l 2
 249.225163281 371.58984375 257.380672099 344.786132812 261.789330423 325.93359375 c 1
 276.967129418 349.491210938 300.442980455 384.438476562 333.823549317 428.905273438 c 2
 510.833984375 671.888671875 l 1
 512.328125 674 l 1
 514.915039062 674 l 1
 566.915039062 674 l 1
 576.731445312 674 l 1
 570.958984375 666.176757812 l 1
 279.374073593 280.838867188 l 1
 224.333043484 4.076171875 l 1
 223.533783257 0 l 1
EndSplineSet
Position2: "'cpsp' Capital Spacing lookup 0 subtable" dx=10 dy=0 dh=20 dv=0
EndChar

StartChar: Z
Encoding: 90 90 59
Width: 524
Flags: HW
LayerCount: 2
Fore
SplineSet
-16 0 m 1
 -14.8896484375 5.828125 l 1
 -8.8896484375 37.32421875 l 1
 -8.650390625 38.578125 l 1
 -7.8232421875 39.560546875 l 1
 495.8671875 625 l 1
 145.187749345 625 l 1
 138.879697554 625 l 1
 140.147940562 631.004882812 l 1
 148.380465696 670.004882812 l 1
 149.223616159 674 l 1
 153.420274479 674 l 1
 572.024414062 674 l 1
 578.048828125 674 l 1
 576.939453125 668.171875 l 1
 570.939453125 636.67578125 l 1
 570.700195312 635.421875 l 1
 569.872070312 634.439453125 l 1
 66.1826171875 49 l 1
 455.965573169 49 l 1
 462.001953125 49 l 1
 460.946289062 43.1162109375 l 1
 453.827046132 4.1162109375 l 1
 453.066301316 0 l 1
 448.762113676 0 l 1
 -9.9755859375 0 l 1
 -16 0 l 1
EndSplineSet
Position2: "'cpsp' Capital Spacing lookup 0 subtable" dx=10 dy=0 dh=20 dv=0
EndChar

StartChar: bracketleft
Encoding: 91 91 60
Width: 265
Flags: MW
LayerCount: 2
Fore
SplineSet
191 -116 m 1
 32 -116 l 1
 25.9563055244 -116 l 1
 27.0885230519 -110.06330678 l 1
 179.088523052 686.93669322 l 1
 179.863457344 691 l 1
 184 691 l 1
 343 691 l 1
 349.065866895 691 l 1
 347.908076948 685.045651704 l 1
 340.908076948 649.045651704 l 1
 340.12142245 645 l 1
 336 645 l 1
 223.138047845 645 l 1
 87.0414961205 -70 l 1
 197 -70 l 1
 202.902302109 -70 l 1
 201.931969619 -75.8219949365 l 1
 195.931969619 -111.821994937 l 1
 195.235635442 -116 l 1
 191 -116 l 1
EndSplineSet
Substitution2: "'case' Case-Sensitive Forms lookup 7 subtable" bracketleft.cap
Substitution2: "'aalt' Access All Alternates lookup 0 subtable" bracketleft.cap
EndChar

StartChar: backslash
Encoding: 92 92 61
Width: 324
Flags: MW
LayerCount: 2
Fore
SplineSet
307 -45 m 1
 263 -45 l 1
 259.177322573 -45 l 1
 258.174954339 -41.3110813728 l 1
 61.1749543387 683.688918627 l 1
 59.4600811932 690 l 1
 66 690 l 1
 110 690 l 1
 113.822677427 690 l 1
 114.825045661 686.311081373 l 1
 311.825045661 -38.6889186272 l 1
 313.539918807 -45 l 1
 307 -45 l 1
EndSplineSet
EndChar

StartChar: bracketright
Encoding: 93 93 62
Width: 265
Flags: MW
LayerCount: 2
Fore
SplineSet
99 691 m 1
 258 691 l 1
 264.043694476 691 l 1
 262.911476948 685.06330678 l 1
 110.911476948 -111.93669322 l 1
 110.136542656 -116 l 1
 106 -116 l 1
 -53 -116 l 1
 -58.9023021086 -116 l 1
 -57.9319696192 -110.178005063 l 1
 -51.9319696192 -74.1780050635 l 1
 -51.2356354419 -70 l 1
 -47 -70 l 1
 66.8619521553 -70 l 1
 202.958503879 645 l 1
 92 645 l 1
 85.9341331053 645 l 1
 87.0919230517 650.954348296 l 1
 94.0919230517 686.954348296 l 1
 94.8785775498 691 l 1
 99 691 l 1
EndSplineSet
Substitution2: "'case' Case-Sensitive Forms lookup 7 subtable" bracketright.cap
Substitution2: "'aalt' Access All Alternates lookup 0 subtable" bracketright.cap
EndChar

StartChar: asciicircum
Encoding: 94 94 63
Width: 596
Flags: MW
LayerCount: 2
Fore
SplineSet
528 191 m 1
 485 191 l 1
 481.704080038 191 l 1
 480.404857599 194.029044313 l 1
 309 593.647226602 l 1
 137.595142401 194.029044313 l 1
 136.295919962 191 l 1
 133 191 l 1
 90 191 l 1
 82.364560681 191 l 1
 85.4168995163 197.998797127 l 1
 283.416899516 651.998797127 l 1
 284.760055388 655.078558571 l 1
 288.11901389 654.998583369 l 1
 330.11901389 653.998583369 l 1
 333.30509436 653.92272431 l 1
 334.581482748 651.002502393 l 1
 532.581482748 198.002502393 l 1
 535.642179158 191 l 1
 528 191 l 1
EndSplineSet
EndChar

StartChar: underscore
Encoding: 95 95 64
Width: 500
Flags: MW
LayerCount: 2
Fore
SplineSet
-45 -70 m 1
 455 -70 l 1
 461.099019514 -70 l 1
 459.902903378 -75.9805806757 l 1
 449.902903378 -125.980580676 l 1
 449.099019514 -130 l 1
 445 -130 l 1
 -55 -130 l 1
 -61.0990195136 -130 l 1
 -59.9029033785 -124.019419324 l 1
 -49.9029033785 -74.0194193243 l 1
 -49.0990195136 -70 l 1
 -45 -70 l 1
EndSplineSet
EndChar

StartChar: quoteleft
Encoding: 8216 8216 65
Width: 156
Flags: MW
LayerCount: 2
Fore
SplineSet
138.821994937 475.068030381 m 1
 78.8219949365 465.068030381 l 1
 69.8194162185 463.567600594 l 1
 73.4011091596 471.962193425 l 2
 105.628511843 547.495168465 168.39437466 661.192499547 190 690 c 2
 191.242640687 691.656854249 l 1
 193.292893219 691.949747468 l 1
 228.292893219 696.949747468 l 1
 238.413341721 698.395525826 l 1
 233.341215711 689.519305308 l 2
 209.658977312 648.075388111 161.58933555 539.910997231 142.780559124 478.534989946 c 2
 141.873984986 475.576695389 l 1
 138.821994937 475.068030381 l 1
EndSplineSet
EndChar

StartChar: a
Encoding: 97 97 66
Width: 523
Flags: HW
LayerCount: 2
Fore
SplineSet
422.208007812 0 m 1
 417 0 l 1
 374 0 l 1
 369.036879508 0 l 1
 368.8679164 4.8330078125 l 2
 367.941179349 31.3525390625 372.73046875 76.1787109375 379.034179688 124.978515625 c 1
 321.412835309 26.041015625 250.835408807 -11 174.874715262 -11 c 0
 86.6083984375 -11 36 58.7890625 36 143.9140625 c 0
 36 313.732421875 170.283014783 491 375 491 c 0
 414.508789062 491 457.764648438 484.975585938 487.330078125 476.8203125 c 2
 491.78125 475.591796875 l 1
 490.91015625 471.150390625 l 1
 442.916015625 226.329101562 l 2
 424.978515625 131.658203125 420.017578125 52.57421875 421.99609375 5.0966796875 c 2
 422.208007812 0 l 1
185.360668185 38 m 0
 271.293257196 38 373.287109375 147.25390625 399.087890625 277.018554688 c 2
 429.318359375 434.985351562 l 1
 416.942382812 439.083007812 398.681640625 442 365.719058466 442 c 0
 217.170789436 442 92.9853515625 308.006835938 92 152.173828125 c 0
 92 96.0791015625 109.1796875 38 185.360668185 38 c 0
EndSplineSet
Substitution2: "'ordn' Ordinals lookup 18 subtable" ordfeminine
Substitution2: "'aalt' Access All Alternates lookup 0 subtable" ordfeminine
EndChar

StartChar: b
Encoding: 98 98 67
Width: 523
Flags: HW
LayerCount: 2
Fore
SplineSet
166.8984375 710 m 1
 171 710 l 1
 218.303664921 710 l 1
 224.721597881 710 l 1
 223.463703575 704.01953125 l 1
 157.922851562 389.12109375 l 1
 207.29606205 458.2109375 273.435199198 491 341.429319372 491 c 0
 454.94921875 491 493 398.853515625 493 314.515625 c 0
 493 173.547851562 382.860351562 -11 191.994764398 -11 c 0
 123.88671875 -11 52 16.857421875 52 109.322265625 c 0
 52 129.650390625 56.0498046875 156.370117188 59.0556640625 176.131835938 c 2
 59.0732421875 176.248046875 l 1
 59.0966796875 176.364257812 l 1
 166.096679688 705.977539062 l 1
 166.8984375 710 l 1
329.853403141 442 m 0
 245.14902037 442 154.618164062 358.797851562 125.890625 233.126953125 c 2
 113.884765625 175.524414062 l 2
 109.919921875 159.081054688 107 140.166992188 107 113.139648438 c 0
 107 64.123046875 133.96875 38 196.204188482 38 c 0
 350.681625286 38 437 198.41796875 437 315.139648438 c 0
 437 380.46484375 408.06640625 442 329.853403141 442 c 0
EndSplineSet
EndChar

StartChar: c
Encoding: 99 99 68
Width: 436
Flags: HW
LayerCount: 2
Fore
SplineSet
358.975585938 72.1826171875 m 1
 360.767578125 66.505859375 l 1
 372.767578125 28.505859375 l 1
 374.002929688 24.5947265625 l 1
 370.409179688 22.619140625 l 2
 349.80078125 11.2841796875 296.45426349 -11 220.806739421 -11 c 0
 86.70703125 -11 38 81.423828125 38 169.40625 c 0
 38 328.2265625 156.404296875 491 336 491 c 0
 384.000976562 491 428.518554688 475.360351562 440.344726562 464.716796875 c 2
 442.98828125 462.336914062 l 1
 441.608398438 459.059570312 l 1
 425.608398438 421.059570312 l 1
 423.577148438 416.235351562 l 1
 418.850585938 418.485351562 l 2
 398.135742188 428.349609375 369.005859375 440 329 440 c 0
 184.554809186 440 95 299.872070312 95 176.569335938 c 0
 95 95.3642578125 133.083984375 39 229.322907478 39 c 0
 285.611534873 39 329.0546875 56.6240234375 353.693359375 69.4365234375 c 2
 358.975585938 72.1826171875 l 1
EndSplineSet
EndChar

StartChar: d
Encoding: 100 100 69
Width: 523
Flags: HW
LayerCount: 2
Fore
SplineSet
481.83984375 710 m 1
 486 710 l 1
 531 710 l 1
 537.049804688 710 l 1
 535.91015625 704.05859375 l 1
 424.916015625 133.24609375 l 2
 416.924902904 90.927734375 408.637720346 43.716796875 405.54563961 4.6259765625 c 2
 405.184135261 0 l 1
 400.360692405 0 l 1
 357.727550326 0 l 1
 351.684538023 0 l 1
 352.586267972 5.74609375 l 1
 366.347804306 93.423828125 l 1
 319.11157455 29.02734375 258.416416032 -11 181.995818341 -11 c 0
 78.1201171875 -11 36 75.1083984375 36 161.5625 c 0
 36 333.352539062 169.102501721 491 342.130059321 491 c 0
 378.096695642 491 416.105425349 483.895507812 438.268554688 474.319335938 c 1
 481.083007812 705.909179688 l 1
 481.83984375 710 l 1
194.473811145 38 m 0
 271.919009644 38 367.474966742 123.370117188 390.052741156 237.977539062 c 2
 427.44140625 422.07421875 l 1
 407.695371931 433.4375 377.689495519 442 336.930895653 442 c 0
 201.376919468 442 92 309.290039062 92 165.8359375 c 0
 92 108.51953125 108.428710938 38 194.473811145 38 c 0
EndSplineSet
EndChar

StartChar: e
Encoding: 101 101 70
Width: 443
Flags: HW
LayerCount: 2
Fore
SplineSet
353.6171875 75.3154296875 m 1
 355.6875 69.7412109375 l 1
 368.6875 34.7412109375 l 1
 370.064453125 31.033203125 l 1
 366.7734375 28.83984375 l 2
 342.005859375 12.328125 289.660290948 -11 212.586206897 -11 c 0
 83.408203125 -11 37 83.7265625 37 178.23046875 c 0
 37 320.018554688 145.861328125 491 302.379310345 491 c 0
 392.598632812 491 432 435.725585938 432 378.489257812 c 0
 432 247.422851562 268.286200162 222.436523438 96.064453125 224.821289062 c 1
 91.1201171875 197.079101562 92.7724609375 145.401367188 103.712890625 115.967773438 c 0
 122.0625 64.0009765625 162.172582166 39 219 39 c 0
 281.921773976 39 324.904296875 58.56640625 348.48046875 72.3193359375 c 2
 353.6171875 75.3154296875 l 1
117.397460938 266.862304688 m 0
 260.046605603 266.788085938 376 288.997070312 376 373 c 2
 376 374 l 2
 376 418.559570312 342.375 442 293.827586207 442 c 0
 206.319605334 442 133.40625 356.466796875 105.685546875 266.921875 c 1
 110.137695312 266.880859375 113.426757812 266.865234375 117.397460938 266.862304688 c 0
EndSplineSet
EndChar

StartChar: f
Encoding: 102 102 71
Width: 275
Flags: HW
LayerCount: 2
Fore
SplineSet
101.177734375 0 m 1
 97.037109375 0 l 1
 52.037109375 0 l 1
 46 0 l 1
 47.125 5.7978515625 l 1
 130 433 l 1
 71.037109375 433 l 1
 64.8408203125 433 l 1
 66.150390625 439.056640625 l 1
 74.150390625 476.056640625 l 1
 75.0029296875 480 l 1
 79.037109375 480 l 1
 139.907226562 480 l 1
 144.12109375 501.91015625 l 2
 157.197265625 575.338867188 182.752208047 639.374023438 227.93198455 679.630859375 c 0
 256.299712243 703.481445312 295.5546875 721 336.037109375 721 c 0
 368.749023438 721 388.676757812 713.916015625 398.810546875 707.16015625 c 2
 402.122070312 704.953125 l 1
 400.713867188 701.23046875 l 1
 386.713867188 664.23046875 l 1
 384.622070312 658.703125 l 1
 379.517578125 661.680664062 l 2
 368.86328125 667.896484375 350.564453125 671 332.037109375 671 c 0
 257.370434477 671 219.625872848 596.40234375 200.974789143 497.143554688 c 2
 197.712398942 480 l 1
 314.037109375 480 l 1
 320.233398438 480 l 1
 318.923828125 473.943359375 l 1
 310.923828125 436.943359375 l 1
 310.071289062 433 l 1
 306.037109375 433 l 1
 186.984873486 433 l 1
 101.94921875 4.068359375 l 1
 101.177734375 0 l 1
EndSplineSet
EndChar

StartChar: g
Encoding: 103 103 72
Width: 523
Flags: HW
LayerCount: 2
Fore
SplineSet
8 -169.55859375 m 1
 9.6748046875 -165.912109375 l 1
 26.6748046875 -128.912109375 l 1
 29.0830078125 -123.671875 l 1
 33.9287109375 -126.798828125 l 2
 64.1767578125 -146.313476562 104.130859375 -161 160.559796476 -161 c 0
 249.663313584 -161 320.585370266 -116.504882812 355.711817365 34.0625 c 2
 371.017578125 101.611328125 l 1
 322.594894742 31.271484375 256.801046745 -2 185.590751124 -2 c 0
 82.46484375 -2 37.21875 83.806640625 37.21875 162.66015625 c 0
 37.21875 328.387695312 163.190613365 491 345.163087007 491 c 0
 395.301757812 491 457.565429688 474.227539062 487.633789062 457.890625 c 2
 490.793945312 456.173828125 l 1
 490.134765625 452.6796875 l 1
 416.129882812 60.7265625 l 2
 395.06640625 -47.923828125 366.677119194 -113.189453125 318.433254089 -154.692382812 c 0
 269.036433228 -197.936523438 202.952309268 -209 151.173188483 -209 c 0
 94.4462890625 -209 41.5458984375 -195.006835938 11.1962890625 -171.983398438 c 2
 8 -169.55859375 l 1
200.192141336 47 m 0
 286.774840867 47 376.525390625 153.412109375 395.306640625 251.750976562 c 2
 429.573242188 423.629882812 l 1
 410.33203125 432.212890625 377.5625 442 335.776479014 442 c 0
 191.630528186 442 94.205078125 303.700195312 93.21875 172.796875 c 0
 93.21875 118.580078125 109.556640625 47 200.192141336 47 c 0
EndSplineSet
EndChar

StartChar: h
Encoding: 104 104 73
Width: 536
Flags: HW
LayerCount: 2
Fore
SplineSet
93.2001953125 0 m 1
 89.0400390625 0 l 1
 44.0400390625 0 l 1
 38 0 l 1
 39.1279296875 5.8515625 l 1
 174.97214694 705.93359375 l 1
 175.786070063 710 l 1
 180.141380916 710 l 1
 228.54925312 710 l 1
 234.952731629 710 l 1
 233.711293331 704.03125 l 1
 169.474055137 395.061523438 l 1
 215.33636222 455.041992188 277.729941219 491 355.883003919 491 c 0
 399.631835938 491 479.040039062 465.961914062 479.040039062 360.676757812 c 0
 479.040039062 333.994140625 477.032226562 306.219726562 471.940429688 283.26953125 c 2
 417.953125 4.0693359375 l 1
 417.181640625 0 l 1
 413.040039062 0 l 1
 368.040039062 0 l 1
 362.01171875 0 l 1
 363.126953125 5.79296875 l 1
 417.126953125 286.4296875 l 1
 417.153320312 286.571289062 l 1
 417.189453125 286.7109375 l 2
 421.052734375 301.819335938 424.040039062 324.970703125 424.040039062 353.973632812 c 0
 424.040039062 402.99609375 400.000976562 441 336.940793056 441 c 0
 263.542809006 441 161.793169504 361.986328125 140.95703125 252.407226562 c 2
 93.95703125 4.08984375 l 1
 93.2001953125 0 l 1
EndSplineSet
EndChar

StartChar: i
Encoding: 105 105 74
Width: 216
Flags: HW
LayerCount: 2
Fore
SplineSet
93.181640625 0 m 1
 89.0498046875 0 l 1
 44.0498046875 0 l 1
 38 0 l 1
 39.138671875 5.8193359375 l 1
 131.138671875 475.94140625 l 1
 131.916992188 480 l 1
 136.049804688 480 l 1
 181.049804688 480 l 1
 187.098632812 480 l 1
 185.959960938 474.180664062 l 1
 93.9599609375 4.05859375 l 1
 93.181640625 0 l 1
226.026367188 612.526367188 m 2
 223.87890625 589.971679688 209.383789062 568 182.049804688 568 c 2
 181.049804688 568 l 2
 156.30859375 568 143.049804688 590.462890625 143.049804688 613 c 2
 143.049804688 613.11328125 l 1
 143.0546875 613.2265625 l 2
 144.14453125 637.209960938 160.782226562 658 185.049804688 658 c 0
 211.330078125 658 226.049804688 636.924804688 226.049804688 613 c 2
 226.049804688 612.762695312 l 1
 226.026367188 612.526367188 l 2
EndSplineSet
EndChar

StartChar: j
Encoding: 106 106 75
Width: 217
Flags: HW
LayerCount: 2
Fore
SplineSet
140.465820312 480 m 1
 144.599609375 480 l 1
 189.599609375 480 l 1
 195.654296875 480 l 1
 194.508789062 474.174804688 l 1
 99.6061991195 -3.9443359375 l 2
 83.1033296483 -81.9990234375 66.6530683747 -133.03515625 35.6002745607 -163.373046875 c 0
 6.01728936722 -193.385742188 -32.0322265625 -209 -69.400390625 -209 c 0
 -89.53125 -209 -104.083984375 -208.04296875 -116.981445312 -203.743164062 c 2
 -121 -202.404296875 l 1
 -120.33984375 -198.219726562 l 1
 -114.33984375 -160.219726562 l 1
 -113.383789062 -154.166015625 l 1
 -107.64453125 -156.318359375 l 2
 -100.737304688 -158.909179688 -86.03515625 -161 -67.400390625 -161 c 0
 -22.8125 -161 11.9673838705 -133.51171875 34.9378407266 -26.0595703125 c 2
 139.688476562 475.940429688 l 1
 140.465820312 480 l 1
229.59375 612.76171875 m 2
 228.50390625 589.877929688 212.903320312 568 186.599609375 568 c 2
 185.599609375 568 l 2
 160.993164062 568 146.512695312 590.307617188 147.604492188 613.2265625 c 0
 148.694335938 637.209960938 165.33203125 658 189.599609375 658 c 0
 214.987304688 658 229.599609375 636.8515625 229.599609375 613 c 2
 229.599609375 612.880859375 l 1
 229.59375 612.76171875 l 2
EndSplineSet
EndChar

StartChar: k
Encoding: 107 107 76
Width: 431
Flags: HW
LayerCount: 2
Fore
SplineSet
93.1923828125 0 m 1
 89.048828125 0 l 1
 44.048828125 0 l 1
 38 0 l 1
 39.1376953125 5.857421875 l 1
 176.117741442 705.940429688 l 1
 176.93953882 710 l 1
 181.309725128 710 l 1
 228.883121083 710 l 1
 235.280958209 710 l 1
 234.074072361 704.056640625 l 1
 144.645507812 260.040039062 l 1
 158.536852559 274.133789062 172.596195139 286.643554688 183.008037548 295.671875 c 2
 389.655273438 478.671875 l 1
 391.091796875 480 l 1
 393.048828125 480 l 1
 450.048828125 480 l 1
 462.866210938 480 l 1
 453.434570312 471.498046875 l 1
 237.5646464 282.045898438 l 1
 390.4765625 7.173828125 l 1
 394.318359375 0 l 1
 386.048828125 0 l 1
 337.773338493 0 l 1
 334.57906577 0 l 1
 333.093429555 2.6748046875 l 1
 193.441560542 254.149414062 l 1
 131.6328125 203.33203125 l 1
 93.9619140625 4.0712890625 l 1
 93.1923828125 0 l 1
EndSplineSet
EndChar

StartChar: l
Encoding: 108 108 77
Width: 216
Flags: HW
LayerCount: 2
Fore
SplineSet
93.173828125 -0 m 1
 89.0400390625 0 l 1
 44.0400390625 0 l 1
 38 0 l 1
 39.1279296875 5.8515625 l 1
 174.127929688 705.93359375 l 1
 174.901367188 710 l 1
 179.040039062 710 l 1
 225.040039062 710 l 1
 231.088867188 710 l 1
 229.951171875 704.059570312 l 1
 93.951171875 4.0595703125 l 1
 93.173828125 -0 l 1
EndSplineSet
EndChar

StartChar: m
Encoding: 109 109 78
Width: 814
Flags: HW
LayerCount: 2
Fore
SplineSet
93.1806640625 0 m 1
 89.02734375 0 l 1
 44.02734375 0 l 1
 38 0 l 1
 39.1142578125 5.8017578125 l 1
 105.12109375 349.611328125 l 2
 115.10546875 397.528320312 121.072265625 438.44921875 126.0703125 475.65234375 c 2
 126.642578125 480 l 1
 131.02734375 480 l 1
 173.347055868 480 l 1
 179.30416301 480 l 1
 178.393592305 474.236328125 l 1
 165.873993116 394.963867188 l 1
 212.740957591 457.4296875 272.066683562 491 336.751113145 491 c 0
 407.018647663 491 446.094398177 449.350585938 453.977367346 384.762695312 c 1
 498.319068924 452.012695312 559.274447175 490.037109375 636.974153537 491 c 0
 682.829101562 491 758.02734375 461.979492188 758.02734375 364.595703125 c 0
 758.02734375 341.749023438 756.022460938 313.193359375 750.947265625 284.346679688 c 2
 695.9375 4.0556640625 l 1
 695.158203125 0 l 1
 691.02734375 0 l 1
 646.02734375 0 l 1
 639.995117188 0 l 1
 641.114257812 5.7958984375 l 1
 695.129882812 285.532226562 l 2
 699.068359375 302.864257812 702.02734375 327.9765625 702.02734375 348.106445312 c 0
 702.02734375 407.354492188 681.884765625 441 618.623111948 441 c 0
 552.536423427 441 466.046169208 371.958007812 444.920529919 262.180664062 c 2
 394.878037377 4.087890625 l 1
 394.104102145 -0 l 1
 389.85743176 0 l 1
 343.900040651 0 l 1
 337.72551356 0 l 1
 338.88442173 5.806640625 l 1
 396.088807187 292.37109375 l 2
 401.170250496 314.751953125 403.134011414 331.778320312 403.134011414 351.040039062 c 0
 403.134011414 394.291015625 392.173253422 441 317.346881343 441 c 0
 252.628542227 441 160.716752027 358.379882812 141.947265625 255.352539062 c 2
 93.9423828125 4.08203125 l 1
 93.1806640625 0 l 1
EndSplineSet
EndChar

StartChar: n
Encoding: 110 110 79
Width: 536
Flags: HW
LayerCount: 2
Fore
SplineSet
93.1962890625 -0 m 1
 89.02734375 0 l 1
 44.02734375 0 l 1
 38 0 l 1
 39.1142578125 5.8017578125 l 1
 105.12109375 349.611328125 l 2
 115.10546875 397.528320312 121.072265625 438.44921875 126.0703125 475.65234375 c 2
 126.642578125 480 l 1
 131.02734375 480 l 1
 173.809906455 480 l 1
 179.892220349 480 l 1
 179.015832891 474.279296875 l 1
 166.105299715 390.014648438 l 1
 211.495594573 452.268554688 279.743882594 491 354.766964165 491 c 0
 399.642578125 491 480.02734375 466.848632812 480.02734375 354.796875 c 0
 480.02734375 332.66015625 475.969726562 306.026367188 470.94140625 279.418945312 c 2
 417.94140625 4.0732421875 l 1
 417.172851562 -0 l 1
 413.02734375 0 l 1
 368.02734375 0 l 1
 361.991210938 0 l 1
 363.115234375 5.798828125 l 1
 417.09765625 284.387695312 l 2
 420.072265625 303.778320312 424.02734375 327.228515625 424.02734375 348.106445312 c 0
 424.02734375 402.366210938 402.830078125 441 335.829597661 441 c 0
 267.667612742 441 161.788089752 366.887695312 138.946289062 244.595703125 c 2
 93.9462890625 4.1005859375 l 1
 93.1962890625 -0 l 1
EndSplineSet
EndChar

StartChar: o
Encoding: 111 111 80
Width: 520
Flags: HW
LayerCount: 2
Fore
SplineSet
38 186.07421875 m 0
 38 338.825195312 146.217773438 491 303.881188119 491 c 0
 440.697265625 491 490 385.44921875 490 289.0234375 c 0
 490 159.014648438 393.01953125 -11 224.118811881 -11 c 0
 98.5615234375 -11 38 86.283203125 38 186.07421875 c 0
433 289.783203125 m 0
 433 351.512695312 403.670898438 443 300.732673267 443 c 0
 181.184425278 443 95 317.612304688 95 190.241210938 c 0
 95 102.247070312 146.397460938 38 230.415841584 38 c 0
 340.457050588 38 433 164.454101562 433 289.783203125 c 0
EndSplineSet
Substitution2: "'ordn' Ordinals lookup 18 subtable" ordmasculine
Substitution2: "'aalt' Access All Alternates lookup 0 subtable" ordmasculine
EndChar

StartChar: p
Encoding: 112 112 81
Width: 523
Flags: HW
LayerCount: 2
Fore
SplineSet
47.22265625 -198 m 1
 43.0458984375 -198 l 1
 -2.9541015625 -198 l 1
 -9 -198 l 1
 -7.865234375 -192.061523438 l 1
 91.1337890625 318.288085938 l 2
 102.12109375 375.365234375 111.10760641 428.477539062 117.325429602 475.620117188 c 2
 117.893916294 480 l 1
 122.482416022 480 l 1
 167.181712484 480 l 1
 173.249292766 480 l 1
 172.318395808 474.232421875 l 1
 158.542745077 388.923828125 l 1
 207.558479778 452.569335938 274.067362114 491 343.899861289 491 c 0
 453.846679688 491 494.045898438 402.982421875 494.045898438 321.37890625 c 0
 494.045898438 152.717773438 364.332897244 -11 199.406786678 -11 c 0
 141.172431174 -11 105.327148438 0.060546875 84.9248046875 10.3564453125 c 1
 47.9658203125 -193.890625 l 1
 47.22265625 -198 l 1
330.386120498 442 m 0
 258.200492481 442 155.399825794 363.693359375 124.475164908 208.860351562 c 2
 96.54296875 62.650390625 l 1
 121.931186962 46.4482421875 157.186498255 38 203.564860768 38 c 0
 329.369950536 38 437.045898438 178.290039062 437.045898438 318.067382812 c 0
 437.045898438 373.83984375 412.91796875 442 330.386120498 442 c 0
EndSplineSet
EndChar

StartChar: q
Encoding: 113 113 82
Width: 523
Flags: HW
LayerCount: 2
Fore
SplineSet
361.875509354 -198 m 1
 357.526366028 -198 l 1
 310.29362399 -198 l 1
 303.942624215 -198 l 1
 305.139843023 -192.057617188 l 1
 360.90071904 84.751953125 l 1
 315.013823146 24.337890625 245.826261192 -11 181.190795754 -11 c 0
 76.072265625 -11 36 76.1611328125 36 160.58203125 c 0
 36 324.428710938 165.909855686 491 341.782118682 491 c 0
 404.858398438 491 456.584960938 475.141601562 484.6640625 457.716796875 c 2
 487.545898438 455.928710938 l 1
 486.913085938 452.631835938 l 1
 362.683222044 -193.928710938 l 1
 361.875509354 -198 l 1
186.438878202 38 m 0
 283.287524718 38 372.326171875 140.654296875 392.084960938 242.848632812 c 2
 426.430664062 423.833007812 l 1
 409.337890625 432.663085938 377.572265625 442 335.484419744 442 c 0
 208.99025749 442 93 321.885742188 93 165.806640625 c 0
 92.0146484375 84.0908203125 129.80078125 38 186.438878202 38 c 0
EndSplineSet
EndChar

StartChar: r
Encoding: 114 114 83
Width: 297
Flags: HW
LayerCount: 2
Fore
SplineSet
93.19140625 -0 m 1
 89.0478515625 0 l 1
 44.0478515625 0 l 1
 38 0 l 1
 39.13671875 5.8173828125 l 1
 101.12890625 323.108398438 l 2
 111.100585938 378.776367188 119.103515625 430.6953125 125.08984375 475.646484375 c 2
 125.657226562 480 l 1
 130.047851562 480 l 1
 171.047851562 480 l 1
 176.836914062 480 l 1
 175.994140625 474.272460938 l 2
 172.076171875 447.62890625 168.506835938 419.217773438 163.990234375 390.384765625 c 1
 195.1640625 447.997070312 242.15234375 491 301.047851562 491 c 0
 308.51171875 491 318.495117188 490.009765625 324.028320312 488.903320312 c 2
 328.91015625 487.926757812 l 1
 327.954101562 483.040039062 l 1
 318.954101562 437.040039062 l 1
 317.794921875 431.115234375 l 1
 312.190429688 433.357421875 l 2
 308.6484375 434.774414062 302.119140625 435 292.047851562 435 c 0
 236.40625 435 159.836914062 350.350585938 137.96484375 231.807617188 c 2
 93.9609375 4.072265625 l 1
 93.19140625 -0 l 1
EndSplineSet
EndChar

StartChar: s
Encoding: 115 115 84
Width: 356
Flags: HW
LayerCount: 2
Fore
SplineSet
16 23.486328125 m 1
 17.654296875 27.087890625 l 1
 34.654296875 64.087890625 l 1
 37.15625 69.5322265625 l 1
 42.0654296875 66.095703125 l 2
 61.2548828125 52.6630859375 94.470703125 39 129.198242188 39 c 0
 191.751953125 39 234.198242188 82.0283203125 234.198242188 131.943359375 c 0
 234.198242188 175.20703125 218.86328125 200.58984375 165.625976562 231.455078125 c 0
 109.42578125 264.444335938 86.1982421875 308.154296875 86.1982421875 352.073242188 c 0
 86.1982421875 427.431640625 151.76953125 491 242.198242188 491 c 0
 278.2734375 491 313.883789062 478.963867188 330.155273438 467.032226562 c 2
 333.37890625 464.666992188 l 1
 331.78125 461.001953125 l 1
 314.78125 422.001953125 l 1
 312.314453125 416.34375 l 1
 307.291992188 419.931640625 l 2
 294.06640625 429.377929688 266.86328125 442 236.198242188 442 c 0
 180.596679688 442 141.198242188 403.810546875 141.198242188 357.857421875 c 0
 141.198242188 316.221679688 164.108398438 293.366210938 208.770507812 267.147460938 c 0
 264.947265625 234.168945312 290.198242188 189.493164062 290.198242188 142.609375 c 0
 290.198242188 46.59765625 212.390625 -11 125.198242188 -11 c 0
 77.990234375 -11 38.1533203125 6.255859375 19.1279296875 21.0537109375 c 2
 16 23.486328125 l 1
EndSplineSet
EndChar

StartChar: t
Encoding: 116 116 85
Width: 302
Flags: HW
LayerCount: 2
Fore
SplineSet
165.626953125 566.70703125 m 1
 168.310546875 567.693359375 l 1
 217.310546875 585.693359375 l 1
 225.58203125 588.731445312 l 1
 223.948242188 580.073242188 l 1
 205.06640625 480 l 1
 321.034179688 480 l 1
 327.069335938 480 l 1
 325.947265625 474.0703125 l 1
 318.947265625 437.0703125 l 1
 318.177734375 433 l 1
 314.034179688 433 l 1
 195.186523438 433 l 1
 143.94921875 165.841796875 l 2
 137.953125 134.653320312 134.034179688 111.66796875 134.034179688 82.8642578125 c 0
 134.034179688 53.6728515625 147.807617188 38 177.034179688 38 c 0
 192.618164062 38 205.151367188 39.955078125 214.59765625 42.7890625 c 2
 220.341796875 44.5126953125 l 1
 221.00390625 38.5517578125 l 1
 225.00390625 2.5517578125 l 1
 225.4296875 -1.2822265625 l 1
 221.829101562 -2.6669921875 l 2
 207.98046875 -7.9931640625 188.532226562 -11 168.034179688 -11 c 0
 100.763671875 -11 77.0341796875 36.216796875 77.0341796875 78.9736328125 c 0
 77.0341796875 107.76171875 81.1142578125 136.576171875 88.1337890625 168.9375 c 2
 139.983398438 433 l 1
 73.0341796875 433 l 1
 67 433 l 1
 68.1220703125 438.9296875 l 1
 75.1220703125 475.9296875 l 1
 75.8916015625 480 l 1
 80.0341796875 480 l 1
 149.861328125 480 l 1
 165.115234375 563.89453125 l 1
 165.626953125 566.70703125 l 1
EndSplineSet
EndChar

StartChar: u
Encoding: 117 117 86
Width: 526
Flags: HW
LayerCount: 2
Fore
SplineSet
438.8515625 480 m 1
 443 480 l 1
 488 480 l 1
 494.044921875 480 l 1
 492.911132812 474.184570312 l 1
 425.9140625 130.431640625 l 2
 416.939453125 83.5537109375 410.966796875 41.6025390625 407.984375 4.6064453125 c 2
 407.62109375 0 l 1
 403 0 l 1
 359.24911504 0 l 1
 353.123803268 0 l 1
 354.041468384 5.7490234375 l 1
 366.914499321 86.3974609375 l 1
 324.233812477 29.8408203125 258.990086035 -11 191.748483298 -11 c 0
 137.544921875 -11 57 11.27734375 57 133.041992188 c 0
 57 154.0859375 60.0625 177.921875 66.087890625 208.4296875 c 2
 118.087890625 475.935546875 l 1
 118.862304688 480 l 1
 123 480 l 1
 168 480 l 1
 174.038085938 480 l 1
 172.912109375 474.19921875 l 1
 120.908203125 206.264648438 l 2
 114.922851562 177.004882812 112 155.927734375 112 133.866210938 c 0
 112 75.8876953125 134.956054688 40 203.336577318 40 c 0
 270.460899984 40 368.14388252 114.114257812 389.0859375 220.775390625 c 2
 438.0859375 475.922851562 l 1
 438.8515625 480 l 1
EndSplineSet
EndChar

StartChar: v
Encoding: 118 118 87
Width: 440
Flags: HW
LayerCount: 2
Fore
SplineSet
55 480 m 1
 60.962890625 480 l 1
 105.962890625 480 l 1
 110.174804688 480 l 1
 110.890625 475.849609375 l 1
 164.889648438 162.852539062 l 2
 172.163085938 120.831054688 177.693903397 87.9970703125 180.647472598 66.5283203125 c 1
 190.570637493 86.939453125 202.583543118 113.192382812 227.530081719 155.418945312 c 2
 412.586914062 477.418945312 l 1
 414.013671875 480 l 1
 416.962890625 480 l 1
 464.962890625 480 l 1
 473.481445312 480 l 1
 469.329101562 472.71484375 l 1
 192.298294433 2.5625 l 1
 190.782715141 0 l 1
 187.672932648 0 l 1
 145.962890625 0 l 1
 141.770507812 0 l 1
 141.040039062 4.1279296875 l 1
 56.0400390625 474.249023438 l 1
 55 480 l 1
EndSplineSet
EndChar

StartChar: w
Encoding: 119 119 88
Width: 711
Flags: HW
LayerCount: 2
Fore
SplineSet
67 480 m 1
 72.4794921875 480 l 1
 115.479492188 480 l 1
 120.064453125 480 l 1
 120.4609375 475.432617188 l 1
 147.458984375 164.453125 l 2
 152.256835938 114.072265625 153.22265625 89.5126953125 153.430664062 66.5400390625 c 1
 162.9453125 88.9189453125 175.864257812 118.055664062 196.28995759 155.366210938 c 2
 373.383960285 477.366210938 l 1
 374.831486228 480 l 1
 377.892483768 480 l 1
 422.933733009 480 l 1
 427.420263695 480 l 1
 428.008071191 475.654296875 l 1
 470.99799223 157.6796875 l 2
 476.34324169 119.638671875 480.06202381 88.4111328125 481.930411923 67.9833984375 c 1
 491.634233975 93.6943359375 501.718931293 119.2890625 517.63471896 151.203125 c 2
 679.991210938 477.203125 l 1
 681.36328125 480 l 1
 684.479492188 480 l 1
 731.479492188 480 l 1
 739.569335938 480 l 1
 735.951171875 472.912109375 l 1
 493.025778252 2.763671875 l 1
 491.611241505 0 l 1
 488.448277358 0 l 1
 446.478022384 0 l 1
 442.001488424 0 l 1
 441.404683875 4.333984375 l 1
 397.39109808 324.3046875 l 2
 392.291768083 358.346679688 388.623969266 390.701171875 388.03616177 419.611328125 c 1
 373.420948172 390.193359375 359.533496235 358.536132812 339.401089487 322.622070312 c 2
 162.877929688 2.6220703125 l 1
 161.459960938 -0 l 1
 158.479492188 0 l 1
 116.479492188 0 l 1
 111.916992188 0 l 1
 111.5 4.5439453125 l 1
 67.5 474.65625 l 1
 67 480 l 1
EndSplineSet
EndChar

StartChar: x
Encoding: 120 120 89
Width: 425
Flags: HW
LayerCount: 2
Fore
SplineSet
74.9912109375 480 m 1
 82.880859375 480 l 1
 132.564322333 480 l 1
 135.887149847 480 l 1
 137.286235116 477.104492188 l 1
 197.679743635 352.095703125 l 2
 209.289304392 327.934570312 219.115438142 305.524414062 229.509950282 283.426757812 c 1
 248.166793015 308.890625 256.825666671 320.625976562 281.64417854 349.231445312 c 2
 395.090820312 478.260742188 l 1
 396.586914062 480 l 1
 398.880859375 480 l 1
 451.880859375 480 l 1
 462.837890625 480 l 1
 455.657226562 471.892578125 l 1
 251.159167977 245.0703125 l 1
 368.41015625 6.97265625 l 1
 371.737304688 0 l 1
 363.880859375 0 l 1
 313.729596235 0 l 1
 310.385416402 0 l 1
 308.995482127 2.919921875 l 1
 247.60349851 131.841796875 l 2
 230.216610356 165.23828125 222.726013571 182.606445312 211.444871813 210.047851562 c 1
 196.214567856 187.951171875 182.210497064 169.349609375 162.613135527 145.821289062 c 2
 37.6953125 1.767578125 l 1
 36.1982421875 -0 l 1
 33.880859375 0 l 1
 -19.119140625 0 l 1
 -30 0 l 1
 -22.9130859375 8.087890625 l 1
 190.969014874 247.637695312 l 1
 78.359375 473.010742188 l 1
 74.9912109375 480 l 1
EndSplineSet
EndChar

StartChar: y
Encoding: 121 121 90
Width: 426
Flags: HW
LayerCount: 2
Fore
SplineSet
149.835856112 3.32421875 m 0
 154.405227295 11.1123046875 153.457671193 13.669921875 152.385329865 21.794921875 c 2
 52.3837890625 474.067382812 l 1
 51.111328125 480 l 1
 57.2763671875 480 l 1
 104.53070315 480 l 1
 108.771371788 480 l 1
 109.619505516 476 l 1
 170.913399564 186.99609375 l 2
 182.096387698 134.069335938 189.363351683 98.1044921875 194.990860998 64.5908203125 c 1
 208.870427419 94.7763671875 224.273793911 126.918945312 248.411111672 175.17578125 c 2
 397.774414062 477.17578125 l 1
 399.139648438 480 l 1
 402.276367188 480 l 1
 450.276367188 480 l 1
 458.318359375 480 l 1
 454.759765625 472.903320312 l 1
 266.064670279 101.946289062 l 2
 220.342552051 13.361328125 175.416827336 -68.908203125 106.173201361 -135.48828125 c 0
 52.1845703125 -190.1875 -2.5390625 -213.6171875 -28.5576171875 -219.862304688 c 2
 -33.017578125 -220.932617188 l 1
 -34.4677734375 -216.581054688 l 1
 -47.4677734375 -177.581054688 l 1
 -49 -172.983398438 l 1
 -44.4521484375 -171.30859375 l 2
 -25.6181640625 -164.369140625 11.7607421875 -149.590820312 46.109375 -121.129882812 c 0
 78.8330628126 -95.0302734375 118.966223258 -51.2353515625 149.835856112 3.32421875 c 0
EndSplineSet
EndChar

StartChar: z
Encoding: 122 122 91
Width: 413
Flags: HW
LayerCount: 2
Fore
SplineSet
-19 0 m 1
 -17.9912109375 5.7177734375 l 1
 -12.9912109375 34.0625 l 1
 -12.7490234375 35.4384765625 l 1
 -11.7998046875 36.48046875 l 1
 278.23430219 346.307617188 l 2
 318.553049643 389.430664062 342.484375 411.356445312 364.84375 433 c 1
 90.935546875 433 l 1
 84.7392578125 433 l 1
 86.048828125 439.056640625 l 1
 94.048828125 476.056640625 l 1
 94.9013671875 480 l 1
 98.935546875 480 l 1
 434.935546875 480 l 1
 441.147460938 480 l 1
 439.8203125 474.068359375 l 1
 432.8203125 442.79296875 l 1
 432.541015625 441.545898438 l 1
 431.673828125 440.590820312 l 1
 144.642581166 133.680664062 l 2
 103.122793153 90.439453125 80.9189453125 68.4736328125 60.00390625 48 c 1
 352.935546875 48 l 1
 359.09765625 48 l 1
 357.828125 41.9697265625 l 1
 349.828125 3.9697265625 l 1
 348.993164062 -0 l 1
 344.935546875 0 l 1
 -13.064453125 0 l 1
 -19 0 l 1
EndSplineSet
EndChar

StartChar: braceleft
Encoding: 123 123 92
Width: 265
Flags: MW
LayerCount: 2
Fore
SplineSet
29.0760822059 271.86892667 m 1
 35.0760822059 305.86892667 l 1
 35.8158888579 310.061164364 l 1
 40.0724561592 309.999474983 l 2
 106.116377319 309.042316705 123.271692936 346.958878868 130.08298682 384.907516221 c 0
 140.905578862 441.97209244 133.900611828 497.929036381 145.085028706 557.918181451 c 0
 162.505107622 651.166839178 222.995394862 691 301 691 c 2
 316 691 l 1
 322.065866895 691 l 1
 320.908076948 685.045651704 l 1
 313.908076948 649.045651704 l 1
 313.12142245 645 l 1
 309 645 l 1
 291 645 l 2
 235.820655734 645 207.649398764 612.730641982 195.912915156 553.070183637 c 0
 186.12473121 499.235171938 194.101298899 446.069311045 183.924432251 392.131917809 c 0
 174.491802144 334.592874155 144.86913561 301.324555327 108.826508694 286.837142367 c 1
 139.931267453 272.07270879 148 243.286464477 148 218 c 0
 148 179.841376822 134.764953036 137.460489616 119.65058819 98.1631410181 c 0
 104.631564955 61.116217036 91 24.5315661049 91 -3 c 0
 91 -40.3845329176 106.251212459 -69.0640243492 153.049995001 -70 c 2
 171 -70 l 1
 177.065866895 -70 l 1
 175.908076948 -75.9543482955 l 1
 168.908076948 -111.954348296 l 1
 168.12142245 -116 l 1
 164 -116 l 1
 153 -116 l 2
 85.8134524575 -116 40 -75.9228440691 40 -11 c 0
 40 30.1628889688 54.2746324872 71.6352971822 68.3010737622 110.70895502 c 0
 82.3661869783 148.885690892 97 185.504850599 97 215 c 0
 97 216.301549085 97.0089693988 217.827517917 96.9632077884 219.557452306 c 0
 96.5557966796 234.958887714 93.1489621288 267.712362712 34.1448666934 266.002099076 c 2
 28.0093761059 265.82425877 l 1
 29.0760822059 271.86892667 l 1
EndSplineSet
Substitution2: "'case' Case-Sensitive Forms lookup 7 subtable" braceleft.cap
Substitution2: "'aalt' Access All Alternates lookup 0 subtable" braceleft.cap
EndChar

StartChar: bar
Encoding: 124 124 93
Width: 203
Flags: MW
LayerCount: 2
Fore
SplineSet
100 755 m 1
 140 755 l 1
 145 755 l 1
 145 750 l 1
 145 -250 l 1
 145 -255 l 1
 140 -255 l 1
 100 -255 l 1
 95 -255 l 1
 95 -250 l 1
 95 750 l 1
 95 755 l 1
 100 755 l 1
EndSplineSet
EndChar

StartChar: braceright
Encoding: 125 125 94
Width: 265
Flags: MW
LayerCount: 2
Fore
SplineSet
248.923917794 301.13107333 m 1
 242.923917794 267.13107333 l 1
 242.172864827 262.875106519 l 1
 237.853004742 263.002161228 l 2
 172.892008481 264.912778765 155.740056874 227.106584359 148.909685894 189.051660331 c 0
 137.095399892 131.949277986 144.099851669 76.073447885 132.919143476 16.104194847 c 0
 116.507960498 -76.2087094049 54.9569383389 -116 -23 -116 c 2
 -38 -116 l 1
 -44.0658668947 -116 l 1
 -42.9080769483 -110.045651704 l 1
 -35.9080769483 -74.0456517045 l 1
 -35.1214224502 -70 l 1
 -31 -70 l 1
 -13 -70 l 2
 42.2471337259 -70 70.3603919334 -38.6808726013 82.0870848445 20.9298163634 c 0
 91.89887099 74.8946401636 84.8979109567 127.820320202 94.0773131462 181.876799763 c 0
 104.478096593 237.66282007 133.046358019 272.285985804 170.18632223 286.443339074 c 1
 139.019616504 302.176272701 131 331.681195681 131 357 c 0
 131 392.304326271 145.272358084 433.627894598 159.287292547 473.670564491 c 0
 173.316258697 512.751255911 187 550.500230716 187 577 c 0
 187 615.354526208 171.743022336 643.126280705 124.900039968 645 c 2
 107 645 l 1
 100.934133105 645 l 1
 102.091923052 650.954348296 l 1
 109.091923052 686.954348296 l 1
 109.87857755 691 l 1
 114 691 l 1
 125 691 l 2
 192.142451704 691 239 650.987145477 239 586 c 0
 239 541.898629173 224.7147707 500.330015542 209.658842 461.184600922 c 0
 194.64840407 423.158158166 182 388.652077017 182 359 c 0
 182 346.342930721 179.799290302 306.056412544 243.926478538 306.99945943 c 2
 249.975212748 307.088411404 l 1
 248.923917794 301.13107333 l 1
EndSplineSet
Substitution2: "'case' Case-Sensitive Forms lookup 7 subtable" braceright.cap
Substitution2: "'aalt' Access All Alternates lookup 0 subtable" braceright.cap
EndChar

StartChar: asciitilde
Encoding: 126 126 95
Width: 596
Flags: MW
LayerCount: 2
Fore
SplineSet
111 219 m 1
 73 219 l 1
 68.3141450068 219 l 1
 68.010508187 223.676007025 l 2
 62.8383079066 303.327891343 116.120476459 353 179 353 c 0
 210.051191804 353 250.842851756 343.668744066 313.236067977 312.472135955 c 0
 363.074097191 287.553121348 407.377415359 270 450 270 c 0
 489.342256455 270 508 298.177802905 508 347 c 2
 508 352 l 1
 513 352 l 1
 550 352 l 1
 554.729932327 352 l 1
 554.992301766 347.277350098 l 2
 560.147155254 254.489987307 503.397350372 218 446 218 c 0
 415.961711973 218 371.279188881 227.274211922 307.778174349 258.520742882 c 0
 261.760406868 281.529626622 217.45874599 302 174 302 c 0
 142.43585301 302 116 276.290541214 116 224 c 2
 116 219 l 1
 111 219 l 1
EndSplineSet
EndChar

StartChar: exclamdown
Encoding: 161 161 96
Width: 215
Flags: MW
LayerCount: 2
Fore
SplineSet
55 -202 m 1
 -2 -202 l 1
 -8.16480908868 -202 l 1
 -6.89232735585 -195.96794717 l 1
 97.1076726441 297.03205283 l 1
 97.9447243799 301 l 1
 102 301 l 1
 141 301 l 1
 146.947716046 301 l 1
 145.925618149 295.14076438 l 1
 59.9256181489 -197.85923562 l 1
 59.2032941395 -202 l 1
 55 -202 l 1
151 490 m 2
 152 490 l 2
 178.4299078 490 196 466.019515526 196 441 c 0
 196 412.699898966 176.152776088 390 149 390 c 0
 120.753325415 390 104 412.974258633 104 439 c 0
 104 464.129883657 122.56005069 490 151 490 c 2
EndSplineSet
Substitution2: "'case' Case-Sensitive Forms lookup 7 subtable" exclamdown.cap
Substitution2: "'aalt' Access All Alternates lookup 0 subtable" exclamdown.cap
EndChar

StartChar: cent
Encoding: 162 162 97
Width: 462
Flags: MW
LayerCount: 2
Fore
SplineSet
244 -21 m 1
 204 -21 l 1
 197.889470656 -21 l 1
 199.098917528 -15.010358347 l 1
 219.082043649 83.953694823 l 1
 164.76857377 94.1607705219 131.823080738 118.250050935 107.88712282 153.156656231 c 0
 84.1007302771 187.284958576 75 231.290473542 75 271 c 0
 75 422.287360717 183.788496302 556.798778653 316.742687028 574.518216316 c 1
 335.081408916 674.898588756 l 1
 335.830705201 679 l 1
 340 679 l 1
 380 679 l 1
 386.064261255 679 l 1
 384.908324794 673.046927224 l 1
 366.037902225 575.864250992 l 1
 401.949501198 574.143198082 441.507370788 560.443423064 457.274652692 546.778445414 c 2
 460.379987235 544.087155476 l 1
 458.341215711 540.519305308 l 1
 438.341215711 505.519305308 l 1
 435.872140134 501.198423049 l 1
 431.539713717 503.647185806 l 2
 409.059272566 516.353522109 378.070269537 529 331 529 c 0
 237.713533162 529 131 417.975946899 131 271 c 0
 131 192.812498301 171.204751291 131 260 131 c 0
 307.020415084 131 344.277646646 144.710745872 367.916726448 155.545324114 c 2
 373.390363432 158.054074399 l 1
 374.850712501 152.212678125 l 1
 383.850712501 116.212678125 l 1
 384.705310054 112.79428791 l 1
 381.773500981 110.839748528 l 2
 362.730916841 98.1446924351 313.092485625 84.924776378 268.144329521 84.0357820755 c 1
 248.911692832 -16.9355605394 l 1
 248.137513887 -21 l 1
 244 -21 l 1
EndSplineSet
Substitution2: "'frac' Diagonal Fractions lookup 20 subtable" cent.numerator
Substitution2: "'dnom' Denominators lookup 14 subtable" cent.denominator
Substitution2: "'numr' Numerators lookup 13 subtable" cent.numerator
Substitution2: "'sinf' Scientific Inferiors lookup 12 subtable" cent.inferior
Substitution2: "'sups' Superscript lookup 11 subtable" cent.superior
Substitution2: "'onum' Oldstyle Figures lookup 6 subtable" cent.taboldstyle
AlternateSubs2: "'aalt' Access All Alternates lookup 1 subtable" cent.taboldstyle cent.superior cent.inferior cent.numerator cent.denominator
EndChar

StartChar: sterling
Encoding: 163 163 98
Width: 462
Flags: MW
LayerCount: 2
Fore
SplineSet
407 -5 m 1
 31 -5 l 1
 25.0089364148 -5 l 1
 26.0806504495 0.894427191 l 1
 32.0806504495 33.894427191 l 1
 32.527864045 36.3541019662 l 1
 34.7639320225 37.472135955 l 2
 105.190656457 72.6854981722 153.336364607 143.300706775 167.083589975 218.910446301 c 0
 171.684059992 243.752984393 172.976445229 275.509039876 174.71951706 308 c 1
 92 308 l 1
 85.9653593557 308 l 1
 87.0871487715 313.929458341 l 1
 94.0871487715 350.929458341 l 1
 94.8572512476 355 l 1
 99 355 l 1
 178.146814938 355 l 1
 179.151661535 389.056550095 180.414401146 434.748614433 189.077862122 482.878953192 c 0
 209.376365505 596.550572136 278.274179006 666 384 666 c 0
 420.026655213 666 451.714857938 654.8660135 467.773500981 644.160251472 c 2
 471.245548484 641.845553137 l 1
 469.58928518 638.015444247 l 1
 453.58928518 601.015444247 l 1
 451.397960247 595.94800534 l 1
 446.571785344 598.629213619 l 2
 429.374095467 608.183485774 400.999214158 617 373 617 c 0
 299.173577153 617 255.726297288 563.92954756 241.93720316 480.210047494 c 0
 234.368554169 432.905991306 232.143501501 390.057067765 231.138980143 355 c 1
 382 355 l 1
 388.034640644 355 l 1
 386.912851228 349.070541659 l 1
 379.912851228 312.070541659 l 1
 379.142748752 308 l 1
 375 308 l 1
 229.65687444 308 l 1
 227.62569475 279.413572992 225.695357849 251.873816958 219.91594368 220.087039031 c 0
 207.218240065 151.714788795 171.734726295 90.8553473101 116.447742168 45 c 1
 415 45 l 1
 421.099019514 45 l 1
 419.902903378 39.0194193243 l 1
 411.902903378 -0.980580675691 l 1
 411.099019514 -5 l 1
 407 -5 l 1
EndSplineSet
Substitution2: "'onum' Oldstyle Figures lookup 6 subtable" sterling.taboldstyle
Substitution2: "'aalt' Access All Alternates lookup 0 subtable" sterling.taboldstyle
EndChar

StartChar: fraction
Encoding: 8260 8260 99
Width: 141
Flags: MW
LayerCount: 2
Fore
SplineSet
-130 -16 m 1
 -175 -16 l 1
 -184.786644544 -16 l 1
 -179.051487525 -8.06990634358 l 1
 306.948512475 663.930093656 l 1
 308.445498313 666 l 1
 311 666 l 1
 356 666 l 1
 365.786644544 666 l 1
 360.051487525 658.069906344 l 1
 -125.948512475 -13.9300936564 l 1
 -127.445498313 -16 l 1
 -130 -16 l 1
EndSplineSet
EndChar

StartChar: yen
Encoding: 165 165 100
Width: 462
Flags: MW
LayerCount: 2
Fore
SplineSet
204 -5 m 1
 160 -5 l 1
 153.971388028 -5 l 1
 155.086238246 0.924632588154 l 1
 188.971388028 181 l 1
 51 181 l 1
 44.9009804864 181 l 1
 46.0970966215 186.980580676 l 1
 53.0970966215 221.980580676 l 1
 53.9009804864 226 l 1
 58 226 l 1
 197.860035318 226 l 1
 210.961301141 295 l 1
 73 295 l 1
 66.9009804864 295 l 1
 68.0970966215 300.980580676 l 1
 75.0970966215 335.980580676 l 1
 75.9009804864 340 l 1
 80 340 l 1
 200.146095085 340 l 1
 101.23875756 648.473379408 l 1
 99.1460950849 655 l 1
 106 655 l 1
 151 655 l 1
 154.692873273 655 l 1
 155.778895044 651.470429244 l 1
 227.76893774 417.502790481 l 2
 236.861252124 389.316615889 243.697334815 367.689944635 249.951001408 343.66811594 c 1
 263.719547749 368.841648638 280.453548662 394.081180671 299.92567982 421.898510897 c 2
 466.947991951 652.929373784 l 1
 468.444938176 655 l 1
 471 655 l 1
 520 655 l 1
 529.91759725 655 l 1
 524.019819607 647.026609624 l 1
 296.91759725 340 l 1
 412 340 l 1
 418.099019514 340 l 1
 416.902903378 334.019419324 l 1
 409.902903378 299.019419324 l 1
 409.099019514 295 l 1
 405 295 l 1
 265.088858869 295 l 1
 251.114175324 226 l 1
 390 226 l 1
 396.099019514 226 l 1
 394.902903378 220.019419324 l 1
 387.902903378 185.019419324 l 1
 387.099019514 181 l 1
 383 181 l 1
 243.146891542 181 l 1
 208.913761754 -0.924632588154 l 1
 208.146891542 -5 l 1
 204 -5 l 1
EndSplineSet
Substitution2: "'onum' Oldstyle Figures lookup 6 subtable" yen.taboldstyle
Substitution2: "'aalt' Access All Alternates lookup 0 subtable" yen.taboldstyle
EndChar

StartChar: florin
Encoding: 402 402 101
Width: 482
Flags: HW
LayerCount: 2
Fore
SplineSet
132.191230868 352.452148438 m 1
 133.350447941 358.297851562 l 1
 140.58848625 394.771484375 l 1
 141.385195545 398.784179688 l 1
 145.668643998 398.784179688 l 1
 240.965779243 398.784179688 l 1
 255.448924258 450.333007812 l 2
 290.6131885 575.552734375 338.261251237 661 452.017578125 661 c 0
 483.717773438 659.977539062 501.754882812 653.860351562 513.877929688 645.043945312 c 2
 517.0703125 642.721679688 l 1
 515.551757812 639.077148438 l 1
 500.551757812 603.077148438 l 1
 498.594726562 598.379882812 l 1
 493.932617188 600.418945312 l 2
 478.166015625 607.317382812 462.072265625 613 438.936523438 613 c 0
 368.544282612 613 331.787609552 537.4921875 305.79913411 433.432617188 c 2
 296.974745608 398.100585938 l 1
 418.936523438 398.100585938 l 1
 424.971679688 398.100585938 l 1
 423.849609375 392.255859375 l 1
 416.849609375 355.782226562 l 1
 416.079101562 351.76953125 l 1
 411.936523438 351.76953125 l 1
 286.172215776 351.76953125 l 1
 229.25546531 139.568359375 l 2
 193.15514338 7.8017578125 148.840334613 -80 45.9365234375 -80 c 0
 20.0322265625 -80 -10.52734375 -72.15234375 -24.0634765625 -62 c 2
 -27 -59.7978515625 l 1
 -25.7783203125 -56.3359375 l 1
 -13.7783203125 -22.3359375 l 1
 -11.740234375 -16.5625 l 1
 -6.4912109375 -19.712890625 l 2
 7.1728515625 -27.91015625 30.5078125 -32 50.9365234375 -32 c 0
 108.849365137 -32 143.591545113 33.6435546875 170.651387554 134.850585938 c 2
 229.975432011 352.452148438 l 1
 138.430605688 352.452148438 l 1
 132.191230868 352.452148438 l 1
EndSplineSet
Substitution2: "'onum' Oldstyle Figures lookup 6 subtable" florin.taboldstyle
Substitution2: "'aalt' Access All Alternates lookup 0 subtable" florin.taboldstyle
EndChar

StartChar: section
Encoding: 167 167 102
Width: 468
Flags: MW
LayerCount: 2
Fore
SplineSet
139 359 m 2
 139 358 l 2
 139 321.0221085 149.978643378 295.086599529 224.279379349 256.450216824 c 0
 263.660462112 236.279418336 290.244244934 219.00342684 310.342398333 202.259171044 c 1
 345.914054356 226.850455813 370 263.350384733 370 301 c 0
 370 330.263851781 362.616659387 363.136888251 286.674154743 403.573806309 c 0
 260.523664171 417.133319939 228.944206036 435.943712216 204.587713715 454.051178654 c 1
 161.506223898 429.547565247 139 391.967446823 139 359 c 2
443.389477865 650.605739347 m 1
 425.389477865 617.605739347 l 1
 422.686719486 612.650682319 l 1
 418.093809031 615.931332644 l 2
 397.83140352 630.404479438 365.903987774 645 320 645 c 0
 263.825382604 645 210 606.282818336 210 553 c 0
 210 503.377541505 244.652600401 483.763869743 311.301820466 450.439259711 c 0
 378.616289739 414.270291146 422 377.849497831 422 312 c 0
 422 245.621984461 385.331954742 203.686592823 339.930022188 170.79348637 c 1
 353.419462337 149.813132627 359 126.231821438 359 102 c 0
 359 -4.6127669932 269.545768586 -56.017483839 177.97222308 -55 c 0
 123.008162349 -55 72.1856755955 -37.0200266303 50.7617578995 -18.8096965888 c 2
 47.8430578249 -16.3288015253 l 1
 49.4787567663 -12.864968473 l 1
 66.4787567663 23.135031527 l 1
 68.8520715933 28.1608746901 l 1
 73.5997347345 25.2709927781 l 2
 96.5607767111 11.2947063575 129.329509939 -9 183 -9 c 0
 254.170110952 -9 307 32.4436944506 307 95 c 0
 307 131.708942408 292.078087009 163.878699058 208.742737541 206.538461286 c 0
 130.586801058 245.616429527 85 285.953622546 85 348 c 0
 85 399.285301066 118.559719313 447.601506271 175.837786097 485.332123199 c 1
 163.726501414 502.901758844 157 522.011139849 157 546 c 0
 157 630.520152792 234.127231581 690 328 690 c 0
 379.125774509 690 423.929561464 671.888218661 442.178536264 656.859651178 c 2
 445.368001527 654.233032727 l 1
 443.389477865 650.605739347 l 1
EndSplineSet
EndChar

StartChar: currency
Encoding: 164 164 103
Width: 462
Flags: MW
LayerCount: 2
Fore
SplineSet
252 529 m 2
 253 529 l 2
 298.366992229 529 342.135165506 512.397552568 368.840992938 488.067324646 c 1
 431.386790714 553.45611323 l 1
 435.092975669 557.330761137 l 1
 438.699700367 553.36336397 l 1
 468.699700367 520.36336397 l 1
 472.053536413 516.67414432 l 1
 468.373845998 513.30985594 l 1
 401.730740288 452.379016434 l 1
 423.447694771 422.121627723 436 377.946853466 436 332 c 0
 436 281.166933665 421.443226144 236.25630896 402.668468422 210.494162569 c 1
 468.483164141 146.58713919 l 1
 472.06612008 143.108037047 l 1
 468.591201114 139.521023921 l 1
 437.591201114 107.521023921 l 1
 433.949439524 103.761786151 l 1
 430.360548905 107.571531577 l 1
 368.769448657 172.952853379 l 1
 336.681478387 144.1784816 291.531594205 131 252 131 c 0
 210.599299562 131 165.41149846 145.545946067 139.18137499 168.945988886 c 1
 80.6180411602 107.548945355 l 1
 77.0845028273 103.844429361 l 1
 73.4644660941 107.464466094 l 1
 41.4644660941 139.464466094 l 1
 37.8457545321 143.083177656 l 1
 41.5476212666 146.616777721 l 1
 104.330921748 206.546291817 l 1
 83.5172604631 235.279297396 68 277.059209125 68 326 c 0
 68 377.194512277 84.4214076095 421.911212818 107.242844806 452.447822511 c 1
 41.5997828308 513.334140864 l 1
 37.8516513887 516.810668579 l 1
 41.4104980327 520.48072918 l 1
 73.4104980327 553.48072918 l 1
 77.0806250504 557.265547667 l 1
 80.6658591356 553.400217169 l 1
 141.152097282 488.188491667 l 1
 169.054607424 514.43456271 210.751714521 529 252 529 c 2
252 482 m 2
 251 482 l 2
 167.663817348 482 122 409.406092766 122 329 c 0
 122 218.802138803 195.425676379 178 252 178 c 0
 316.564248902 178 383 217.58572797 383 331 c 0
 383 405.523180027 342.283683772 482 252 482 c 2
EndSplineSet
EndChar

StartChar: quotesingle
Encoding: 39 39 104
Width: 147
Flags: MW
LayerCount: 2
Fore
SplineSet
134 697 m 1
 191 697 l 1
 197.368815573 697 l 1
 195.857107665 690.813195412 l 1
 141.857107665 469.813195412 l 1
 140.925376659 466 l 1
 137 466 l 1
 105 466 l 1
 99.3010272868 466 l 1
 100.042499773 471.650531704 l 1
 129.042499773 692.650531704 l 1
 129.613244481 697 l 1
 134 697 l 1
EndSplineSet
EndChar

StartChar: quotedblleft
Encoding: 8220 8220 105
Width: 277
Flags: MW
LayerCount: 2
Fore
SplineSet
137.835541151 475.070307212 m 1
 78.8355411505 465.070307212 l 1
 69.807711009 463.54016651 l 1
 73.4011091596 471.962193425 l 2
 105.628511843 547.495168465 168.39437466 661.192499547 190 690 c 2
 191.242640687 691.656854249 l 1
 193.292893219 691.949747468 l 1
 228.292893219 696.949747468 l 1
 238.413341721 698.395525826 l 1
 233.341215711 689.519305308 l 2
 209.674037605 648.101743623 162.582631039 539.943979402 141.735722878 478.395964832 c 2
 140.778225306 475.569067238 l 1
 137.835541151 475.070307212 l 1
257.849534583 475.072699421 m 1
 199.849534583 465.072699421 l 1
 190.916496857 463.532520503 l 1
 194.379165602 471.909944885 l 2
 225.619376823 547.491101065 288.392599248 661.19013233 310 690 c 2
 311.242640687 691.656854249 l 1
 313.292893219 691.949747468 l 1
 348.292893219 696.949747468 l 1
 358.413341721 698.395525826 l 1
 353.341215711 689.519305308 l 2
 329.674037605 648.101743623 282.582631039 539.943979402 261.735722878 478.395964832 c 2
 260.781311263 475.578178159 l 1
 257.849534583 475.072699421 l 1
EndSplineSet
EndChar

StartChar: guillemotleft
Encoding: 171 171 106
Width: 377
Flags: MW
LayerCount: 2
Fore
SplineSet
248.777068018 428.72375868 m 1
 94.1284273918 250.434561525 l 1
 197.312764731 74.5298340603 l 1
 201.729706498 67 l 1
 193 67 l 1
 147 67 l 1
 144.169048105 67 l 1
 142.712535371 69.4275212229 l 1
 34.7125353714 249.427521223 l 1
 32.8476966201 252.535585808 l 1
 35.2215545861 255.274652692 l 1
 191.221554586 435.274652692 l 1
 192.716855586 437 l 1
 195 437 l 1
 245 437 l 1
 255.955907174 437 l 1
 248.777068018 428.72375868 l 1
393.777068018 428.72375868 m 1
 239.138733415 250.446442991 l 1
 343.302238294 74.5476941853 l 1
 347.77182256 67 l 1
 339 67 l 1
 293 67 l 1
 290.169048105 67 l 1
 288.712535371 69.4275212229 l 1
 180.712535371 249.427521223 l 1
 178.84769662 252.535585808 l 1
 181.221554586 255.274652692 l 1
 337.221554586 435.274652692 l 1
 338.716855586 437 l 1
 341 437 l 1
 390 437 l 1
 400.955907174 437 l 1
 393.777068018 428.72375868 l 1
EndSplineSet
Substitution2: "'case' Case-Sensitive Forms lookup 7 subtable" guillemotleft.cap
Substitution2: "'aalt' Access All Alternates lookup 0 subtable" guillemotleft.cap
EndChar

StartChar: guilsinglleft
Encoding: 8249 8249 107
Width: 231
Flags: MW
LayerCount: 2
Fore
SplineSet
248.777068018 428.72375868 m 1
 94.1284273918 250.434561525 l 1
 197.312764731 74.5298340603 l 1
 201.729706498 67 l 1
 193 67 l 1
 147 67 l 1
 144.169048105 67 l 1
 142.712535371 69.4275212229 l 1
 34.7125353714 249.427521223 l 1
 32.8476966201 252.535585808 l 1
 35.2215545861 255.274652692 l 1
 191.221554586 435.274652692 l 1
 192.716855586 437 l 1
 195 437 l 1
 245 437 l 1
 255.955907174 437 l 1
 248.777068018 428.72375868 l 1
EndSplineSet
Substitution2: "'case' Case-Sensitive Forms lookup 7 subtable" guilsinglleft.cap
Substitution2: "'aalt' Access All Alternates lookup 0 subtable" guilsinglleft.cap
EndChar

StartChar: guilsinglright
Encoding: 8250 8250 108
Width: 231
Flags: MW
LayerCount: 2
Fore
SplineSet
159.860441858 254.537586945 m 1
 55.7040407811 429.441732151 l 1
 51.2030498146 437 l 1
 60 437 l 1
 106 437 l 1
 108.830951895 437 l 1
 110.287464629 434.572478777 l 1
 218.287464629 254.572478777 l 1
 220.15230338 251.464414192 l 1
 217.778445414 248.725347308 l 1
 61.7784454139 68.7253473079 l 1
 60.2831444138 67 l 1
 58 67 l 1
 9 67 l 1
 -1.91648753975 67 l 1
 5.21401462159 75.2659324418 l 1
 159.860441858 254.537586945 l 1
EndSplineSet
Substitution2: "'case' Case-Sensitive Forms lookup 7 subtable" guilsinglright.cap
Substitution2: "'aalt' Access All Alternates lookup 0 subtable" guilsinglright.cap
EndChar

StartChar: endash
Encoding: 8211 8211 109
Width: 500
Flags: MW
LayerCount: 2
Fore
SplineSet
40 278 m 1
 481 278 l 1
 487.162233642 278 l 1
 485.892748925 271.969947595 l 1
 477.892748925 233.969947595 l 1
 477.056970484 230 l 1
 473 230 l 1
 33 230 l 1
 26.9948212931 230 l 1
 28.0827340571 235.905812147 l 1
 35.0827340571 273.905812147 l 1
 35.8369265562 278 l 1
 40 278 l 1
EndSplineSet
Substitution2: "'case' Case-Sensitive Forms lookup 7 subtable" endash.cap
Substitution2: "'aalt' Access All Alternates lookup 0 subtable" endash.cap
EndChar

StartChar: dagger
Encoding: 8224 8224 110
Width: 460
Flags: MW
LayerCount: 2
Fore
SplineSet
293 679 m 1
 339 679 l 1
 345.198883163 679 l 1
 343.88669336 672.941591761 l 1
 298.231721074 462.151613332 l 1
 457.879553035 465.998549042 l 1
 464.156895648 466.14981031 l 1
 462.898574661 459.998018819 l 1
 453.898574661 415.998018819 l 1
 453.054875122 411.873265515 l 1
 448.846697874 412.002350707 l 1
 290.147690418 416.87041842 l 1
 204.919015716 -50.8962613381 l 1
 204.171300621 -55 l 1
 200 -55 l 1
 154 -55 l 1
 147.893374245 -55 l 1
 149.098298547 -49.013428733 l 1
 242.85520021 416.810335317 l 1
 85.1523682272 412.002322147 l 1
 78.9751166523 411.813991306 l 1
 80.0806504495 417.894427191 l 1
 88.0806504495 461.894427191 l 1
 88.8459265493 466.10344574 l 1
 93.1226624581 465.998495166 l 1
 251.798211626 462.104616659 l 1
 288.07113418 674.840405693 l 1
 288.780373762 679 l 1
 293 679 l 1
EndSplineSet
EndChar

StartChar: daggerdbl
Encoding: 8225 8225 111
Width: 460
Flags: MW
LayerCount: 2
Fore
SplineSet
293 679 m 1
 339 679 l 1
 345.184936094 679 l 1
 343.88901207 672.952354556 l 1
 300.225855547 469.190957447 l 1
 458.848554367 473.997705896 l 1
 465.164934498 474.189111354 l 1
 463.898574661 467.998018819 l 1
 454.898574661 423.998018819 l 1
 454.059981416 419.89822962 l 1
 449.876580826 420.001523461 l 1
 292.117856858 423.896800596 l 1
 250.078014563 203.187628548 l 1
 407.847631773 207.997677853 l 1
 414.16517474 208.19028587 l 1
 412.898574661 201.998018819 l 1
 403.898574661 157.998018819 l 1
 403.059981416 153.89822962 l 1
 398.876580826 154.001523461 l 1
 241.188103771 157.895066105 l 1
 204.926228423 -50.85572982 l 1
 204.206331725 -55 l 1
 200 -55 l 1
 154 -55 l 1
 147.833295054 -55 l 1
 149.107983359 -48.9664753576 l 1
 192.801038469 157.847318827 l 1
 35.1219149623 154.001486547 l 1
 28.842725101 153.848335575 l 1
 30.1014253386 160.001981181 l 1
 39.1014253386 204.001981181 l 1
 39.9452868601 208.127526397 l 1
 44.1542475371 207.997620203 l 1
 201.887118819 203.129321707 l 1
 243.929237663 423.850445637 l 1
 86.1219149623 420.001486547 l 1
 79.9819785968 419.851732001 l 1
 81.0806504495 425.894427191 l 1
 89.0806504495 469.894427191 l 1
 89.8506875666 474.129631335 l 1
 94.1533021256 473.997649293 l 1
 252.806659494 469.130981889 l 1
 288.071888726 674.844819076 l 1
 288.784205456 679 l 1
 293 679 l 1
EndSplineSet
EndChar

StartChar: periodcentered
Encoding: 183 183 112
Width: 181
Flags: MW
LayerCount: 2
Fore
SplineSet
96 213 m 2
 95 213 l 2
 69.5704297547 213 52 236.008778198 52 262 c 0
 52 290.300101034 71.8472239121 313 99 313 c 0
 127.405631254 313 143 289.7668816 143 263 c 0
 143 237.876749943 125.347631382 213 96 213 c 2
EndSplineSet
Substitution2: "'case' Case-Sensitive Forms lookup 7 subtable" periodcentered.cap
Substitution2: "'aalt' Access All Alternates lookup 0 subtable" periodcentered.cap
EndChar

StartChar: paragraph
Encoding: 182 182 113
Width: 468
Flags: MW
LayerCount: 2
Fore
SplineSet
209 -57 m 1
 169 -57 l 1
 162.942503037 -57 l 1
 164.09063386 -51.0523059033 l 1
 223.942503037 259 l 2
 222.942503037 259 222.953707672 259 221.953707672 259 c 0
 165.329183821 260.048602294 72 313.119786195 72 439 c 0
 72 565.142367481 173.934577317 679 371 679 c 0
 412.247888292 679 441.532896885 675.997413245 461.030052405 671.892748925 c 2
 465.836144434 670.880940077 l 1
 464.9103729 666.057536217 l 1
 326.9103729 -52.9424637833 l 1
 326.131596825 -57 l 1
 322 -57 l 1
 282 -57 l 1
 275.956489845 -57 l 1
 277.088494992 -51.0634539213 l 1
 406.956489845 630 l 1
 344.136668816 630 l 1
 213.911505008 -52.9365460787 l 1
 213.136668816 -57 l 1
 209 -57 l 1
EndSplineSet
EndChar

StartChar: bullet
Encoding: 8226 8226 114
Width: 240
Flags: MW
LayerCount: 2
Fore
SplineSet
129 173 m 2
 128 173 l 2
 77.2394953789 173 35 214.281514103 35 266.948984903 c 0
 33.9420824997 318.786942419 77.303266189 361 129 361 c 0
 181.723500796 361 224 318.79236178 224 267 c 0
 224 215.207636688 181.723499585 173 129 173 c 2
EndSplineSet
EndChar

StartChar: quotesinglbase
Encoding: 8218 8218 115
Width: 156
Flags: MW
LayerCount: 2
Fore
SplineSet
-16.2928932188 -125.949747468 m 1
 -51.2928932188 -130.949747468 l 1
 -61.4133417206 -132.395525826 l 1
 -56.3412157106 -123.519305308 l 2
 -32.658977312 -82.0753881107 15.4106644495 26.0890027689 34.2194408757 87.4650100542 c 2
 35.1232343964 90.4142310165 l 1
 38.1644588495 90.9296927882 l 1
 97.1644588495 100.929692788 l 1
 106.071909422 102.439430173 l 1
 102.620834398 94.0900551153 l 2
 71.3806231773 18.5088989353 8.60740075244 -95.1901323301 -13 -124 c 2
 -14.2426406871 -125.656854249 l 1
 -16.2928932188 -125.949747468 l 1
EndSplineSet
EndChar

StartChar: quotedblbase
Encoding: 8222 8222 116
Width: 277
Flags: MW
LayerCount: 2
Fore
SplineSet
-16.2928932188 -125.949747468 m 1
 -51.2928932188 -130.949747468 l 1
 -61.4133417206 -132.395525826 l 1
 -56.3412157106 -123.519305308 l 2
 -32.658977312 -82.0753881107 15.4106644495 26.0890027689 34.2194408757 87.4650100542 c 2
 35.1232343964 90.4142310165 l 1
 38.1644588495 90.9296927882 l 1
 97.1644588495 100.929692788 l 1
 106.071909422 102.439430173 l 1
 102.620834398 94.0900551153 l 2
 71.3806231773 18.5088989353 8.60740075244 -95.1901323301 -13 -124 c 2
 -14.2426406871 -125.656854249 l 1
 -16.2928932188 -125.949747468 l 1
104.707106781 -125.949747468 m 1
 69.7071067812 -130.949747468 l 1
 59.8149166661 -132.362917485 l 1
 64.6145186608 -123.598426886 l 2
 87.3548466155 -82.0726106206 135.408292156 26.0812616017 154.219440876 87.4650100542 c 2
 155.126015014 90.4233046109 l 1
 158.178005063 90.9319696192 l 1
 218.178005063 100.931969619 l 1
 227.060748019 102.412426778 l 1
 223.620834398 94.0900551153 l 2
 192.375932398 18.4975502751 128.545568653 -95.2385291529 108.068667356 -123.906190969 c 2
 106.825106569 -125.64717607 l 1
 104.707106781 -125.949747468 l 1
EndSplineSet
EndChar

StartChar: quotedblright
Encoding: 8221 8221 117
Width: 277
Flags: MW
LayerCount: 2
Fore
SplineSet
156.150465417 686.927300579 m 1
 214.150465417 696.927300579 l 1
 223.083503143 698.467479497 l 1
 219.620834398 690.090055115 l 2
 188.380623177 614.508898935 125.607400752 500.80986767 104 472 c 2
 102.757359313 470.343145751 l 1
 100.707106781 470.050252532 l 1
 65.7071067812 465.050252532 l 1
 55.5866582794 463.604474174 l 1
 60.6587842894 472.480694692 l 2
 84.3433396401 513.928666556 132.420038407 622.088616536 152.241456911 683.5350139 c 2
 153.169976006 686.413423094 l 1
 156.150465417 686.927300579 l 1
276.164458849 686.929692788 m 1
 335.164458849 696.929692788 l 1
 344.192288991 698.45983349 l 1
 340.59889084 690.037806575 l 2
 308.371488157 614.504831535 245.60562534 500.807500453 224 472 c 2
 222.757359313 470.343145751 l 1
 220.707106781 470.050252532 l 1
 185.707106781 465.050252532 l 1
 175.586658279 463.604474174 l 1
 180.658784289 472.480694692 l 2
 204.34333964 513.928666556 252.420038407 622.088616536 272.241456911 683.5350139 c 2
 273.17295509 686.422658253 l 1
 276.164458849 686.929692788 l 1
EndSplineSet
EndChar

StartChar: guillemotright
Encoding: 187 187 118
Width: 377
Flags: MW
LayerCount: 2
Fore
SplineSet
159.860441858 254.537586945 m 1
 55.7040407811 429.441732151 l 1
 51.2030498146 437 l 1
 60 437 l 1
 106 437 l 1
 108.830951895 437 l 1
 110.287464629 434.572478777 l 1
 218.287464629 254.572478777 l 1
 220.15230338 251.464414192 l 1
 217.778445414 248.725347308 l 1
 61.7784454139 68.7253473079 l 1
 60.2831444138 67 l 1
 58 67 l 1
 9 67 l 1
 -1.91648753975 67 l 1
 5.21401462159 75.2659324418 l 1
 159.860441858 254.537586945 l 1
304.870741228 254.549526343 m 1
 201.693441954 429.459614636 l 1
 197.245461824 437 l 1
 206 437 l 1
 251 437 l 1
 253.817514197 437 l 1
 255.27694632 434.589928605 l 1
 364.27694632 254.589928605 l 1
 366.162496689 251.476175702 l 1
 363.778445414 248.725347308 l 1
 207.778445414 68.7253473079 l 1
 206.283144414 67 l 1
 204 67 l 1
 154 67 l 1
 143.08351246 67 l 1
 150.214014622 75.2659324418 l 1
 304.870741228 254.549526343 l 1
EndSplineSet
Substitution2: "'case' Case-Sensitive Forms lookup 7 subtable" guillemotright.cap
Substitution2: "'aalt' Access All Alternates lookup 0 subtable" guillemotright.cap
EndChar

StartChar: ellipsis
Encoding: 8230 8230 119
Width: 1000
Flags: MW
LayerCount: 2
Fore
SplineSet
128 -16 m 2
 127 -16 l 2
 101.570429755 -16 84 7.00877819752 84 33 c 0
 84 61.3001010345 103.847223912 84 131 84 c 0
 159.361711021 84 175 60.8448071401 175 35 c 0
 175 8.95933040041 157.406308931 -16 128 -16 c 2
462 -16 m 2
 461 -16 l 2
 434.671881682 -16 417 6.9394817949 417 33 c 0
 417 61.3001010345 436.847223912 84 464 84 c 0
 492.361711021 84 508 60.8448071401 508 35 c 0
 508 9.01777304241 490.486739778 -16 462 -16 c 2
795 -16 m 2
 794 -16 l 2
 767.671881682 -16 750 6.9394817949 750 33 c 0
 750 61.3001010345 769.847223912 84 797 84 c 0
 825.246674585 84 842 61.0257413667 842 35 c 0
 842 8.84948878668 823.359292639 -16 795 -16 c 2
EndSplineSet
EndChar

StartChar: perthousand
Encoding: 8240 8240 120
Width: 1040
Flags: MW
LayerCount: 2
Fore
SplineSet
246 666 m 2
 247 666 l 2
 328.117724961 666 355 593.893361683 355 534 c 0
 355 391.526605933 289.851274483 258 182 258 c 0
 108.164134164 258 71 320.809295021 71 402 c 0
 71 521.543735972 134.091563529 666 246 666 c 2
240 622 m 2
 239 622 l 2
 172.581211188 622 122 507.082306234 122 401 c 0
 122 349.091153045 135.572009928 302 189 302 c 0
 255.301965077 302 304 419.774206156 304 525 c 0
 304 568.193282932 292.043992563 622 240 622 c 2
149 -18 m 1
 105 -18 l 1
 95.1298359324 -18 l 1
 100.968733506 -10.0421476614 l 1
 596.968733506 665.957852339 l 1
 598.467114039 668 l 1
 601 668 l 1
 645 668 l 1
 654.870164068 668 l 1
 649.031266494 660.042147661 l 1
 153.031266494 -15.9578523386 l 1
 151.532885961 -18 l 1
 149 -18 l 1
573 398 m 2
 574 398 l 2
 655.090612911 398 683 325.939383904 683 265 c 0
 683 122.487086601 616.828694281 -10 510 -10 c 0
 435.232377721 -10 398 51.7751110549 398 134 c 0
 398 252.538243659 461.07600791 398 573 398 c 2
567 354 m 2
 566 354 l 2
 499.604677353 354 449 238.103542915 449 132 c 0
 449 81.1181305842 462.558565464 34 516 34 c 0
 582.301965077 34 631 151.774206156 631 257 c 0
 631 299.212561123 619.005079818 354 567 354 c 2
903 398 m 2
 904 398 l 2
 984.126155488 398 1012 325.913234408 1012 265 c 0
 1012 122.487086601 945.828694281 -10 839 -10 c 0
 764.232377721 -10 727 51.7751110549 727 134 c 0
 727 252.576306499 791.097933009 398 903 398 c 2
896 354 m 2
 895 354 l 2
 828.631331422 354 779 238.150615205 779 132 c 0
 779 81.0579815341 791.561928949 34 846 34 c 0
 911.27238812 34 960 151.753697303 960 257 c 0
 960 299.270026116 949.006982218 354 896 354 c 2
EndSplineSet
Ligature2: "Ligature Substitution lookup 22 subtable" zero.numerator fraction zero.numerator zero.numerator
EndChar

StartChar: questiondown
Encoding: 191 191 121
Width: 351
Flags: MW
LayerCount: 2
Fore
SplineSet
249.990775456 271.658376456 m 0
 247.923319092 215.837054617 215.083136711 149.027272285 145.571064196 77.5003570882 c 0
 96.7555091444 27.6885662195 58 -25.2015084922 58 -87 c 0
 58 -127.15385623 77.0328225305 -166 140 -166 c 0
 171.161999495 -166 202.163332737 -158.244795632 231.324739594 -139.775904622 c 2
 236.55248769 -136.464997495 l 1
 238.691715584 -142.271473206 l 1
 252.691715584 -180.271473206 l 1
 254.189853327 -184.337847079 l 1
 250.377585172 -186.398532568 l 2
 212.679173506 -206.776052387 170.004151978 -218 134 -218 c 0
 27.4864155775 -218 0 -138.475963135 0 -87 c 0
 0 -17.6781677604 47.249187567 48.3142018711 109.40190519 112.471845869 c 0
 164.043397753 169.100301797 190.131228527 215.956516973 194.013661228 268.369358428 c 2
 194.023707333 268.504980854 l 1
 194.041110667 268.639856688 l 1
 198.041110667 299.639856688 l 1
 198.603709804 304 l 1
 203 304 l 1
 247 304 l 1
 252 304 l 1
 252 299 l 2
 252 289.613413133 250.982461983 281.575241725 249.990775456 271.658376456 c 0
252 490 m 2
 253 490 l 2
 279.4299078 490 297 466.019515526 297 441 c 0
 297 412.699898966 277.152776088 390 250 390 c 0
 221.753325415 390 205 412.974258633 205 439 c 0
 205 464.129883657 223.56005069 490 252 490 c 2
EndSplineSet
Substitution2: "'case' Case-Sensitive Forms lookup 7 subtable" questiondown.cap
Substitution2: "'aalt' Access All Alternates lookup 0 subtable" questiondown.cap
EndChar

StartChar: grave
Encoding: 96 96 122
Width: 375
Flags: MW
LayerCount: 2
Fore
SplineSet
160 683 m 1
 226 683 l 1
 229.256548827 683 l 1
 230.573148072 680.021464003 l 1
 291.573148072 542.021464003 l 1
 294.676838682 535 l 1
 287 535 l 1
 254 535 l 1
 251.356048851 535 l 1
 249.86759664 537.185174523 l 1
 155.86759664 675.185174523 l 1
 150.544454648 683 l 1
 160 683 l 1
EndSplineSet
Substitution2: "'case' Case-Sensitive Forms lookup 7 subtable" grave.cap
Substitution2: "'aalt' Access All Alternates lookup 0 subtable" grave.cap
EndChar

StartChar: acute
Encoding: 180 180 123
Width: 375
Flags: MW
LayerCount: 2
Fore
SplineSet
317 683 m 1
 391 683 l 1
 402.885935019 683 l 1
 394.574170128 674.503529223 l 1
 259.574170128 536.503529223 l 1
 258.103326323 535 l 1
 256 535 l 1
 216 535 l 1
 206.144503786 535 l 1
 211.965188241 542.953014404 l 1
 312.965188241 680.953014404 l 1
 314.463344366 683 l 1
 317 683 l 1
EndSplineSet
Substitution2: "'case' Case-Sensitive Forms lookup 7 subtable" acute.cap
Substitution2: "'aalt' Access All Alternates lookup 0 subtable" acute.cap
EndChar

StartChar: circumflex
Encoding: 710 710 124
Width: 375
Flags: MW
LayerCount: 2
Fore
SplineSet
255 683 m 1
 290 683 l 1
 293.171804259 683 l 1
 294.523350394 680.130563591 l 1
 359.523350394 542.130563591 l 1
 362.881949187 535 l 1
 355 535 l 1
 312 535 l 1
 308.737399887 535 l 1
 307.423424838 537.986306929 l 1
 266.091257059 631.92305188 l 1
 192.961646752 536.949532001 l 1
 191.460507111 535 l 1
 189 535 l 1
 142 535 l 1
 131.443406106 535 l 1
 138.131462795 543.167715248 l 1
 251.131462795 681.167715248 l 1
 252.631811903 683 l 1
 255 683 l 1
EndSplineSet
Substitution2: "'case' Case-Sensitive Forms lookup 7 subtable" circumflex.cap
Substitution2: "'aalt' Access All Alternates lookup 0 subtable" circumflex.cap
EndChar

StartChar: tilde
Encoding: 732 732 125
Width: 375
Flags: MW
LayerCount: 2
Fore
SplineSet
181 570 m 1
 147 570 l 1
 141.384916088 570 l 1
 142.033463098 575.577504291 l 2
 147.091104686 619.073221943 168.771205858 663 212 663 c 0
 238.610115066 663 251.952446522 652.087151494 275.431369064 639.369401784 c 0
 289.749994517 631.187330096 301.886237568 624 314 624 c 0
 327.404474551 624 333.051736945 628.728755147 337.03633109 661.601656838 c 2
 337.569463594 666 l 1
 342 666 l 1
 376 666 l 1
 381.678875634 666 l 1
 380.959748898 660.366840566 l 2
 374.92739049 613.113366371 358.89403053 576 312 576 c 0
 289.55870794 576 269.572158499 585.615527815 252.331285982 596.771386502 c 0
 239.102417022 604.91222894 225.99038799 614 211 614 c 0
 195.498304018 614 190.036024763 600.851794864 185.941858488 574.239714079 c 2
 185.289594784 570 l 1
 181 570 l 1
EndSplineSet
Substitution2: "'case' Case-Sensitive Forms lookup 7 subtable" tilde.cap
Substitution2: "'aalt' Access All Alternates lookup 0 subtable" tilde.cap
EndChar

StartChar: macron
Encoding: 175 175 126
Width: 375
Flags: MW
LayerCount: 2
Fore
SplineSet
168 641 m 1
 370 641 l 1
 375.977336604 641 l 1
 374.921356035 635.116679686 l 1
 367.921356035 596.116679686 l 1
 367.182464809 592 l 1
 363 592 l 1
 161 592 l 1
 155.022663396 592 l 1
 156.078643965 597.883320314 l 1
 163.078643965 636.883320314 l 1
 163.817535191 641 l 1
 168 641 l 1
EndSplineSet
Substitution2: "'case' Case-Sensitive Forms lookup 7 subtable" macron.cap
Substitution2: "'aalt' Access All Alternates lookup 0 subtable" macron.cap
EndChar

StartChar: breve
Encoding: 728 728 127
Width: 375
Flags: MW
LayerCount: 2
Fore
SplineSet
164 683 m 1
 200 683 l 1
 205.511543884 683 l 1
 204.97637317 677.514500179 l 2
 201.18398791 638.642551265 222.421943282 609 260 609 c 0
 308.962613694 609 334.472509137 645.470103309 343.157535337 679.245205199 c 2
 344.123054 683 l 1
 348 683 l 1
 387 683 l 1
 393.029997009 683 l 1
 391.913552893 677.074258151 l 2
 378.519619442 605.983380603 322.644929989 559 261 559 c 0
 252.699354724 559 244.968106685 559.561754495 237.77571563 560.635038498 c 0
 167.313395351 571.149772828 151.603170949 630.302977266 159.058141512 678.760285921 c 2
 159.710405216 683 l 1
 164 683 l 1
EndSplineSet
Substitution2: "'case' Case-Sensitive Forms lookup 7 subtable" breve.cap
Substitution2: "'aalt' Access All Alternates lookup 0 subtable" breve.cap
EndChar

StartChar: dotaccent
Encoding: 729 729 128
Width: 375
Flags: MW
LayerCount: 2
Fore
SplineSet
262 575 m 2
 261 575 l 2
 236.606088429 575 222 596.03310798 222 618 c 0
 222 641.332551821 239.768230627 663 264 663 c 0
 289.282509418 663 304 642.039318226 304 620 c 0
 304 597.036360345 289.325697687 575 262 575 c 2
EndSplineSet
Substitution2: "'case' Case-Sensitive Forms lookup 7 subtable" dotaccent.cap
Substitution2: "'aalt' Access All Alternates lookup 0 subtable" dotaccent.cap
EndChar

StartChar: dieresis
Encoding: 168 168 129
Width: 375
Flags: MW
LayerCount: 2
Fore
SplineSet
178 575 m 2
 177 575 l 2
 152.738762817 575 137 595.831572972 137 618 c 0
 137 641.513671379 155.897869835 663 180 663 c 0
 205.152313962 663 221 642.238135228 221 620 c 0
 221 597.870271142 205.297001942 575 178 575 c 2
347 575 m 2
 346 575 l 2
 320.585529734 575 307 596.167149424 307 618 c 0
 307 641.332551821 324.768230627 663 349 663 c 0
 375.17472305 663 390 642.110567911 390 620 c 0
 390 597.870271142 374.297001942 575 347 575 c 2
EndSplineSet
Substitution2: "'case' Case-Sensitive Forms lookup 7 subtable" dieresis.cap
Substitution2: "'aalt' Access All Alternates lookup 0 subtable" dieresis.cap
EndChar

StartChar: ring
Encoding: 730 730 130
Width: 377
Flags: MW
LayerCount: 2
Fore
SplineSet
266 717 m 2
 267 717 l 2
 320.765372215 717 360 676.567795818 360 622 c 0
 360 565.911473846 311.497515611 527 264 527 c 0
 209.407777056 527 169 567.200719499 169 619 c 0
 169 673.711569384 212.221908499 717 266 717 c 2
265 677 m 2
 264 677 l 2
 238.538172356 677 218 653.128113644 218 620 c 0
 218 590.986369132 237.488373463 567 263 567 c 0
 289.638294144 567 312 591.049718353 312 626 c 0
 312 654.748369634 292.894374638 677 265 677 c 2
EndSplineSet
Substitution2: "'case' Case-Sensitive Forms lookup 7 subtable" ring.cap
Substitution2: "'aalt' Access All Alternates lookup 0 subtable" ring.cap
EndChar

StartChar: cedilla
Encoding: 184 184 131
Width: 375
Flags: MW
LayerCount: 2
Fore
SplineSet
139 6 m 1
 177 6 l 1
 187.143261824 6 l 1
 180.965751069 -2.04513028545 l 1
 142.496527908 -52.1445837056 l 1
 171.896058748 -61.8506731593 189 -85.7018782048 189 -118 c 0
 189 -167.491869053 144.835396207 -203 86 -203 c 0
 60.1242349781 -203 36.3865665091 -196.00908042 24.0591415116 -187.043680422 c 2
 20.832776451 -184.697233105 l 1
 22.4042748499 -181.030403507 l 1
 37.4042748499 -146.030403507 l 1
 39.732365098 -140.598192928 l 1
 44.7037879566 -143.794107623 l 2
 57.7794722777 -152.199904687 74.8639250539 -157 93 -157 c 0
 117.17319015 -157 136 -142.488732462 136 -121 c 0
 136 -101.578486599 115.549792905 -89.9846084203 78.33041052 -84.9549621521 c 2
 69.9465504471 -83.8220080882 l 1
 74.9822140333 -77.0238622469 l 1
 134.982214033 3.97613775313 l 1
 136.481371253 6 l 1
 139 6 l 1
EndSplineSet
Substitution2: "'case' Case-Sensitive Forms lookup 7 subtable" cedilla.cap
Substitution2: "'aalt' Access All Alternates lookup 0 subtable" cedilla.cap
EndChar

StartChar: hungarumlaut
Encoding: 733 733 132
Width: 375
Flags: MW
LayerCount: 2
Fore
SplineSet
276 683 m 1
 342 683 l 1
 353.518287605 683 l 1
 345.652634697 674.58558061 l 1
 216.652634697 536.58558061 l 1
 215.170461518 535 l 1
 213 535 l 1
 177 535 l 1
 167.25948702 535 l 1
 172.937308747 542.914539377 l 1
 271.937308747 680.914539377 l 1
 273.433400063 683 l 1
 276 683 l 1
402 683 m 1
 468 683 l 1
 479.457364916 683 l 1
 471.665859136 674.599782831 l 1
 343.665859136 536.599782831 l 1
 342.182002597 535 l 1
 340 535 l 1
 303 535 l 1
 293.25948702 535 l 1
 298.937308747 542.914539377 l 1
 397.937308747 680.914539377 l 1
 399.433400063 683 l 1
 402 683 l 1
EndSplineSet
Substitution2: "'case' Case-Sensitive Forms lookup 7 subtable" hungarumlaut.cap
Substitution2: "'aalt' Access All Alternates lookup 0 subtable" hungarumlaut.cap
EndChar

StartChar: ogonek
Encoding: 731 731 133
Width: 375
Flags: MW
LayerCount: 2
Fore
SplineSet
145 7 m 1
 193 7 l 1
 209.041241486 7 l 1
 195.840953585 -2.11448450301 l 2
 154.294762023 -30.8011405821 107 -84.1860683987 107 -125 c 0
 107 -145.484278589 118.533847427 -156 137 -156 c 0
 151.08964634 -156 164.270090305 -152.274784904 177.763932023 -145.527864045 c 2
 183.080958497 -142.869350808 l 1
 184.789131426 -148.563260572 l 1
 193.789131426 -178.563260572 l 1
 194.914060564 -182.313024366 l 1
 191.543646561 -184.304632641 l 2
 168.849403442 -197.714867211 147.732442332 -203 123 -203 c 0
 79.4881450463 -203 51 -173.703954038 51 -134 c 0
 51 -68.8594641102 113.973213422 -16.0194416634 141.91089224 5.93159169411 c 2
 143.27068463 7 l 1
 145 7 l 1
EndSplineSet
Substitution2: "'case' Case-Sensitive Forms lookup 7 subtable" ogonek.cap
Substitution2: "'aalt' Access All Alternates lookup 0 subtable" ogonek.cap
EndChar

StartChar: caron
Encoding: 711 711 134
Width: 375
Flags: MW
LayerCount: 2
Fore
SplineSet
268 535 m 1
 233 535 l 1
 229.869395162 535 l 1
 228.502093293 537.8162337 l 1
 161.502093293 675.8162337 l 1
 158.014322698 683 l 1
 166 683 l 1
 209 683 l 1
 212.23292805 683 l 1
 213.559607526 680.051823387 l 1
 256.269442793 585.141078349 l 1
 332.076590664 681.099493375 l 1
 333.577990898 683 l 1
 336 683 l 1
 382 683 l 1
 392.615840822 683 l 1
 385.854808758 674.815592765 l 1
 271.854808758 536.815592765 l 1
 270.354971257 535 l 1
 268 535 l 1
EndSplineSet
Substitution2: "'case' Case-Sensitive Forms lookup 7 subtable" caron.cap
Substitution2: "'aalt' Access All Alternates lookup 0 subtable" caron.cap
EndChar

StartChar: emdash
Encoding: 8212 8212 135
Width: 1000
Flags: MW
LayerCount: 2
Fore
SplineSet
40 278 m 1
 981 278 l 1
 987.162233642 278 l 1
 985.892748925 271.969947595 l 1
 977.892748925 233.969947595 l 1
 977.056970484 230 l 1
 973 230 l 1
 33 230 l 1
 26.9948212931 230 l 1
 28.0827340571 235.905812147 l 1
 35.0827340571 273.905812147 l 1
 35.8369265562 278 l 1
 40 278 l 1
EndSplineSet
Substitution2: "'case' Case-Sensitive Forms lookup 7 subtable" emdash.cap
Substitution2: "'aalt' Access All Alternates lookup 0 subtable" emdash.cap
EndChar

StartChar: AE
Encoding: 198 198 136
Width: 748
Flags: HW
LayerCount: 2
Fore
SplineSet
7.1875 0 m 1
 4.5703125 0 l 1
 -43.4296875 0 l 1
 -53 0 l 1
 -47.533203125 7.740234375 l 1
 427.777401711 671.85546875 l 1
 429.295160813 674 l 1
 431.9539726 674 l 1
 752.5703125 674 l 1
 758.700195312 674 l 1
 757.46875 667.995117188 l 1
 749.46875 628.995117188 l 1
 748.649414062 625 l 1
 744.5703125 625 l 1
 498.560438197 625 l 1
 468.21718353 379 l 1
 701.5703125 379 l 1
 707.700195312 379 l 1
 706.46875 372.995117188 l 1
 698.46875 333.995117188 l 1
 697.649414062 330 l 1
 693.5703125 330 l 1
 461.937417971 330 l 1
 428.500996096 49 l 1
 686.5703125 49 l 1
 692.700195312 49 l 1
 691.46875 42.9951171875 l 1
 683.46875 3.9951171875 l 1
 682.649414062 -0 l 1
 678.5703125 0 l 1
 374.956999473 0 l 1
 369.273602913 0 l 1
 369.898796414 5.5498046875 l 1
 399.80769566 271 l 1
 197.469633798 271 l 1
 8.6787109375 2.150390625 l 1
 7.1875 0 l 1
380.179204007 525.182617188 m 2
 231.977531974 314 l 1
 407.071470067 314 l 1
 431.988760792 522.583984375 l 2
 435.460622314 551.57421875 440.658972088 592.541015625 445.049241869 624.073242188 c 1
 426.15130224 593.520507812 404.386815623 560.41796875 380.179204007 525.182617188 c 2
EndSplineSet
Position2: "'cpsp' Capital Spacing lookup 0 subtable" dx=10 dy=0 dh=20 dv=0
EndChar

StartChar: ordfeminine
Encoding: 170 170 137
Width: 319
Flags: MW
LayerCount: 2
Fore
SplineSet
299 261 m 1
 262 261 l 1
 257.256237476 261 l 1
 257.006910853 265.737205834 l 2
 256.237445034 280.357056408 257.354930595 300.760606952 259.482619561 319.547647822 c 1
 230.561180368 279.891454148 189.976332289 256 147 256 c 0
 85.2998138644 256 52 308.58053067 52 374 c 0
 52 485.142319441 130.722683824 596 262 596 c 0
 286.758538785 596 325.735338867 590.057626925 345.728526794 582.691715584 c 2
 349.667574023 581.240487658 l 1
 348.920097551 577.109696634 l 1
 310.928222924 367.15460001 l 2
 305.014297924 330.685395843 304 293.846464897 304 266 c 2
 304 261 l 1
 299 261 l 1
275.079922479 431.890795277 m 2
 296.303660386 545.727207687 l 1
 283.812325783 549.806010823 269.270017901 552 249 552 c 0
 174.207555368 552 102.978799821 483.708216835 102 378.976636024 c 0
 102 339.4266061 114.373033184 301 159 301 c 0
 207.291950309 301 262.319834125 359.256446183 275.079922479 431.890795277 c 2
EndSplineSet
EndChar

StartChar: Lslash
Encoding: 321 321 138
Width: 437
Flags: HW
LayerCount: 2
Fore
SplineSet
387.411132812 -0 m 1
 383.333007812 0 l 1
 49.3330078125 0 l 1
 43.298828125 0 l 1
 44.419921875 5.841796875 l 1
 97.2109375 281.047851562 l 1
 5.1064453125 220.547851562 l 1
 -5 213.909179688 l 1
 -2.56640625 225.633789062 l 1
 6.43359375 268.987304688 l 1
 6.84375 270.9609375 l 1
 8.5400390625 272.0859375 l 1
 107.813476562 337.94140625 l 1
 176.188184465 669.94140625 l 1
 177.017554925 674 l 1
 181.421439221 674 l 1
 229.372996027 674 l 1
 235.809202165 674 l 1
 234.606250783 668.159179688 l 1
 175.178787544 379.505859375 l 1
 316.552734375 468.444335938 l 1
 326.608398438 475.065429688 l 1
 324.235351562 463.389648438 l 1
 315.235351562 419.09765625 l 1
 314.83203125 417.112304688 l 1
 313.125976562 415.981445312 l 1
 163.864176495 321.65625 l 1
 108.369140625 49 l 1
 391.333007812 49 l 1
 397.461914062 49 l 1
 396.23046875 42.9951171875 l 1
 388.23046875 3.9951171875 l 1
 387.411132812 -0 l 1
EndSplineSet
Position2: "'cpsp' Capital Spacing lookup 0 subtable" dx=10 dy=0 dh=20 dv=0
EndChar

StartChar: Oslash
Encoding: 216 216 139
Width: 665
Flags: HW
LayerCount: 2
Fore
SplineSet
47.044921875 -30.2265625 m 1
 43.3544921875 -26.53515625 l 1
 19.3544921875 -2.53515625 l 1
 16 0.818359375 l 1
 19.173828125 4.3447265625 l 1
 97.58984375 90.212890625 l 1
 64.5673828125 140.235351562 50.8896484375 190.224609375 50.8896484375 263.197265625 c 0
 50.8896484375 378.676757812 95.166015625 503.947265625 173.11579717 583.934570312 c 0
 236.45478794 647.934570312 323.661571704 685 408.086244612 685 c 0
 484.862111308 685 542.092250187 663.077148438 582.90234375 621.314453125 c 1
 657.24609375 700.423828125 l 1
 660.506835938 703.89453125 l 1
 664.131835938 700.806640625 l 1
 691.131835938 677.806640625 l 1
 695.08984375 674.435546875 l 1
 691.567382812 670.612304688 l 1
 612.233398438 585.750976562 l 1
 647.400390625 532.932617188 658.889648438 474.313476562 658.889648438 415.739257812 c 0
 658.889648438 300.252929688 613.6875 168.1953125 537.689239973 88.1298828125 c 0
 477.390184988 26.05078125 391.183721973 -11 305.755730351 -11 c 0
 229.790313334 -11 169.962938063 11.7421875 125.044921875 54.7734375 c 1
 50.57421875 -26.380859375 l 1
 47.044921875 -30.2265625 l 1
125.703125 390.647460938 m 0
 101.404296875 304.142578125 99.490234375 206.911132812 136.87440625 125.512695312 c 1
 547.591516007 579.998046875 l 1
 515.433352443 614.553710938 473.055128632 636 399.899803471 636 c 0
 274.080239038 636 166.003626564 531.288085938 125.703125 390.647460938 c 0
579.11328125 270.478515625 m 0
 604.459960938 352.3671875 613.6015625 459.407226562 572.891336608 546.513671875 c 1
 163.238504172 94.05859375 l 1
 198.376644235 57.6123046875 241.638268189 38 317.01208692 38 c 0
 426.505737179 38 534.626319796 131.859375 579.11328125 270.478515625 c 0
EndSplineSet
Position2: "'cpsp' Capital Spacing lookup 0 subtable" dx=10 dy=0 dh=20 dv=0
EndChar

StartChar: OE
Encoding: 338 338 140
Width: 861
Flags: HW
LayerCount: 2
Fore
SplineSet
468.940298727 0 m 2
 447.914293146 0 425.757355361 -1.982421875 400.184783878 -2.9892578125 c 0
 381.650999397 -5.0146484375 361.280318886 -6 332.696230831 -6 c 0
 130.844726562 -6 49 131.134765625 49 278.84765625 c 0
 49 472.141601562 179.030445239 680 464.873311626 680 c 0
 489.29509257 680 509.723362253 680.006835938 535.502460425 677.978515625 c 0
 564.048817643 674.970703125 580.886700276 674 604.167619848 674 c 2
 890 674 l 1
 896.129882812 674 l 1
 894.8984375 667.995117188 l 1
 886.8984375 628.995117188 l 1
 886.078125 625 l 1
 882 625 l 1
 608.385530299 625 l 1
 560.474317261 379 l 1
 817 379 l 1
 823.129882812 379 l 1
 821.8984375 372.995117188 l 1
 813.8984375 333.995117188 l 1
 813.078125 330 l 1
 809 330 l 1
 550.425006604 330 l 1
 495.410466973 49 l 1
 785 49 l 1
 790.977539062 49 l 1
 789.920898438 43.1162109375 l 1
 782.920898438 4.1162109375 l 1
 782.182617188 -0 l 1
 778 0 l 1
 468.940298727 0 l 2
350.997672787 44 m 0
 385.084505597 44 410.046433265 45.92578125 440.185428987 51.171875 c 1
 551.492392134 624.279296875 l 1
 531.036320781 628.526367188 510.655711103 631 460.806324524 631 c 0
 222.994814105 631 106 459.784179688 106 282.9296875 c 0
 106 156.743164062 161.104492188 44 350.997672787 44 c 0
EndSplineSet
Position2: "'cpsp' Capital Spacing lookup 0 subtable" dx=10 dy=0 dh=20 dv=0
EndChar

StartChar: ordmasculine
Encoding: 186 186 141
Width: 322
Flags: MW
LayerCount: 2
Fore
SplineSet
220 596 m 2
 221 596 l 2
 317.311126634 596 354 525.716845614 354 458 c 0
 354 348.89460889 277.408633419 256 178 256 c 0
 85.6472498278 256 46 328.149950889 46 392 c 0
 46 506.203810997 128.613148429 596 220 596 c 2
216 552 m 2
 215 552 l 2
 153.900062513 552 98 484.361588936 98 395 c 0
 98 332.235232523 133.890722937 300 180 300 c 0
 238.481185575 300 301 358.941008819 301 460 c 0
 301 500.01028379 286.183850678 552 216 552 c 2
EndSplineSet
EndChar

StartChar: ae
Encoding: 230 230 142
Width: 711
Flags: HW
LayerCount: 2
Fore
SplineSet
619.438476562 75.2109375 m 1
 621.623046875 69.9033203125 l 1
 635.623046875 35.9033203125 l 1
 637.15234375 32.189453125 l 1
 633.85546875 29.8955078125 l 2
 610.1484375 13.4033203125 561.703266403 -11 482.873303167 -11 c 0
 401.615605557 -11 342.246464932 30.6923828125 321.985718326 102.309570312 c 1
 281.410297653 28.796875 210.47371677 -11 134.158371041 -11 c 0
 49.119140625 -11 8.037109375 46.408203125 7 108.325195312 c 0
 7 228.657226562 126.528320312 300.862304688 328.279252687 293.458984375 c 1
 331.596790158 311.711914062 l 2
 333.113749646 320.274414062 333.95961185 329.31640625 333.9745917 338.467773438 c 0
 334.062473487 389.311523438 309.460566318 442 233.352941176 442 c 0
 189.365110648 442 154.755664946 430.442382812 114.650390625 405.759765625 c 2
 109.684570312 402.65625 l 1
 107.397460938 408.046875 l 1
 93.3974609375 441.046875 l 1
 91.7509765625 444.926757812 l 1
 95.2958984375 447.206054688 l 2
 152.805288462 483.80859375 206.021705317 491 239.488687783 491 c 0
 320.218096012 491 369.649604072 450.9609375 380.183434672 382.672851562 c 1
 427.245130444 457.5078125 503.697292138 491 572.864253394 491 c 0
 656.389648438 491 699 439.936523438 699 384.354492188 c 0
 699 251.1640625 539.619971366 241.772460938 371.484136383 246.282226562 c 1
 361.83411694 198.670898438 359.734940611 153.66015625 375.198140554 112.052734375 c 0
 393.857041855 62.2548828125 436.555606618 38 490.031674208 38 c 0
 557.438003747 38 590.512695312 58.337890625 614.48046875 72.3193359375 c 2
 619.438476562 75.2109375 l 1
141.316742081 38 m 0
 211.205732113 38 288.023402149 90.9482421875 308.089410704 196.90625 c 2
 318.287692661 251.305664062 l 1
 309.103047229 251.712890625 302.917367788 251.850585938 294.561607395 251.86328125 c 0
 190.727278351 252.014648438 64 222.541015625 64 115 c 0
 64 66.568359375 93.5078125 38 141.316742081 38 c 0
429.329326923 289.365234375 m 0
 551.847523685 289.33203125 643 303.314453125 643 380 c 2
 643 381 l 2
 643 411.926757812 616.711914062 443 567.751131222 443 c 0
 472.933673289 443 407.062279058 355.284179688 384.477658371 289.861328125 c 1
 400.329335761 289.556640625 414.555200085 289.369140625 429.329326923 289.365234375 c 0
EndSplineSet
EndChar

StartChar: dotlessi
Encoding: 305 305 143
Width: 216
Flags: HW
LayerCount: 2
Fore
SplineSet
93.181640625 0 m 1
 89.0498046875 0 l 1
 44.0498046875 0 l 1
 38 0 l 1
 39.138671875 5.8193359375 l 1
 131.138671875 475.94140625 l 1
 131.916992188 480 l 1
 136.049804688 480 l 1
 181.049804688 480 l 1
 187.098632812 480 l 1
 185.959960938 474.180664062 l 1
 93.9599609375 4.05859375 l 1
 93.181640625 0 l 1
EndSplineSet
EndChar

StartChar: lslash
Encoding: 322 322 144
Width: 222
Flags: HW
LayerCount: 2
Fore
SplineSet
98.390625 -0 m 1
 94.24609375 0 l 1
 49.24609375 0 l 1
 43.21484375 0 l 1
 44.3330078125 5.8447265625 l 1
 102.025390625 307.34375 l 1
 35.15234375 260.245117188 l 1
 25 253.094726562 l 1
 27.333984375 265.178710938 l 1
 35.333984375 306.592773438 l 1
 35.705078125 308.509765625 l 1
 37.3056640625 309.657226562 l 1
 112.708007812 363.729492188 l 1
 179.3359375 705.942382812 l 1
 180.114257812 710 l 1
 184.24609375 710 l 1
 229.24609375 710 l 1
 235.280273438 710 l 1
 234.159179688 704.071289062 l 1
 177.509765625 408.719726562 l 1
 245.295898438 457.55859375 l 1
 255.806640625 465.131835938 l 1
 253.139648438 452.568359375 l 1
 244.139648438 410.173828125 l 1
 243.747070312 408.321289062 l 1
 242.196289062 407.204101562 l 1
 165.79296875 352.157226562 l 1
 99.1591796875 4.072265625 l 1
 98.390625 -0 l 1
EndSplineSet
EndChar

StartChar: oslash
Encoding: 248 248 145
Width: 521
Flags: HW
LayerCount: 2
Fore
SplineSet
56.4130859375 -29.2060546875 m 1
 52.5810546875 -25.6796875 l 1
 27.5810546875 -2.6796875 l 1
 24 0.6142578125 l 1
 27.1953125 4.2841796875 l 1
 78.4970703125 62 l 1
 48.564453125 100.844726562 39.9658203125 147.798828125 39.9658203125 194.099609375 c 0
 39.9658203125 341.936523438 148.41419067 491 302.45569845 491 c 0
 358.295464996 491 397.654296875 475.876953125 424.5234375 453.086914062 c 1
 470.203125 505.29296875 l 1
 473.381835938 508.92578125 l 1
 477.124023438 505.875976562 l 1
 504.124023438 483.875976562 l 1
 508.158203125 480.58984375 l 1
 504.713867188 476.689453125 l 1
 454.33203125 420.799804688 l 1
 484.678710938 377.5234375 492.965820312 330.826171875 492.965820312 292.771484375 c 0
 492.965820312 136.069335938 375.218056634 -11 233.637091238 -11 c 0
 175.445126203 -11 134.91015625 5.8681640625 106.50390625 29.900390625 c 1
 59.7802734375 -25.232421875 l 1
 56.4130859375 -29.2060546875 l 1
96.9658203125 190 m 0
 96.9658203125 149.926757812 102.521484375 123.4453125 117.186523438 96.87890625 c 1
 389.338867188 411.853515625 l 1
 369.948521059 431.094726562 339.695786384 443 298.28487377 443 c 0
 177.574324056 443 96.9658203125 308.635742188 96.9658203125 190 c 0
435.965820312 293 m 0
 435.965820312 327.739257812 429.004882812 356.346679688 416.504882812 382.71875 c 1
 142.689453125 71.2021484375 l 1
 165.332709237 49.6923828125 196.237135268 38 236.765209748 38 c 0
 333.713463388 38 435.965820312 158.803710938 435.965820312 293 c 0
EndSplineSet
EndChar

StartChar: oe
Encoding: 339 339 146
Width: 804
Flags: HW
LayerCount: 2
Fore
SplineSet
714.376953125 76.51953125 m 1
 716.642578125 70.857421875 l 1
 730.642578125 35.857421875 l 1
 732.076171875 32.2734375 l 1
 728.971679688 29.9794921875 l 2
 704.919921875 12.2021484375 649.678058609 -11 581.201581028 -11 c 0
 497.64675457 -11 435.013000247 32.9931640625 416.304733819 113.086914062 c 1
 368.98435184 30.7373046875 293.516921937 -11 215.106719368 -11 c 0
 100.4921875 -11 38 83.35546875 38 185.09375 c 0
 38 335.77734375 141.16015625 491 299.747035573 491 c 0
 389.94924191 491 446.638695035 435.81640625 462.74776124 362.24609375 c 1
 512.693235857 449.328125 597.25388309 491 668.901185771 491 c 0
 766.9921875 491 794 428.366210938 794 383.380859375 c 0
 794 247.387695312 624.96872684 235.805664062 465.954437376 232.788085938 c 1
 456.938897295 192.846679688 460.291965168 148.202148438 472.824890378 113.98046875 c 0
 489.501598011 67.8642578125 527.07647295 39 588.339920949 39 c 0
 644.212767107 39 686.909179688 58.60546875 709.268554688 73.1884765625 c 2
 714.376953125 76.51953125 l 1
95 190.241210938 m 0
 95 100.208007812 145.456054688 38 224.28458498 38 c 2
 225.304347826 38 l 2
 338.85155478 38 419.059288538 184.436523438 419.059288538 295.638671875 c 0
 419.059288538 368.071289062 391.467931695 443 294.648221344 443 c 0
 175.525182189 443 95 314.823242188 95 190.241210938 c 0
476.002686512 274.163085938 m 1
 610.477936635 277.401367188 738 288.086914062 738 378 c 2
 738 379 l 2
 738 417.66015625 708.204101562 443 659.723320158 443 c 0
 570.507017354 443 503.425742651 357.295898438 476.002686512 274.163085938 c 1
EndSplineSet
EndChar

StartChar: germandbls
Encoding: 223 223 147
Width: 533
Flags: HW
LayerCount: 2
Fore
SplineSet
429.31640625 507.306640625 m 1
 439.66015625 517.48828125 452.083984375 545.790039062 453.0390625 584.006835938 c 0
 452.081054688 627.109375 429.048828125 672 356.67665083 672 c 0
 272.630529537 672 213.21875703 604.354492188 188.265873833 478.056640625 c 2
 93.9501953125 4.056640625 l 1
 93.1708984375 0 l 1
 89.0400390625 0 l 1
 44.0400390625 0 l 1
 38 0 l 1
 39.12890625 5.8525390625 l 1
 128.127929688 467.447265625 l 2
 153.177734375 597.900390625 213.563835976 721 365.040221025 721 c 0
 459.799804688 721 508.040039062 657.407226562 508.040039062 585 c 0
 508.040039062 539.198242188 484.755859375 492.266601562 466.67578125 473.438476562 c 2
 465.770507812 472.49609375 l 1
 464.510742188 472.115234375 l 2
 413.154296875 456.57421875 370.267452397 425.227539062 370.267452397 378.465820312 c 0
 370.267452397 344.80859375 385.82152856 324.52734375 411.952148438 292.030273438 c 0
 445.220703125 251.377929688 468.040039062 209.893554688 468.040039062 160.12890625 c 0
 468.040039062 59.5703125 379.859217776 -11 270.950056327 -11 c 0
 234.614672629 -11 198.23130458 -2.8955078125 171.034387291 12.712890625 c 2
 167.108859043 14.9658203125 l 1
 168.9261387 18.984375 l 1
 185.653279091 55.984375 l 1
 187.95244414 61.0693359375 l 1
 193.005094152 58.3623046875 l 2
 218.212192311 44.8603515625 249.948224968 38 274.08639515 38 c 0
 351.183974114 38 411.040039062 86.0537109375 411.040039062 158.43359375 c 0
 411.040039062 186.759765625 402.577148438 219.620117188 368.416481601 256.069335938 c 0
 327.261223038 301.533203125 310.677014755 334.881835938 310.677014755 366.990234375 c 0
 310.677014755 436.232421875 365.834515167 483.091796875 429.31640625 507.306640625 c 1
EndSplineSet
EndChar

StartChar: logicalnot
Encoding: 172 172 148
Width: 596
Flags: MW
LayerCount: 2
Fore
SplineSet
60 389 m 1
 553 389 l 1
 558 389 l 1
 558 384 l 1
 558 129 l 1
 558 124 l 1
 553 124 l 1
 512 124 l 1
 507 124 l 1
 507 129 l 1
 507 341 l 1
 60 341 l 1
 55 341 l 1
 55 346 l 1
 55 384 l 1
 55 389 l 1
 60 389 l 1
EndSplineSet
EndChar

StartChar: mu
Encoding: 181 181 149
Width: 505
Flags: MW
LayerCount: 2
Fore
SplineSet
169.91417096 479.0775447 m 1
 114.91934955 186.105572809 l 2
 112.00073734 170.053205651 110.444493056 154.692528529 110.391420252 140.364855562 c 0
 110.158795713 77.5649261651 137.71760857 35 208 35 c 0
 264.730366707 35 320.860977783 93.8619659586 350.603540167 149.381415743 c 0
 363.368537226 172.947564159 372.201199318 197.501094156 377.091989569 221.955045413 c 2
 426.087148772 480.929458341 l 1
 426.857251248 485 l 1
 431 485 l 1
 476 485 l 1
 482.03827339 485 l 1
 480.912300801 479.067636958 l 1
 413.917585422 126.095479811 l 2
 411.43862329 112.175153997 409.688527653 100.027465089 408.732065211 89.6684715534 c 0
 404.706704048 46.0716836128 413.453007768 35.0703452107 436.45267873 32.9794660323 c 2
 442.638270079 32.4171395461 l 1
 440.767913326 26.4943431603 l 1
 428.767913326 -11.5056568397 l 1
 427.787618751 -14.6099229933 l 1
 424.55215763 -14.9694186734 l 2
 416.006173501 -15.9189724655 417.909506032 -16 410 -16 c 0
 376.116725734 -16 349.719498129 8.06243246574 355.325106746 79.5756337561 c 1
 321.805178547 29.3308601553 264.866497039 -15 199 -15 c 0
 152.377530234 -15 109.021982527 5.64387130124 86.9906216159 47.7883022081 c 1
 75.9164100249 -13.9104463009 l 2
 65.9586063395 -67.682586202 52.1095787036 -157.879856902 55.9763731696 -197.514500179 c 2
 56.5115438839 -203 l 1
 51 -203 l 1
 10 -203 l 1
 5.87495051489 -203 l 1
 5.09110074705 -198.950109533 l 2
 -1.22010972713 -166.34218875 6.03307568801 -98.3590002886 21.0882210334 -18.0648917799 c 2
 116.088221033 480.93510822 l 1
 116.862098226 485 l 1
 121 485 l 1
 165 485 l 1
 171.025894651 485 l 1
 169.91417096 479.0775447 l 1
EndSplineSet
EndChar

StartChar: trademark
Encoding: 8482 8482 150
Width: 651
Flags: MW
LayerCount: 2
Fore
SplineSet
104 679 m 1
 324 679 l 1
 329 679 l 1
 329 674 l 1
 329 643 l 1
 329 638 l 1
 324 638 l 1
 237 638 l 1
 237 402 l 1
 237 397 l 1
 232 397 l 1
 196 397 l 1
 191 397 l 1
 191 402 l 1
 191 638 l 1
 104 638 l 1
 99 638 l 1
 99 643 l 1
 99 674 l 1
 99 679 l 1
 104 679 l 1
657 397 m 1
 619 397 l 1
 614.339021776 397 l 1
 614.012299246 401.64951292 l 1
 601.010943531 586.668805789 l 2
 600.343991747 597.340034342 599.587425954 611.590886167 598.969507154 624.242791971 c 1
 593.659566895 608.61786583 588.519467655 592.747014664 583.72314881 578.35805813 c 2
 520.70132925 404.297794582 l 1
 519.507300177 401 l 1
 516 401 l 1
 475 401 l 1
 471.477727836 401 l 1
 470.291885812 404.31665191 l 1
 406.291885812 583.31665191 l 1
 406.243622488 583.451638394 l 1
 406.203172492 583.58916838 l 2
 403.11539908 594.087597981 397.763351783 610.184357688 393.571951685 622.41195444 c 1
 393.142666099 609.986003198 392.599884355 599.47859125 391.991656492 586.705806116 c 2
 378.987700754 401.64951292 l 1
 378.660978224 397 l 1
 374 397 l 1
 338 397 l 1
 332.579260009 397 l 1
 333.016275078 402.403095398 l 1
 355.016275078 674.403095398 l 1
 355.388083538 679 l 1
 360 679 l 1
 413 679 l 1
 416.488415851 679 l 1
 417.692635817 675.726026967 l 1
 481.668427777 501.791842577 l 2
 487.890980382 486.235461063 493.068155447 468.839232219 496.974837771 456.324874281 c 1
 502.317070193 473.125842236 507.168759398 488.138349558 511.301032883 499.708715315 c 2
 575.301032883 675.708715315 l 1
 576.497863677 679 l 1
 580 679 l 1
 633 679 l 1
 637.578249461 679 l 1
 637.98064925 674.439469051 l 1
 661.98064925 402.439469051 l 1
 662.460602402 397 l 1
 657 397 l 1
EndSplineSet
EndChar

StartChar: Eth
Encoding: 208 208 151
Width: 649
Flags: HW
LayerCount: 2
Fore
SplineSet
16 331 m 1
 17.6005859375 337.2421875 l 1
 27.6005859375 376.2421875 l 1
 28.564453125 380 l 1
 32.443359375 380 l 1
 115.30078125 380 l 1
 170.421988252 662.208984375 l 1
 171.099681171 665.647460938 l 1
 174.712706732 666.161132812 l 2
 230.349691355 674.057617188 288.070882455 679 343.821150066 679 c 0
 456.745241419 679 548.266601562 642.190429688 594.471679688 578.4375 c 0
 620.166015625 545.01171875 642.443359375 487.760742188 642.443359375 413.887695312 c 0
 642.443359375 301.251953125 594.100585938 171.842773438 501.127110068 93.7685546875 c 0
 423.051071302 30.8046875 319.179593937 -3 201.128695503 -3 c 0
 154.852093694 -3 99.2041015625 -2.0068359375 48.84765625 4.03515625 c 2
 43.533203125 4.673828125 l 1
 44.53125 9.8525390625 l 1
 106.40625 331 l 1
 22.443359375 331 l 1
 16 331 l 1
365.512335988 380 m 1
 364.248178043 373.995117188 l 1
 356.035662673 334.995117188 l 1
 355.19456155 331 l 1
 351.007101015 331 l 1
 162.260600602 331 l 1
 107.3515625 51.2001953125 l 1
 143.591965198 46.890625 181.102669253 46 210.367775295 46 c 0
 319.060295923 46 410.074655414 80.962890625 474.777286582 140.025390625 c 0
 546.758789062 205.717773438 585.443359375 311.62890625 585.443359375 410.75390625 c 0
 585.443359375 529.616210938 530.858398438 630 329.449248168 630 c 0
 295.78515318 630 255.35014403 629.779296875 220.901088161 624.7265625 c 1
 172.420981862 380 l 1
 359.219616386 380 l 1
 365.512335988 380 l 1
EndSplineSet
Position2: "'cpsp' Capital Spacing lookup 0 subtable" dx=10 dy=0 dh=20 dv=0
EndChar

StartChar: onehalf
Encoding: 189 189 152
Width: 705
Flags: MW
LayerCount: 2
Fore
SplineSet
166 261 m 1
 126 261 l 1
 119.952069144 261 l 1
 121.089168906 266.940073381 l 1
 186.419819121 608.219589432 l 1
 125.182990432 578.501716686 l 1
 119.103202958 575.551231588 l 1
 118.059939831 582.228115599 l 1
 113.059939831 614.228115599 l 1
 112.484684425 617.909750198 l 1
 115.848295177 619.513332068 l 1
 201.848295177 660.513332068 l 1
 202.86911084 661 l 1
 204 661 l 1
 240 661 l 1
 246.037928668 661 l 1
 244.912353089 655.067912491 l 1
 170.912353089 265.067912491 l 1
 170.140492771 261 l 1
 166 261 l 1
111 -16 m 1
 66 -16 l 1
 56.2133554557 -16 l 1
 61.9485124751 -8.06990634358 l 1
 547.948512475 663.930093656 l 1
 549.445498313 666 l 1
 552 666 l 1
 597 666 l 1
 606.786644544 666 l 1
 601.051487525 658.069906344 l 1
 115.051487525 -13.9300936564 l 1
 113.554501687 -16 l 1
 111 -16 l 1
613 -5 m 1
 374 -5 l 1
 368.028049052 -5 l 1
 369.077862122 0.878953192418 l 1
 374.077862122 28.8789531924 l 1
 374.402496475 30.696905567 l 1
 375.830886945 31.8673922023 l 1
 447.809178775 90.8496035627 l 2
 547.200286432 174.177501902 611 231.29493352 611 298 c 0
 611 325.236305471 598.913793547 355 550 355 c 0
 518.832931921 355 486.55483829 336.633453571 471.152963125 324.119429999 c 2
 466.452540874 320.30033692 l 1
 463.59260015 325.638892937 l 1
 448.59260015 353.638892937 l 1
 446.610645852 357.33854096 l 1
 449.91089224 359.931591694 l 2
 478.647060891 382.51000992 518.570859488 400 559 400 c 0
 633.026493213 400 664 348.079925164 664 298 c 0
 664 215.570228912 577.71151677 142.766196148 483.145991143 67.1137756465 c 2
 449.65250358 40 l 1
 620 40 l 1
 626.099019514 40 l 1
 624.902903378 34.0194193243 l 1
 617.902903378 -0.980580675691 l 1
 617.099019514 -5 l 1
 613 -5 l 1
EndSplineSet
Ligature2: "Ligature Substitution lookup 22 subtable" one.numerator fraction two.numerator
EndChar

StartChar: plusminus
Encoding: 177 177 153
Width: 596
Flags: MW
LayerCount: 2
Fore
SplineSet
296 572 m 1
 336 572 l 1
 341 572 l 1
 341 567 l 1
 341 364 l 1
 563 364 l 1
 568 364 l 1
 568 359 l 1
 568 321 l 1
 568 316 l 1
 563 316 l 1
 341 316 l 1
 341 105 l 1
 341 100 l 1
 336 100 l 1
 296 100 l 1
 291 100 l 1
 291 105 l 1
 291 316 l 1
 69 316 l 1
 64 316 l 1
 64 321 l 1
 64 359 l 1
 64 364 l 1
 69 364 l 1
 291 364 l 1
 291 567 l 1
 291 572 l 1
 296 572 l 1
69 43 m 1
 563 43 l 1
 568 43 l 1
 568 38 l 1
 568 0 l 1
 568 -5 l 1
 563 -5 l 1
 69 -5 l 1
 64 -5 l 1
 64 0 l 1
 64 38 l 1
 64 43 l 1
 69 43 l 1
EndSplineSet
EndChar

StartChar: Thorn
Encoding: 222 222 154
Width: 495
Flags: HW
LayerCount: 2
Fore
SplineSet
39 0 m 1
 40.126953125 5.845703125 l 1
 168.604706366 669.932617188 l 1
 169.417602015 674 l 1
 173.773941656 674 l 1
 221.129480854 674 l 1
 227.52062882 674 l 1
 226.293577739 668.127929688 l 1
 199.452606108 539.685546875 l 1
 228.212258114 545.561523438 255.022399316 546.897460938 285.322545099 546.897460938 c 0
 358.789402438 546.897460938 410.485351562 528.939453125 443.805664062 492.004882812 c 0
 468.780273438 463.296875 480.0390625 426.630859375 480.0390625 387.279296875 c 0
 480.0390625 246.693359375 349.159004048 163.618164062 203.23961049 163.618164062 c 0
 179.393301212 163.618164062 149.049804688 164.6796875 126.0390625 167.89453125 c 1
 93.9482421875 4.052734375 l 1
 93.166015625 -0 l 1
 89.0390625 0 l 1
 45.0390625 0 l 1
 39 0 l 1
274.799091944 502 m 0
 242.650148092 502 206.134587789 497.375976562 189.916754367 493.102539062 c 1
 134.890625 215.9375 l 1
 163.008983472 210.713867188 187.538700597 210 209.553682383 210 c 0
 324.526518826 210 424.0390625 278.662109375 424.0390625 383 c 0
 424.0390625 466.473632812 364.703125 502 274.799091944 502 c 0
EndSplineSet
Position2: "'cpsp' Capital Spacing lookup 0 subtable" dx=10 dy=0 dh=20 dv=0
EndChar

StartChar: onequarter
Encoding: 188 188 155
Width: 705
Flags: MW
LayerCount: 2
Fore
SplineSet
570 -5 m 1
 530 -5 l 1
 523.965359356 -5 l 1
 525.087148772 0.929458340524 l 1
 544.965359356 106 l 1
 360 106 l 1
 354.097697891 106 l 1
 355.068030381 111.821994937 l 1
 359.068030381 135.821994937 l 1
 359.318056172 137.322149684 l 1
 360.361055141 138.429005732 l 1
 605.361055141 398.429005732 l 1
 606.841415124 400 l 1
 609 400 l 1
 645 400 l 1
 651.046781471 400 l 1
 649.9110065 394.060843379 l 1
 603.046781471 149 l 1
 658 149 l 1
 663.991063585 149 l 1
 662.91934955 143.105572809 l 1
 656.91934955 110.105572809 l 1
 656.172881767 106 l 1
 652 106 l 1
 595.142748752 106 l 1
 574.912851228 -0.929458340524 l 1
 574.142748752 -5 l 1
 570 -5 l 1
552.873148093 149 m 1
 580.081893714 289.902432679 l 2
 582.372052735 303.070847053 585.214652215 315.499903868 587.642296886 325.235597266 c 1
 577.71459671 311.643921987 570.999871538 302.406891891 560.704539858 290.640798542 c 2
 427.619225791 149 l 1
 552.873148093 149 l 1
168 261 m 1
 128 261 l 1
 121.952069144 261 l 1
 123.089168906 266.940073381 l 1
 188.419819121 608.219589432 l 1
 127.182990432 578.501716686 l 1
 120.904253579 575.454682625 l 1
 120.038610616 582.379826327 l 1
 116.038610616 614.379826327 l 1
 115.591032528 617.960451037 l 1
 118.848295177 619.513332068 l 1
 204.848295177 660.513332068 l 1
 205.86911084 661 l 1
 207 661 l 1
 243 661 l 1
 249.053154729 661 l 1
 247.910032235 655.055763032 l 1
 172.910032235 265.055763032 l 1
 172.130077806 261 l 1
 168 261 l 1
128 -16 m 1
 83 -16 l 1
 73.2133554557 -16 l 1
 78.9485124751 -8.06990634358 l 1
 564.948512475 663.930093656 l 1
 566.445498313 666 l 1
 569 666 l 1
 614 666 l 1
 623.786644544 666 l 1
 618.051487525 658.069906344 l 1
 132.051487525 -13.9300936564 l 1
 130.554501687 -16 l 1
 128 -16 l 1
EndSplineSet
Ligature2: "Ligature Substitution lookup 22 subtable" one.numerator fraction four.numerator
EndChar

StartChar: divide
Encoding: 247 247 156
Width: 616
Flags: HW
LayerCount: 2
Fore
SplineSet
367.742424242 437 m 0
 367.742424242 410.806640625 349.265343868 388 320 388 c 2
 318.962121212 388 l 2
 291.77253492 388 272.160274621 410.853515625 273.295454545 437.104492188 c 0
 273.295454545 464.240234375 292.94724343 486 321.037878788 486 c 0
 349.191354463 486 367.742424242 464.173828125 367.742424242 437 c 0
577 243 m 1
 572 243 l 1
 68 243 l 1
 63 243 l 1
 63 248 l 1
 63 286 l 1
 63 291 l 1
 68 291 l 1
 572 291 l 1
 577 291 l 1
 577 286 l 1
 577 248 l 1
 577 243 l 1
367.742424242 92 m 0
 367.742424242 65.806640625 349.265343868 43 320 43 c 2
 318.962121212 43 l 2
 291.77253492 43 272.160274621 65.853515625 273.295454545 92.1044921875 c 0
 273.295454545 119.240234375 292.94724343 141 321.037878788 141 c 0
 349.191354463 141 367.742424242 119.173828125 367.742424242 92 c 0
EndSplineSet
EndChar

StartChar: brokenbar
Encoding: 166 166 157
Width: 203
Flags: MW
LayerCount: 2
Fore
SplineSet
100 179 m 1
 140 179 l 1
 145 179 l 1
 145 174 l 1
 145 -176 l 1
 145 -181 l 1
 140 -181 l 1
 100 -181 l 1
 95 -181 l 1
 95 -176 l 1
 95 174 l 1
 95 179 l 1
 100 179 l 1
100 679 m 1
 140 679 l 1
 145 679 l 1
 145 674 l 1
 145 324 l 1
 145 319 l 1
 140 319 l 1
 100 319 l 1
 95 319 l 1
 95 324 l 1
 95 674 l 1
 95 679 l 1
 100 679 l 1
EndSplineSet
EndChar

StartChar: degree
Encoding: 176 176 158
Width: 294
Flags: MW
LayerCount: 2
Fore
SplineSet
219 691 m 2
 220 691 l 2
 295.128488141 691 339 630.273992043 339 570 c 0
 339 491.087018596 274.653850542 440 215 440 c 0
 144.01544354 440 95 497.541629296 95 563 c 0
 95 634.690589827 152.149091438 691 219 691 c 2
217 648 m 2
 216 648 l 2
 167.921035037 648 143 600.460267073 143 564 c 0
 143 518.322765166 176.200076473 483 215 483 c 0
 256.830471441 483 291 519.26843706 291 569 c 0
 291 599.602678649 272.129666571 648 217 648 c 2
EndSplineSet
EndChar

StartChar: thorn
Encoding: 254 254 159
Width: 523
Flags: HW
LayerCount: 2
Fore
SplineSet
-9 -198 m 1
 -7.8720703125 -192.06640625 l 1
 157.911360083 660.93359375 l 1
 158.714348242 665 l 1
 163.017593257 665 l 1
 210.83548738 665 l 1
 217.161937707 665 l 1
 215.933599309 659.029296875 l 1
 160.666492654 390.3984375 l 1
 210.930912016 455.435546875 275.422738523 491 343.893975376 491 c 0
 450.763671875 491 494.040039062 406.0234375 494.040039062 320.3984375 c 0
 494.040039062 148.705078125 360.084693646 -11 198.361254131 -11 c 0
 160.257384907 -11 113.381555274 -4.1162109375 85.0751953125 11.220703125 c 1
 47.9599609375 -193.890625 l 1
 47.2158203125 -198 l 1
 43.0400390625 -198 l 1
 -2.9599609375 -198 l 1
 -9 -198 l 1
333.498781001 442 m 0
 262.151608048 442 157.434236903 369.384765625 125.501499184 212.735351562 c 2
 95.533203125 62.50390625 l 1
 120.144522551 45.7490234375 162.076543922 38 203.558851318 38 c 0
 329.362021521 38 437.040039062 179.287109375 437.040039062 316.116210938 c 0
 437.040039062 374.884765625 411.821289062 442 333.498781001 442 c 0
EndSplineSet
EndChar

StartChar: threequarters
Encoding: 190 190 160
Width: 705
Flags: MW
LayerCount: 2
Fore
SplineSet
163 -16 m 1
 118 -16 l 1
 108.213355456 -16 l 1
 113.948512475 -8.06990634358 l 1
 599.948512475 663.930093656 l 1
 601.445498313 666 l 1
 604 666 l 1
 649 666 l 1
 658.786644544 666 l 1
 653.051487525 658.069906344 l 1
 167.051487525 -13.9300936564 l 1
 165.554501687 -16 l 1
 163 -16 l 1
126.305618421 597.278726754 m 1
 115.305618421 627.278726754 l 1
 114.035836004 630.741769709 l 1
 116.969783924 632.9771586 l 2
 138.90546837 649.690061036 178.577915798 666 215 666 c 0
 288.652023235 666 315 621.303663734 315 578 c 0
 315 532.062336884 280.332991772 497.615142933 235.751523566 478.291647117 c 1
 274.923152999 462.390917241 295 425.410752446 295 385.929591429 c 0
 292.913008267 311.841384923 236.104446035 256 140 256 c 0
 98.9001160324 256 61.1779133771 270.054545061 44.8765247622 283.095655953 c 2
 41.7618926247 285.587361663 l 1
 43.4992037429 289.177804641 l 1
 58.4992037429 320.177804641 l 1
 61.0816168493 325.514791727 l 1
 65.9061909686 322.068667356 l 2
 79.1343865539 312.619956224 107.244469217 299 144 299 c 0
 211.525088502 299 244 341.7795688 244 385 c 0
 244 435.823488021 198.154129681 455 154 455 c 2
 133 455 l 1
 127.158082894 455 l 1
 128.059939831 460.771884401 l 1
 133.059939831 492.771884401 l 1
 133.720582894 497 l 1
 138 497 l 1
 162 497 l 2
 208.694987133 497 264 529.34714602 264 574 c 0
 264 601.477924357 250.767418195 622 206 622 c 0
 179.488110338 622 151.357022252 609.455643814 134.200921998 595.158893602 c 2
 128.748812824 590.61546929 l 1
 126.305618421 597.278726754 l 1
581 -5 m 1
 541 -5 l 1
 534.965359356 -5 l 1
 536.087148772 0.929458340524 l 1
 555.965359356 106 l 1
 371 106 l 1
 365.097697891 106 l 1
 366.068030381 111.821994937 l 1
 370.068030381 135.821994937 l 1
 370.318056172 137.322149684 l 1
 371.361055141 138.429005732 l 1
 616.361055141 398.429005732 l 1
 617.841415124 400 l 1
 620 400 l 1
 656 400 l 1
 662.046781471 400 l 1
 660.9110065 394.060843379 l 1
 614.046781471 149 l 1
 669 149 l 1
 674.991063585 149 l 1
 673.91934955 143.105572809 l 1
 667.91934955 110.105572809 l 1
 667.172881767 106 l 1
 663 106 l 1
 606.142748752 106 l 1
 585.912851228 -0.929458340524 l 1
 585.142748752 -5 l 1
 581 -5 l 1
563.873148093 149 m 1
 591.081893714 289.902432679 l 2
 593.372052735 303.070847053 596.214652215 315.499903868 598.642296886 325.235597266 c 1
 588.71459671 311.643921987 581.999871538 302.406891891 571.704539858 290.640798542 c 2
 438.619225791 149 l 1
 563.873148093 149 l 1
EndSplineSet
Ligature2: "Ligature Substitution lookup 22 subtable" three.numerator fraction four.numerator
EndChar

StartChar: registered
Encoding: 174 174 161
Width: 386
Flags: MW
LayerCount: 2
Fore
SplineSet
273.093853855 478.02879651 m 0
 269.633158488 493.601925661 261.649722314 500 239 500 c 2
 224 500 l 1
 224 435 l 1
 224 430 l 1
 219 430 l 1
 188 430 l 1
 183 430 l 1
 183 435 l 1
 183 602 l 1
 183 606.194904853 l 1
 187.13107333 606.923917794 l 2
 204.354222222 609.96329701 222.712158199 612 246 612 c 0
 274.53194159 612 289.986484423 606.737770651 301.90432219 598.070252275 c 0
 313.292760507 590.098345453 321 575.524729901 321 559 c 0
 321 538.277186654 307.209572218 524.476786499 292.765526431 517.545662155 c 1
 305.946148452 508.481372172 311.584116807 496.133742555 315.889371445 478.051673077 c 0
 320.926669335 451.857724047 323.956546642 442.579058225 327.160251472 437.773500981 c 2
 332.342585459 430 l 1
 323 430 l 1
 291 430 l 1
 288.65812527 430 l 1
 287.158893602 431.799078002 l 2
 280.704537737 439.544305039 277.111589932 454.926814068 273.093853855 478.02879651 c 0
224 576.805417944 m 1
 224 534 l 1
 240 534 l 2
 262.940145966 534 278 540.780892278 278 556 c 0
 278 568.636905468 271.728676823 578 243 578 c 0
 234.246690377 578 228.203066315 577.404232745 224 576.805417944 c 1
248 687 m 2
 249 687 l 2
 341.680328589 687 415 614.790549967 415 523 c 0
 415 429.243514942 341.685275269 357 248 357 c 0
 154.344019402 357 80 429.202076955 80 523 c 0
 80 614.846218089 154.372893102 687 248 687 c 2
248 649 m 2
 247 649 l 2
 177.917080756 649 125 592.439156546 125 523 c 0
 125 451.575388405 177.81621588 396 249.034720548 396 c 0
 318.029203058 395.041743298 369 451.411186163 369 522 c 0
 369 592.557288225 318.020244394 649 248 649 c 2
EndSplineSet
EndChar

StartChar: minus
Encoding: 8722 8722 162
Width: 596
Flags: MW
LayerCount: 2
Fore
SplineSet
63 291 m 1
 557 291 l 1
 562 291 l 1
 562 286 l 1
 562 248 l 1
 562 243 l 1
 557 243 l 1
 63 243 l 1
 58 243 l 1
 58 248 l 1
 58 286 l 1
 58 291 l 1
 63 291 l 1
EndSplineSet
EndChar

StartChar: eth
Encoding: 240 240 163
Width: 511
Flags: HW
LayerCount: 2
Fore
SplineSet
94 183.409179688 m 0
 94 103.844726562 135.666015625 38 219.924439712 38 c 2
 220.974006486 38 l 2
 333.890581984 38 424.0078125 169.920898438 425 314.197265625 c 0
 425 338.385742188 423.004882812 365.34765625 405.842773438 389.541015625 c 0
 386.461914062 418.857421875 354.478080263 443 299.691514594 443 c 0
 176.146025567 443 94 309.041992188 94 183.409179688 c 0
176.378693202 513.21484375 m 1
 174.183212702 517.99609375 l 1
 159.489277855 549.99609375 l 1
 157.485351562 554.415039062 l 1
 162.022997647 556.505859375 l 1
 293.134797154 616.58203125 l 1
 268.09586479 641.77734375 235.939557735 662.852539062 202.774682607 679.581054688 c 2
 197.457150939 682.263671875 l 1
 200.968689777 686.91796875 l 1
 225.108725597 718.91796875 l 1
 227.814639938 722.50390625 l 1
 231.883761126 720.389648438 l 2
 277.458943391 696.704101562 307.352122089 671.624023438 342.607931026 640.959960938 c 1
 464.8515625 698.514648438 l 1
 469.279296875 700.622070312 l 1
 471.471679688 696.236328125 l 1
 487.471679688 664.236328125 l 1
 489.748046875 659.68359375 l 1
 485.15625 657.48828125 l 1
 378.052734375 606.306640625 l 1
 443.39453125 530.619140625 481 447.427734375 481 339.325195312 c 0
 481 119.14453125 345.618260731 -11 218.874872937 -11 c 0
 83.353515625 -11 38 91.572265625 38 179.2109375 c 0
 38 342.741210938 151.208007812 491 301.790648144 491 c 0
 336.292080962 491 384.95703125 481.321289062 417.788085938 442.840820312 c 1
 397.360351562 497.036132812 369.011095204 541.146484375 325.90710971 582.932617188 c 1
 181.298537458 515.508789062 l 1
 176.378693202 513.21484375 l 1
EndSplineSet
EndChar

StartChar: multiply
Encoding: 215 215 164
Width: 616
Flags: HW
LayerCount: 2
Fore
SplineSet
81 491.103515625 m 1
 84.2587890625 494.475585938 l 1
 113.258789062 524.475585938 l 1
 116.98828125 528.333007812 l 1
 120.57421875 524.341796875 l 1
 333.822244402 292.47265625 l 1
 548.142578125 524.349609375 l 1
 551.609375 528.19140625 l 1
 555.329101562 524.594726562 l 1
 585.329101562 495.594726562 l 1
 588.842773438 492.19921875 l 1
 585.528320312 488.608398438 l 1
 368.934946763 258.006835938 l 1
 585.520507812 28.3994140625 l 1
 588.793945312 24.869140625 l 1
 585.389648438 21.46484375 l 1
 555.389648438 -8.53515625 l 1
 551.685546875 -12.2392578125 l 1
 548.158203125 -8.3671875 l 1
 331.743663316 223.56640625 l 1
 116.557617188 -8.3583984375 l 1
 112.631835938 -12.6884765625 l 1
 108.961914062 -8.138671875 l 1
 83.9619140625 22.861328125 l 1
 81.2666015625 26.203125 l 1
 84.1630859375 29.373046875 l 1
 296.659365187 258.006835938 l 1
 84.15625 487.634765625 l 1
 81 491.103515625 l 1
EndSplineSet
EndChar

StartChar: copyright
Encoding: 169 169 165
Width: 677
Flags: MW
LayerCount: 2
Fore
SplineSet
372 653 m 2
 373 653 l 2
 542.941428921 653 674 512.537942012 674 340 c 0
 674 165.478945576 542.942924913 25 372 25 c 0
 200.101661438 25 67 165.425824852 67 340 c 0
 67 512.598982561 200.116114485 653 372 653 c 2
372 611 m 2
 371 611 l 2
 227.017010641 611 117 493.619394341 117 336 c 0
 117 183.475305608 226.908650686 67 372.034481119 67 c 0
 513.972490104 65.0422343588 624 183.344890031 624 340 c 0
 624 493.583158137 513.985019823 611 372 611 c 2
510.758543089 491.4649861 m 1
 500.758543089 460.4649861 l 1
 498.763251522 454.279582244 l 1
 493.296212043 457.794107623 l 2
 480.097389225 466.279065149 445.912555898 482 397 482 c 0
 296.942635539 482 253 416.924207703 253 337 c 0
 253 257.175968709 299.914197284 191 399 191 c 0
 439.147480329 191 476.246904936 201.885491483 499.109913296 218.080122406 c 2
 504.552589699 221.935351524 l 1
 506.726864908 215.629953417 l 1
 516.726864908 186.629953417 l 1
 517.943741418 183.101011537 l 1
 514.906190969 180.931332644 l 2
 478.553091633 154.964833118 430.490009346 148 389 148 c 0
 271.237772164 148 202 229.570042669 202 334 c 0
 202 449.978365707 293.57943786 525 396 525 c 0
 450.8187668 525 493.673717642 510.150773777 509.253956867 496.796283012 c 2
 511.779899083 494.631189684 l 1
 510.758543089 491.4649861 l 1
EndSplineSet
EndChar

StartChar: Aacute
Encoding: 193 193 166
Width: 557
Flags: HW
LayerCount: 2
Fore
SplineSet
450.403320312 4.26953125 m 1
 415.987237034 237 l 1
 158.366611412 237 l 1
 33.7802734375 2.681640625 l 1
 32.376953125 -0 l 1
 29.349609375 0 l 1
 -17.650390625 0 l 1
 -26 0 l 1
 -22.0576171875 7.2529296875 l 1
 346.755390943 671.360351562 l 1
 348.214558261 674 l 1
 351.303196267 674 l 1
 396.706678808 674 l 1
 401.144643499 674 l 1
 401.808725863 669.748046875 l 1
 504.293945312 5.6640625 l 1
 505.1640625 -0 l 1
 499.349609375 0 l 1
 455.349609375 0 l 1
 451.034179688 0 l 1
 450.403320312 4.26953125 l 1
308.397832362 500.6640625 m 2
 187.574142883 281 l 1
 407.220140574 281 l 1
 373.018387258 500.333984375 l 2
 369.365430399 530.431640625 363.980216206 571.979492188 360.753521624 606.211914062 c 1
 344.345950984 571.595703125 328.910822654 538.61328125 308.397832362 500.6640625 c 2
444.198242188 823 m 1
 446.349609375 823 l 1
 523.349609375 823 l 1
 537.505859375 823 l 1
 526.490234375 814.109375 l 1
 385.500918735 701.109375 l 1
 384.083067618 700 l 1
 382.260116181 700 l 1
 336.856633641 700 l 1
 324.865865735 700 l 1
 333.110967257 708.4375 l 1
 442.719726562 821.4375 l 1
 444.198242188 823 l 1
EndSplineSet
Position2: "'cpsp' Capital Spacing lookup 0 subtable" dx=10 dy=0 dh=20 dv=0
EndChar

StartChar: Acircumflex
Encoding: 194 194 167
Width: 557
Flags: HW
LayerCount: 2
Fore
SplineSet
450.403320312 4.26953125 m 1
 416.034179688 237 l 1
 158.59547823 237 l 1
 33.7802734375 2.681640625 l 1
 32.376953125 -0 l 1
 29.349609375 0 l 1
 -17.650390625 0 l 1
 -26 0 l 1
 -22.0576171875 7.2529296875 l 1
 347.654107228 671.360351562 l 1
 349.118462873 674 l 1
 352.218083075 674 l 1
 397.349609375 674 l 1
 401.650390625 674 l 1
 402.293945312 669.748046875 l 1
 504.293945312 5.6640625 l 1
 505.1640625 -0 l 1
 499.349609375 0 l 1
 455.349609375 0 l 1
 451.034179688 0 l 1
 450.403320312 4.26953125 l 1
309.160161596 500.6640625 m 2
 187.90686222 281 l 1
 407.538085938 281 l 1
 374.01048625 500.333984375 l 2
 370.34454066 530.431640625 364.94017839 571.979492188 361.702010727 606.211914062 c 1
 345.236100082 571.595703125 329.746089436 538.61328125 309.160161596 500.6640625 c 2
369.827768744 823 m 1
 371.893845114 823 l 1
 409.349609375 823 l 1
 411.936523438 823 l 1
 413.430664062 820.888671875 l 1
 493.430664062 707.888671875 l 1
 499.015625 700 l 1
 489.349609375 700 l 1
 442.349609375 700 l 1
 439.7578125 700 l 1
 438.263671875 702.118164062 l 1
 385.8125 776.50390625 l 1
 305.067449375 701.3984375 l 1
 303.563653212 700 l 1
 301.475328345 700 l 1
 248.661440768 700 l 1
 235.689555505 700 l 1
 245.096624712 708.625976562 l 1
 368.329029058 821.625976562 l 1
 369.827768744 823 l 1
EndSplineSet
Position2: "'cpsp' Capital Spacing lookup 0 subtable" dx=10 dy=0 dh=20 dv=0
EndChar

StartChar: Adieresis
Encoding: 196 196 168
Width: 557
Flags: HW
LayerCount: 2
Fore
SplineSet
450.403320312 4.26953125 m 1
 416.034179688 237 l 1
 158.532717332 237 l 1
 33.7802734375 2.681640625 l 1
 32.376953125 -0 l 1
 29.349609375 0 l 1
 -17.650390625 0 l 1
 -26 0 l 1
 -22.0576171875 7.2529296875 l 1
 347.407657168 671.360351562 l 1
 348.870590047 674 l 1
 351.967198661 674 l 1
 397.349609375 674 l 1
 401.650390625 674 l 1
 402.293945312 669.748046875 l 1
 504.293945312 5.6640625 l 1
 505.1640625 -0 l 1
 499.349609375 0 l 1
 455.349609375 0 l 1
 451.034179688 0 l 1
 450.403320312 4.26953125 l 1
308.951112212 500.6640625 m 2
 187.815622413 281 l 1
 407.538085938 281 l 1
 373.73842836 500.333984375 l 2
 370.0760446 530.431640625 364.676933202 571.979492188 361.441911739 606.211914062 c 1
 344.991999355 571.595703125 329.517038787 538.61328125 308.951112212 500.6640625 c 2
340.587035715 761 m 0
 340.587035715 739.771484375 323.377368135 716 296.100944198 716 c 2
 295.06638393 716 l 2
 269.92879211 716 252.649412948 737.764648438 252.649412948 760 c 0
 252.649412948 781.53125 272.089851107 805 298.170064734 805 c 0
 325.641479033 805 340.587035715 780.923828125 340.587035715 761 c 0
513.349609375 761 m 0
 513.349609375 739.5859375 495.586914062 716 469.349609375 716 c 2
 468.349609375 716 l 2
 444.940429688 716 428.349609375 737.833007812 428.349609375 760 c 0
 428.349609375 781.53125 447.140625 805 472.349609375 805 c 0
 497.884765625 805 513.349609375 781.051757812 513.349609375 761 c 0
EndSplineSet
Position2: "'cpsp' Capital Spacing lookup 0 subtable" dx=10 dy=0 dh=20 dv=0
EndChar

StartChar: Agrave
Encoding: 192 192 169
Width: 557
Flags: HW
LayerCount: 2
Fore
SplineSet
450.403320312 4.26953125 m 1
 416.034179688 237 l 1
 158.59547823 237 l 1
 33.7802734375 2.681640625 l 1
 32.376953125 -0 l 1
 29.349609375 0 l 1
 -17.650390625 0 l 1
 -26 0 l 1
 -22.0576171875 7.2529296875 l 1
 347.654107228 671.360351562 l 1
 349.118462873 674 l 1
 352.218083075 674 l 1
 397.349609375 674 l 1
 401.650390625 674 l 1
 402.293945312 669.748046875 l 1
 504.293945312 5.6640625 l 1
 505.1640625 -0 l 1
 499.349609375 0 l 1
 455.349609375 0 l 1
 451.034179688 0 l 1
 450.403320312 4.26953125 l 1
309.160161596 500.6640625 m 2
 187.90686222 281 l 1
 407.538085938 281 l 1
 374.01048625 500.333984375 l 2
 370.34454066 530.431640625 364.94017839 571.979492188 361.702010727 606.211914062 c 1
 345.236100082 571.595703125 329.746089436 538.61328125 309.160161596 500.6640625 c 2
240.770303269 823 m 1
 252.80370646 823 l 1
 325.293356075 823 l 1
 328.112847469 823 l 1
 329.642937311 820.712890625 l 1
 404.549804688 707.712890625 l 1
 409.533203125 700 l 1
 400.349609375 700 l 1
 363.609313729 700 l 1
 361.381430106 700 l 1
 359.850328969 701.5625 l 1
 249.0447217 814.5625 l 1
 240.770303269 823 l 1
EndSplineSet
Position2: "'cpsp' Capital Spacing lookup 0 subtable" dx=10 dy=0 dh=20 dv=0
EndChar

StartChar: Aring
Encoding: 197 197 170
Width: 557
Flags: HW
LayerCount: 2
Fore
SplineSet
450.403320312 4.26953125 m 1
 416.034179688 237 l 1
 158.59547823 237 l 1
 33.7802734375 2.681640625 l 1
 32.376953125 -0 l 1
 29.349609375 0 l 1
 -17.650390625 0 l 1
 -26 0 l 1
 -22.0576171875 7.2529296875 l 1
 347.654107228 671.360351562 l 1
 349.118462873 674 l 1
 352.218083075 674 l 1
 397.349609375 674 l 1
 401.650390625 674 l 1
 402.293945312 669.748046875 l 1
 504.293945312 5.6640625 l 1
 505.1640625 -0 l 1
 499.349609375 0 l 1
 455.349609375 0 l 1
 451.034179688 0 l 1
 450.403320312 4.26953125 l 1
309.160161596 500.6640625 m 2
 187.90686222 281 l 1
 407.538085938 281 l 1
 374.01048625 500.333984375 l 2
 370.34454066 530.431640625 364.94017839 571.979492188 361.702010727 606.211914062 c 1
 345.236100082 571.595703125 329.746089436 538.61328125 309.160161596 500.6640625 c 2
286.977398422 770 m 0
 286.977398422 821.694335938 327.698216382 863 385.349609375 863 c 2
 386.349609375 863 l 2
 439.96484375 863 477.349609375 824.700195312 477.349609375 774 c 0
 477.349609375 719.874023438 432.6328125 684 382.249509344 684 c 0
 326.871988093 684 286.977398422 722.083984375 286.977398422 770 c 0
427.349609375 775 m 0
 427.349609375 804.120117188 409.91015625 826 384.320642191 826 c 2
 383.285075768 826 l 2
 357.044995709 826 338.755719575 803.391601562 338.755719575 771 c 0
 338.755719575 744.052734375 356.695087523 723 382.249509344 723 c 0
 408.137695312 723 427.349609375 744.112304688 427.349609375 775 c 0
EndSplineSet
Position2: "'cpsp' Capital Spacing lookup 0 subtable" dx=10 dy=0 dh=20 dv=0
EndChar

StartChar: Atilde
Encoding: 195 195 171
Width: 557
Flags: HW
LayerCount: 2
Fore
SplineSet
450.403320312 4.26953125 m 1
 416.034179688 237 l 1
 158.570059367 237 l 1
 33.7802734375 2.681640625 l 1
 32.376953125 -0 l 1
 29.349609375 0 l 1
 -17.650390625 0 l 1
 -26 0 l 1
 -22.0576171875 7.2529296875 l 1
 347.55429221 671.360351562 l 1
 349.018071619 674 l 1
 352.116472094 674 l 1
 397.349609375 674 l 1
 401.650390625 674 l 1
 402.293945312 669.748046875 l 1
 504.293945312 5.6640625 l 1
 505.1640625 -0 l 1
 499.349609375 0 l 1
 455.349609375 0 l 1
 451.034179688 0 l 1
 450.403320312 4.26953125 l 1
309.075494267 500.6640625 m 2
 187.869909083 281 l 1
 407.538085938 281 l 1
 373.900299775 500.333984375 l 2
 370.235796766 530.431640625 364.833561157 571.979492188 361.596667741 606.211914062 c 1
 345.13723657 571.595703125 329.653321372 538.61328125 309.075494267 500.6640625 c 2
329.342975876 801 m 0
 358.50433265 801 373.489875438 792.247070312 393.05078125 779.2109375 c 0
 408.0859375 770.189453125 420.99609375 763 436.349609375 763 c 0
 448.729492188 763 458.651367188 773.747070312 465.549804688 797.400390625 c 2
 466.599609375 801 l 1
 470.349609375 801 l 1
 502.349609375 801 l 1
 508.422851562 801 l 1
 507.256835938 795.040039062 l 2
 498.130859375 748.393554688 474.97265625 711 430.349609375 711 c 0
 405.172851562 711 391.6796875 718.770507812 369.161212849 731.690429688 c 0
 350.802305497 742.122070312 341.92460469 749.8828125 326.524593975 749.0078125 c 0
 311.672489641 748.2109375 301.149047896 734.466796875 293.956513025 709.651367188 c 2
 292.898103466 706 l 1
 288.971778035 706 l 1
 255.846692627 706 l 1
 249.645848087 706 l 1
 250.754802514 711.89453125 l 2
 259.146261681 756.482421875 286.785206998 801 329.342975876 801 c 0
EndSplineSet
Position2: "'cpsp' Capital Spacing lookup 0 subtable" dx=10 dy=0 dh=20 dv=0
EndChar

StartChar: Ccedilla
Encoding: 199 199 172
Width: 561
Flags: HW
LayerCount: 2
Fore
SplineSet
488.205078125 74.46875 m 1
 489.834960938 68.2724609375 l 1
 499.834960938 30.2724609375 l 1
 500.90625 26.2021484375 l 1
 497.079101562 24.4521484375 l 2
 461.373274512 8.4052734375 402.091271656 -7.62890625 342.056641603 -9.9130859375 c 1
 312.136179407 -46.3232421875 l 1
 343.934174063 -57.4794921875 360.156014157 -82.3232421875 360.156014157 -111 c 0
 360.156014157 -164.578125 310.336330988 -198 254.780135426 -198 c 0
 227.879261972 -198 203.387602658 -189.844726562 189.929094862 -181.16015625 c 2
 186.315273653 -178.828125 l 1
 188.068713424 -174.981445312 l 1
 203.565166179 -140.981445312 l 1
 205.877527488 -135.90625 l 1
 210.853341615 -138.659179688 l 2
 224.649825431 -146.290039062 240.257255386 -151 257.879425977 -151 c 0
 283.310355962 -151 303.33568739 -138.137695312 303.33568739 -117 c 0
 303.33568739 -97.333984375 282.895704785 -83.9443359375 244.927377769 -79.970703125 c 2
 235.85751382 -79.021484375 l 1
 241.364000743 -71.9814453125 l 1
 290.283759702 -9.4404296875 l 1
 134.940429688 1.5185546875 48 107.711914062 48 267.018554688 c 0
 48 376.625976562 90.283203125 501.059570312 177.903201838 583.12109375 c 0
 252.193357765 648.018554688 344.358914077 685 449.002343283 685 c 0
 525.713867188 685 580.71484375 665.356445312 597.53515625 648.53515625 c 2
 600.143554688 645.927734375 l 1
 598.421875 642.666015625 l 1
 579.421875 606.666015625 l 1
 576.87890625 601.84765625 l 1
 572.295898438 604.793945312 l 2
 545.538085938 621.99609375 496.314453125 635 435.572084229 635 c 0
 356.402967005 635 273.973137848 603.059570312 214.985729016 547.872070312 c 0
 145.666992188 484.077148438 105 377.124023438 105 276.0234375 c 0
 105 150.40625 155.510742188 39 325.030721246 39 c 0
 379.119999992 39 442.579790012 50.037109375 482.590820312 71.380859375 c 2
 488.205078125 74.46875 l 1
EndSplineSet
Position2: "'cpsp' Capital Spacing lookup 0 subtable" dx=10 dy=0 dh=20 dv=0
EndChar

